<?xml version="1.0" standalone="no"?>
<!DOCTYPE svg PUBLIC "-//W3C//DTD SVG 20010904//EN"
 "http://www.w3.org/TR/2001/REC-SVG-20010904/DTD/svg10.dtd">
<svg version="1.0" xmlns="http://www.w3.org/2000/svg"
 width="1792.000000pt" height="448.000000pt" viewBox="0 0 1792.000000 448.000000"
 preserveAspectRatio="xMidYMid meet">

<g transform="translate(0.000000,448.000000) scale(0.100000,-0.100000)"
fill="#000000" stroke="none">
<path d="M0 3595 c0 -700 3 -886 13 -889 237 -63 405 -160 554 -320 115 -122
291 -369 349 -488 36 -74 26 -102 -42 -120 -27 -7 -50 -21 -57 -33 -5 -11 -12
-74 -15 -141 -6 -147 2 -174 82 -298 76 -118 56 -101 -32 26 -97 140 -207 278
-297 370 -71 72 -90 98 -62 82 6 -4 -4 10 -23 31 -35 38 -186 154 -250 192
-55 33 -197 103 -209 103 -8 0 -11 -298 -11 -1055 l0 -1055 3400 0 c1870 0
3400 2 3400 4 0 3 -16 60 -36 128 -20 68 -39 137 -44 154 -8 34 3 64 24 64 10
0 12 12 8 46 -5 47 -5 47 22 40 22 -5 26 -3 26 14 0 11 -6 20 -12 21 -47 3
-125 -4 -135 -13 -13 -11 -259 -29 -280 -21 -7 3 -13 -2 -13 -10 0 -17 -29
-27 -78 -27 -20 0 -31 -4 -27 -10 3 -5 2 -10 -2 -10 -5 0 -14 -18 -20 -41
l-11 -41 42 6 c47 7 180 18 214 18 24 0 39 -8 31 -17 -6 -5 -127 -34 -174 -41
-16 -2 -53 -10 -82 -16 -34 -7 -57 -8 -65 -1 -18 13 -23 12 -111 -25 -112 -47
-255 -80 -377 -86 -69 -3 -90 -2 -60 3 25 5 71 18 102 30 32 11 67 21 79 21
12 0 45 7 74 16 l51 17 -1 62 c-1 34 -5 67 -9 73 -3 6 -11 46 -17 89 -16 113
-18 131 -24 201 -2 35 -7 67 -10 72 -4 6 1 10 9 10 9 0 16 4 16 9 0 5 8 12 18
14 15 4 15 5 0 6 -9 0 -20 -3 -23 -9 -13 -21 -24 -8 -34 41 -6 29 -9 54 -6 57
3 3 0 11 -5 18 -6 6 -10 16 -9 20 4 26 -2 45 -13 38 -10 -5 -10 -4 -1 6 9 10
11 35 6 87 -4 50 -2 73 5 73 7 0 6 12 -4 35 -8 19 -10 35 -5 35 5 0 11 -6 14
-12 2 -7 8 -10 12 -6 4 4 3 14 -3 21 -7 8 -9 17 -5 20 3 4 -2 7 -13 7 -18 1
-18 1 -1 11 14 8 15 14 7 24 -8 10 -8 15 0 20 8 5 6 13 -6 26 -9 10 -13 19 -7
19 11 0 12 170 0 188 -5 6 -4 12 0 12 12 0 14 38 2 46 -14 8 20 45 35 38 6 -3
3 1 -6 9 -25 20 -23 47 3 47 11 0 18 4 15 9 -3 5 1 14 9 21 10 9 15 9 15 1 0
-6 -6 -11 -12 -11 -18 -1 23 -30 41 -30 11 0 12 3 4 11 -9 9 -8 15 3 27 17 16
30 10 18 -10 -12 -19 -10 -54 5 -72 8 -9 11 -19 7 -23 -3 -3 -6 -1 -6 5 0 7
-4 12 -10 12 -16 0 -11 -28 6 -38 14 -8 12 -10 -10 -16 -14 -3 -26 -11 -26
-17 0 -6 4 -7 10 -4 5 3 15 3 21 -1 11 -7 -35 -55 -72 -75 -12 -6 -18 -13 -16
-16 7 -6 49 17 62 34 9 12 14 11 29 -6 11 -12 16 -24 11 -29 -4 -4 -10 -1 -12
6 -3 6 -9 12 -14 12 -6 0 -5 -8 1 -20 6 -11 17 -20 25 -20 8 0 15 -5 15 -11 0
-7 -13 -9 -37 -6 -21 3 -31 3 -23 1 9 -3 21 -13 28 -24 11 -18 10 -19 -13 -10
-19 7 -25 6 -25 -4 0 -8 6 -13 14 -12 8 0 14 -3 13 -9 -1 -5 -7 -9 -14 -7 -6
1 -15 -2 -18 -8 -4 -6 -1 -11 6 -9 49 6 65 -10 27 -27 -13 -6 -17 -9 -10 -7 6
1 12 -2 12 -8 0 -6 5 -7 10 -4 6 3 10 1 10 -5 0 -7 -6 -10 -14 -7 -7 3 -21 -4
-30 -15 -10 -11 -24 -17 -32 -14 -9 3 -14 -1 -14 -13 0 -19 2 -18 39 2 22 12
43 18 48 13 4 -5 2 -11 -4 -13 -8 -3 -11 -14 -7 -29 3 -13 2 -24 -3 -24 -5 0
-18 -7 -29 -16 -18 -15 -18 -15 3 -5 30 15 31 14 25 -14 -2 -14 -11 -25 -18
-25 -8 0 -14 -6 -14 -14 0 -8 -5 -16 -12 -18 -12 -4 -21 -39 -10 -37 4 0 16 4
27 9 17 7 18 9 2 9 -15 1 -15 4 -5 21 17 26 26 25 26 -2 0 -13 2 -39 4 -58 3
-31 0 -37 -26 -48 -16 -7 -26 -15 -23 -19 4 -3 14 0 23 8 14 11 17 10 25 -4 6
-9 18 -17 27 -18 12 0 13 -2 3 -6 -7 -3 -26 -19 -41 -36 -22 -25 -25 -33 -14
-44 7 -7 20 -10 28 -7 18 7 22 -11 5 -22 -8 -4 -7 -9 2 -15 10 -6 8 -12 -9
-27 -12 -11 -22 -23 -22 -28 0 -4 5 -3 12 4 7 7 21 12 33 12 19 -1 19 -1 -3
-13 -12 -7 -19 -16 -16 -20 4 -4 2 -7 -4 -7 -7 0 -12 -10 -11 -22 l0 -23 9 22
c5 13 17 23 27 23 17 -1 17 -1 1 -14 -22 -17 -23 -30 -2 -22 13 5 15 1 12 -19
-6 -30 6 -32 25 -5 8 11 17 17 22 12 4 -4 2 4 -5 17 -6 13 -7 21 -2 17 6 -3
13 3 17 14 3 11 11 20 17 20 6 0 8 3 5 6 -4 4 -13 1 -21 -5 -12 -10 -14 -9
-12 3 1 9 5 18 8 22 4 3 4 12 1 20 -3 8 0 14 6 14 6 0 11 -6 11 -14 0 -20 58
-27 65 -8 3 8 8 12 12 9 3 -4 0 -13 -7 -22 -9 -11 -10 -18 -1 -29 7 -8 13 -30
15 -50 2 -19 7 -41 13 -48 16 -23 34 -88 29 -106 -6 -18 45 -82 66 -82 30 0
251 79 260 93 17 27 3 30 -129 23 -76 -3 -144 -2 -151 2 -10 7 -5 11 17 15 34
7 42 27 11 27 -31 0 -23 18 13 29 17 5 57 19 87 31 30 12 69 26 85 32 17 6 33
15 36 20 8 12 196 30 229 22 14 -3 52 -10 85 -15 33 -5 89 -18 125 -29 122
-37 185 -52 226 -56 23 -1 66 -9 95 -18 30 -8 92 -19 139 -25 134 -17 140 -18
235 -35 50 -9 109 -23 133 -31 52 -18 375 -20 606 -5 175 12 164 16 257 -94
50 -60 69 -76 90 -76 39 0 78 -42 48 -52 -5 -2 -7 -11 -4 -21 6 -14 21 -17
100 -17 89 0 94 -1 97 -23 3 -21 7 -22 90 -21 74 1 87 -2 91 -16 4 -14 -7 -22
-47 -34 -28 -10 -73 -20 -99 -23 -26 -3 -50 -10 -53 -14 -3 -5 -17 -9 -32 -9
-15 0 -34 -5 -42 -10 -13 -8 -13 -13 2 -37 21 -35 53 -44 158 -42 47 1 97 -2
113 -6 27 -7 35 3 17 21 -7 7 -5 27 5 61 15 49 14 53 -6 87 -11 20 -17 36 -11
36 5 0 15 13 22 30 7 16 15 30 19 30 28 0 76 -171 66 -233 l-7 -37 320 0 c176
0 327 3 336 6 9 3 21 24 27 46 8 33 8 43 -6 58 -8 9 -13 24 -9 34 8 21 43 21
50 -1 17 -53 29 -62 129 -102 l103 -41 180 0 180 0 47 83 c26 45 63 108 81
140 23 39 30 59 21 61 -16 5 -164 29 -402 65 -289 44 -285 44 -285 30 0 -25
-34 17 -60 76 -32 69 -62 105 -90 105 -11 0 -37 16 -59 35 -50 45 -98 65 -161
65 -42 0 -50 -3 -50 -19 0 -19 -34 -31 -85 -31 -23 0 -119 -93 -165 -160 -36
-52 -48 -62 -72 -58 -16 2 -28 17 -44 58 -11 30 -26 54 -32 52 -18 -3 -14 18
3 24 21 9 18 26 -8 45 -28 20 -53 26 -167 39 -97 11 -250 36 -420 70 -52 10
-282 55 -510 100 -228 44 -433 85 -455 90 -22 6 -96 21 -165 35 -147 29 -415
85 -553 115 -94 21 -99 21 -118 5 -29 -27 -24 -63 16 -101 41 -39 37 -44 -57
-61 -16 -3 -28 -9 -28 -14 0 -5 -10 -9 -22 -9 -16 0 -19 -3 -10 -9 10 -6 6
-12 -15 -26 -33 -22 -173 -35 -173 -16 0 6 -9 11 -20 11 -14 0 -20 7 -20 24 0
31 58 82 109 96 22 6 43 15 47 21 3 6 13 8 21 5 19 -8 43 17 43 46 1 25 21 58
37 58 14 0 96 88 100 107 2 10 -1 34 -6 53 -41 152 -42 160 -31 215 12 60 22
69 84 78 32 5 77 -6 225 -54 102 -33 215 -74 250 -91 67 -32 103 -33 201 -8
19 5 58 14 85 21 28 6 88 24 135 39 47 15 117 37 155 49 39 12 89 31 112 42
24 10 47 19 53 19 5 0 25 9 44 19 19 11 36 18 39 15 2 -2 10 2 17 11 7 9 29
15 54 15 50 0 66 13 66 57 0 49 19 81 56 93 36 12 94 5 136 -16 37 -19 135
-18 154 1 11 11 12 20 5 33 -28 52 2 79 107 101 67 14 194 60 214 78 19 17 72
14 74 -4 1 -7 2 -30 3 -51 1 -26 9 -46 24 -61 34 -33 130 -106 149 -114 20 -7
78 11 78 25 0 5 15 8 33 6 30 -3 32 -5 38 -53 7 -47 38 -135 39 -107 0 6 9 12
19 12 10 0 21 7 24 15 4 8 22 21 40 29 19 8 38 19 41 25 12 19 64 13 75 -8 13
-24 60 -41 86 -30 11 4 55 8 99 8 78 1 79 1 122 -39 32 -29 52 -40 75 -40 17
0 49 -5 70 -12 38 -11 39 -12 33 -48 -3 -21 -1 -46 5 -58 8 -16 7 -23 -6 -33
-9 -8 -18 -13 -20 -11 -2 2 -18 0 -37 -3 -38 -8 -76 8 -76 30 0 19 -24 19 -39
1 -9 -10 -8 -16 4 -26 56 -47 -53 -156 -113 -114 -19 13 -162 18 -162 6 0 -18
33 -52 51 -52 10 0 19 -4 19 -10 0 -5 25 -10 55 -10 57 0 123 -21 137 -43 5
-8 29 -11 70 -9 65 2 83 -5 104 -43 6 -12 35 -27 70 -38 32 -10 102 -31 154
-48 107 -35 415 -110 533 -130 42 -7 77 -17 77 -21 0 -4 11 -8 24 -8 14 0 28
-5 31 -11 4 -6 13 -8 21 -5 22 8 44 -4 44 -25 0 -12 -7 -19 -20 -19 -13 0 -20
-7 -20 -20 0 -13 -7 -20 -20 -20 -17 0 -20 -7 -20 -40 0 -33 -3 -40 -20 -40
-13 0 -20 -7 -20 -20 0 -13 7 -20 20 -20 17 0 20 -7 20 -41 0 -25 4 -38 10
-34 6 4 7 11 4 17 -4 6 -2 8 4 5 5 -4 51 4 100 17 50 13 125 27 166 31 49 5
73 11 69 18 -4 7 0 8 13 3 22 -8 235 3 230 13 -2 3 40 7 93 8 92 1 324 36 456
68 94 23 252 52 340 64 103 14 354 18 425 8 l56 -8 114 77 c127 85 197 134
535 374 491 349 509 364 494 391 -8 16 -4 25 23 49 18 17 37 30 43 30 6 0 21
7 33 16 22 15 23 17 5 29 -10 7 -30 15 -43 17 -14 1 -26 11 -28 21 -3 15 0 16
21 6 28 -13 79 8 96 40 6 10 23 23 38 29 16 6 46 26 68 46 40 35 50 39 135 52
29 4 60 18 85 38 72 58 119 86 146 86 14 0 46 -14 71 -30 46 -31 125 -117 115
-126 -3 -3 -14 8 -26 25 -25 35 -80 71 -109 71 -12 0 -33 -15 -49 -36 -63 -82
-117 -116 -141 -92 -7 7 -9 1 -9 -15 1 -14 6 -23 11 -20 4 3 5 -5 1 -17 -5
-15 -4 -20 4 -16 6 4 11 2 11 -5 0 -6 19 -35 43 -63 55 -66 80 -106 71 -114
-4 -4 -9 -1 -11 6 -3 6 -9 10 -14 6 -5 -3 -14 -2 -20 2 -8 5 -8 9 1 14 9 6 -1
25 -35 70 -26 34 -53 64 -60 66 -7 3 -15 19 -19 35 -5 27 -26 33 -26 8 0 -6 5
-7 12 -3 7 4 8 3 4 -4 -4 -6 -14 -9 -24 -6 -11 3 -10 0 6 -12 26 -19 29 -34 6
-34 -8 0 -13 4 -10 9 4 5 -3 7 -14 4 -32 -9 -33 -20 -4 -57 27 -33 28 -34 50
-18 13 10 24 24 25 32 0 8 5 -1 11 -20 7 -24 6 -36 -1 -38 -6 -2 -11 -9 -11
-15 0 -8 4 -7 12 1 18 18 24 15 47 -24 26 -44 26 -49 -1 -51 -22 -2 -22 -1 -5
12 10 7 15 15 10 18 -5 3 -17 -1 -27 -9 -17 -12 -17 -16 -5 -31 13 -16 12 -17
-4 -4 -10 8 -39 43 -65 78 -62 85 -69 56 -7 -32 25 -36 43 -70 40 -75 -7 -11
-29 -7 -49 9 -9 7 -24 10 -37 6 -20 -7 -18 -9 17 -25 22 -10 35 -19 31 -19 -5
-1 -17 4 -28 9 -14 8 -19 7 -19 -1 0 -7 -8 -5 -20 6 -21 19 -21 19 12 36 18 9
41 15 51 13 14 -2 12 3 -10 24 -16 15 -35 38 -44 51 -15 24 -15 24 -46 6 -30
-17 -31 -19 -16 -41 13 -21 17 -22 30 -9 18 18 25 19 41 3 13 -13 16 -29 5
-26 -5 1 -19 -4 -31 -11 -13 -7 -24 -11 -25 -9 -20 40 -39 64 -53 66 -11 3
-14 0 -9 -10 6 -10 5 -11 -6 0 -14 13 -49 17 -49 5 0 -11 29 -53 63 -93 27
-31 29 -32 42 -14 16 22 30 12 30 -21 1 -15 -4 -21 -12 -18 -10 4 -11 9 -2 19
7 8 10 17 7 19 -3 3 -11 -1 -18 -10 -11 -13 -10 -19 6 -37 19 -21 19 -21 -3
-10 -16 9 -22 9 -25 1 -2 -7 -12 1 -23 17 l-18 29 21 -19 c36 -31 25 -3 -12
33 -21 20 -36 29 -40 22 -4 -6 -4 -17 0 -24 3 -6 -11 7 -32 31 -36 40 -41 43
-66 33 -20 -7 -26 -16 -23 -30 4 -23 53 -96 98 -147 24 -28 27 -38 18 -47 -15
-14 -16 -12 -90 103 -78 123 -37 141 -611 -268 -710 -506 -772 -550 -1150
-812 -190 -132 -407 -284 -483 -337 l-139 -98 106 -3 106 -3 116 76 c64 42
118 75 120 72 2 -2 -7 -10 -21 -17 -14 -7 -25 -17 -25 -22 0 -4 -6 -8 -12 -8
-12 0 -108 -85 -108 -95 0 -3 330 -5 733 -5 l732 0 -37 35 c-20 19 -41 35 -46
35 -10 0 -52 47 -52 58 0 5 -17 16 -37 25 -21 9 -50 27 -64 40 -14 14 -34 27
-45 31 -10 3 -35 21 -55 39 -60 52 -77 66 -81 62 -2 -3 -40 23 -83 55 -75 56
-95 65 -137 61 -29 -3 -21 6 50 56 37 26 85 62 108 80 23 18 44 33 48 33 12 0
198 -121 304 -197 57 -41 105 -73 107 -71 1 2 14 54 28 117 14 62 30 118 36
124 23 23 22 -29 -3 -143 -14 -65 -26 -121 -26 -124 0 -3 42 -36 93 -75 50
-38 137 -108 192 -155 l100 -85 1973 -1 1972 0 0 1325 0 1325 -22 4 c-28 6
-278 65 -329 77 -58 15 -62 26 -35 105 27 78 58 222 77 362 8 63 17 96 26 99
8 3 45 1 81 -5 37 -6 97 -14 135 -17 l67 -6 0 606 0 606 -2867 -1 -2868 -1
-28 -27 -29 -27 7 28 7 27 -170 0 -171 0 -3 -27 c-2 -14 -9 -29 -17 -31 -11
-4 -13 2 -8 27 l6 31 -308 0 c-238 0 -310 -3 -314 -12 -3 -10 -9 -10 -23 -2
-27 15 -174 18 -174 3 0 -8 -3 -9 -14 0 -9 8 -96 11 -280 11 -250 -1 -266 -2
-266 -19 0 -21 30 -51 51 -51 8 0 21 -6 28 -12 11 -11 13 -10 7 2 -4 8 -1 7 8
-4 10 -12 22 -17 37 -13 51 13 78 -33 39 -66 -13 -11 -20 -13 -20 -4 0 8 -4 7
-10 -3 -5 -8 -14 -15 -20 -15 -5 0 -10 -3 -10 -7 0 -5 0 -11 0 -14 0 -4 7 -1
15 6 11 9 22 7 55 -11 22 -12 40 -27 40 -32 0 -5 9 -7 20 -4 11 3 20 1 20 -4
0 -5 5 -9 11 -9 5 0 7 4 4 10 -3 6 0 10 9 10 8 0 16 -5 18 -12 3 -8 30 -12 78
-13 63 -1 74 -4 81 -20 6 -16 8 -16 8 -4 1 22 28 31 52 19 13 -7 19 -7 19 0 0
5 14 10 30 10 27 0 30 -3 30 -30 0 -16 5 -30 10 -30 6 0 10 11 10 24 0 45 8
55 36 42 16 -8 24 -19 24 -38 0 -37 -10 -58 -26 -58 -8 0 -14 -7 -14 -15 0 -8
-4 -15 -10 -15 -5 0 -10 9 -10 19 0 14 -5 18 -19 14 -16 -4 -20 1 -24 29 l-4
33 -1 -31 c-2 -26 -6 -32 -24 -32 -13 0 -48 -1 -78 -2 -31 -1 -60 -1 -65 0
-19 4 -50 -2 -37 -7 6 -2 12 -13 12 -23 0 -24 29 -40 69 -40 16 0 33 -5 36
-10 5 -8 11 -8 20 0 9 8 15 8 20 0 3 -5 17 -10 30 -10 13 0 36 -7 52 -14 15
-8 36 -17 46 -20 34 -11 14 -39 -43 -58 -41 -15 -73 -18 -128 -15 -40 2 -75 0
-78 -4 -3 -5 -22 -9 -43 -9 -38 0 -52 -9 -63 -40 -5 -12 4 -14 48 -12 49 4 55
2 63 -20 l10 -23 0 24 c1 17 5 22 17 17 9 -3 18 -6 20 -6 2 0 4 -13 4 -29 0
-20 6 -31 18 -34 9 -2 -5 -4 -31 -5 -45 0 -48 1 -54 29 -3 16 -9 29 -14 29
-12 0 -11 -7 1 -31 9 -16 7 -19 -8 -19 -10 0 -24 6 -31 12 -11 11 -14 11 -18
1 -7 -19 -23 -16 -23 4 0 15 -1 15 -12 1 -7 -9 -23 -19 -36 -23 -18 -5 -25 -2
-29 13 -5 21 -22 22 -73 3 -14 -5 -45 -12 -71 -16 -27 -3 -52 -14 -62 -26 -16
-18 -16 -22 -2 -42 8 -12 15 -18 15 -14 0 4 9 3 20 -3 25 -13 27 -57 3 -64
-21 -6 -94 -20 -108 -21 -5 0 -11 -10 -13 -23 -5 -30 -31 -40 -48 -18 -13 18
-50 22 -158 18 -37 -2 -38 -3 -23 -20 29 -32 16 -122 -17 -122 -7 0 -22 11
-34 25 -28 33 -42 32 -72 -5 -14 -17 -35 -32 -48 -33 -34 -2 -20 -22 19 -25
19 -2 40 -8 46 -14 13 -10 71 -4 102 11 43 22 93 41 106 41 10 0 15 10 15 29
0 21 6 32 21 36 28 9 39 -8 39 -64 l0 -43 -35 6 c-39 8 -39 8 -36 -65 2 -38
-2 -50 -20 -63 -12 -8 -26 -13 -31 -10 -19 12 -170 14 -184 3 -24 -20 -16 -53
16 -71 26 -15 30 -21 24 -45 -4 -15 -13 -35 -21 -43 -13 -13 -18 -11 -46 23
-35 40 -67 49 -67 18 0 -27 -21 -40 -75 -48 l-48 -6 34 -18 c19 -10 51 -18 72
-19 46 0 90 -38 85 -73 -3 -22 -6 -22 -160 -25 -130 -2 -158 -5 -158 -17 0
-22 28 -32 105 -39 39 -3 91 -10 117 -14 26 -5 51 -5 55 -1 5 5 18 6 31 2 18
-4 22 -12 20 -40 -3 -53 -15 -57 -136 -47 -137 10 -199 11 -237 1 -27 -6 -32
-4 -47 24 -22 38 -23 85 -3 93 17 6 19 15 6 35 -8 12 -14 12 -41 1 l-31 -13
21 -22 c11 -12 20 -33 20 -48 0 -23 -7 -28 -54 -43 -87 -28 -53 -55 68 -55 58
0 80 -14 74 -46 -3 -19 -18 -24 -117 -45 -71 -14 -88 -33 -44 -48 15 -5 36
-15 45 -20 10 -6 25 -10 33 -10 10 0 15 -9 15 -26 0 -19 -4 -25 -15 -20 -8 3
-44 -2 -80 -11 -74 -18 -111 -8 -121 33 -7 27 11 64 32 64 12 0 11 7 -6 40
-26 51 -25 66 5 96 29 29 30 31 10 50 -21 22 -30 64 -17 85 9 13 8 24 -3 45
-10 21 -13 60 -11 160 2 73 0 147 -4 166 -4 18 -8 27 -9 21 -1 -7 -11 -13 -22
-13 -31 0 -48 -28 -49 -81 0 -40 -3 -48 -22 -53 -35 -9 -58 -50 -69 -119 -5
-34 -19 -104 -31 -156 -15 -68 -19 -101 -12 -120 13 -35 2 -106 -20 -130 -14
-15 -30 -20 -66 -19 -99 3 -140 -39 -140 -141 0 -64 -29 -199 -47 -221 -7 -8
-19 -24 -27 -35 -14 -20 -14 -20 -44 2 -24 18 -40 21 -103 18 -75 -3 -80 -6
-94 -49 -6 -19 -6 -19 -26 0 -11 12 -21 34 -23 50 -2 22 -11 32 -41 45 -20 9
-48 29 -61 44 -22 26 -26 27 -48 15 -13 -7 -29 -9 -35 -6 -7 5 -11 -4 -11 -23
0 -57 -32 -112 -60 -103 -8 2 -37 19 -65 37 -27 18 -66 39 -86 48 -35 14 -109
97 -109 122 0 15 -32 45 -49 45 -24 0 -71 -44 -71 -67 0 -20 -5 -23 -41 -23
l-42 0 7 32 c17 81 19 128 5 144 -8 9 -18 35 -24 58 l-10 41 -57 3 c-47 2 -61
-1 -78 -18 -39 -39 -20 -91 52 -136 22 -14 43 -34 45 -45 3 -10 9 -19 13 -19
4 0 8 -21 8 -47 2 -37 -3 -55 -22 -78 -23 -28 -25 -29 -43 -13 -23 21 -117 58
-146 58 -35 0 -142 -30 -145 -40 -2 -6 -11 -10 -19 -10 -9 0 -31 -9 -49 -21
-19 -11 -34 -16 -34 -10 0 6 -4 11 -10 11 -5 0 -10 -7 -10 -15 0 -8 -9 -15
-19 -15 -30 0 -51 -11 -51 -27 0 -8 -4 -11 -10 -8 -6 3 -10 -2 -10 -12 0 -44
-60 -60 -81 -22 -6 12 -11 49 -11 83 0 92 -16 146 -57 188 -20 21 -41 38 -48
38 -6 0 -13 6 -16 13 -3 8 -11 6 -28 -9 -13 -11 -40 -27 -59 -34 -50 -19 -60
-29 -60 -59 -1 -45 -33 -71 -95 -75 -32 -3 -513 -99 -582 -117 -43 -12 -64
-36 -38 -45 20 -8 19 -24 0 -24 -13 0 -14 -4 -5 -20 9 -16 8 -18 -5 -14 -9 4
-15 0 -15 -9 0 -8 -6 -18 -12 -21 -7 -3 -3 -3 9 0 17 4 22 1 20 -16 -1 -11 -8
-20 -17 -20 -12 -1 -11 -4 4 -15 19 -14 19 -15 0 -37 -10 -12 -13 -18 -6 -14
14 8 17 -10 2 -19 -16 -10 -12 -25 8 -25 14 0 15 -2 2 -10 -20 -13 -43 -13
-34 1 3 6 0 15 -7 20 -12 8 -12 10 0 18 11 7 12 13 3 23 -9 11 -9 18 1 28 10
10 7 11 -16 6 -21 -5 -28 -3 -25 6 3 7 14 15 26 18 16 4 19 9 12 19 -7 13 -11
13 -25 1 -15 -13 -17 -11 -15 10 4 42 1 48 -22 53 l-23 4 23 2 c12 0 22 6 22
12 0 6 -6 9 -14 6 -12 -5 -14 3 -11 34 3 35 1 41 -21 49 -14 6 -23 14 -19 20
4 6 15 6 30 0 25 -9 25 -9 9 14 -15 24 -14 24 8 19 19 -4 20 -3 8 6 -13 10
-12 13 5 27 19 16 19 16 -10 9 l-29 -6 19 23 c11 13 24 28 30 33 5 6 19 21 30
34 l20 23 -32 -6 c-17 -4 -34 -3 -37 3 -7 11 5 15 89 31 86 16 95 20 95 36 0
20 -24 18 -71 -6 -24 -13 -56 -20 -82 -19 -23 1 -98 -4 -167 -10 -258 -27
-1039 -35 -1205 -13 -27 4 158 5 413 3 325 -2 462 0 462 8 0 7 -83 9 -277 5
-211 -4 -320 -2 -452 10 -178 16 -247 30 -105 21 52 -3 71 -2 54 4 -14 5 -43
10 -65 10 -49 2 -63 12 -106 77 -100 152 -194 292 -210 316 -11 15 -19 32 -19
38 0 5 -4 10 -10 10 -5 0 -10 4 -10 10 0 5 -49 83 -109 172 -60 90 -120 184
-134 210 -34 62 -80 132 -89 136 -5 2 -8 8 -8 13 0 17 -129 239 -202 346 -37
56 -104 150 -148 209 -44 58 -80 111 -80 118 0 7 -7 21 -15 32 -23 30 -18 40
6 10 11 -14 25 -23 31 -20 6 4 8 2 5 -3 -4 -6 1 -17 10 -24 9 -8 14 -9 11 -4
-4 6 5 16 20 23 15 6 45 39 66 72 32 48 47 62 75 69 59 15 167 29 319 42 126
11 142 14 142 31 0 11 7 18 20 18 13 0 20 7 20 20 0 20 -7 20 -2140 20 l-2140
0 0 -885z m11726 837 c-14 -14 -16 -14 -16 -1 0 20 23 44 29 28 2 -6 -4 -18
-13 -27z m-709 -106 c-10 -24 -47 -8 -45 20 1 13 8 24 15 24 7 0 13 8 14 18 1
9 6 3 11 -15 6 -18 8 -39 5 -47z m-304 28 c-3 -8 0 -21 7 -29 10 -12 9 -15 -9
-15 -16 0 -21 6 -21 25 0 27 -9 32 -28 13 -9 -9 -7 -14 6 -24 17 -13 12 -15
-45 -14 -5 0 -8 15 -8 33 1 30 4 32 40 37 44 6 67 -4 58 -26z m211 20 c17 -43
8 -54 -44 -54 -33 0 -50 4 -50 13 0 8 -4 7 -10 -3 -6 -10 -10 -11 -10 -3 0 9
-7 10 -25 3 -22 -9 -25 -7 -25 15 0 26 15 41 25 25 4 -6 11 -7 17 -4 6 4 15 0
20 -7 7 -11 11 -11 15 -1 8 20 43 14 43 -8 0 -11 5 -20 11 -20 5 0 9 8 8 18
-4 42 12 59 25 26z m456 -21 c0 -20 3 -24 9 -14 12 18 23 -2 15 -26 -5 -12 -4
-15 4 -8 6 6 12 21 14 34 1 14 9 26 17 29 19 6 6 -54 -20 -90 -10 -15 -19 -33
-19 -40 0 -27 -21 10 -22 39 -1 29 -1 30 -19 12 -19 -19 -39 -25 -39 -11 0 4
9 13 20 20 14 8 20 23 20 47 0 19 5 35 10 35 6 0 10 -12 10 -27z m520 16 c0
-6 -7 -9 -15 -5 -9 3 -15 0 -15 -9 0 -8 4 -15 9 -15 5 0 0 -18 -10 -40 -15
-31 -25 -40 -45 -40 -24 0 -26 3 -20 31 3 17 6 40 6 51 0 10 4 17 9 13 5 -3 7
-22 4 -42 -4 -26 -3 -34 5 -29 7 4 12 17 12 29 0 46 12 67 36 67 13 0 24 -5
24 -11z m124 2 c3 -5 -9 -7 -27 -6 -47 4 -67 -17 -57 -61 7 -29 6 -33 -6 -23
-37 30 -2 99 51 99 19 0 36 -4 39 -9z m-956 -26 c0 -13 -4 -22 -9 -19 -5 3 -9
14 -9 25 0 10 4 19 9 19 5 0 9 -11 9 -25z m160 13 c22 -22 14 -57 -18 -73 -27
-14 -30 -14 -40 4 -21 40 -6 81 30 81 9 0 21 -5 28 -12z m287 -39 c0 -42 -1
-44 -32 -47 -41 -4 -44 16 -10 65 29 43 42 37 42 -18z m133 29 c23 -19 -5 -98
-29 -82 -4 2 -2 20 4 39 6 19 7 38 4 42 -9 8 -57 -44 -57 -63 0 -7 -7 -14 -16
-14 -13 0 -15 7 -10 31 3 17 6 37 6 44 0 16 79 18 98 3z m127 -39 c0 -44 0
-44 -35 -45 -19 0 -43 2 -52 4 -16 4 -16 7 -3 25 10 14 11 25 4 39 -8 15 -6
18 15 18 23 0 24 -3 19 -36 -5 -29 -3 -36 8 -32 8 3 15 21 17 42 5 53 27 41
27 -15z m210 21 c-3 -5 -12 -10 -18 -10 -7 0 -6 4 3 10 19 12 23 12 15 0z
m2375 -60 c0 -5 -9 -10 -20 -10 -11 0 -20 5 -20 10 0 6 9 10 20 10 11 0 20 -4
20 -10z m98 -2 c-3 -7 -13 -13 -23 -13 -10 0 -20 6 -22 13 -3 7 5 12 22 12 17
0 25 -5 23 -12z m102 3 c0 -14 -18 -23 -30 -16 -6 4 -8 11 -5 16 8 12 35 12
35 0z m305 -11 c0 -18 -43 -26 -57 -12 -16 16 2 33 30 30 16 -2 27 -9 27 -18z
m81 -19 c-9 -14 -26 -14 -46 -1 -13 9 -12 12 5 25 16 13 21 13 33 1 8 -8 11
-19 8 -25z m1168 14 c-3 -7 -17 -15 -32 -18 -15 -2 -35 -8 -44 -12 -15 -6 -18
-2 -18 18 0 23 5 26 38 29 47 4 62 0 56 -17z m-4117 9 c-3 -3 -12 -4 -19 -1
-8 3 -5 6 6 6 11 1 17 -2 13 -5z m2288 -4 c-3 -5 -13 -10 -21 -10 -8 0 -12 5
-9 10 3 6 13 10 21 10 8 0 12 -4 9 -10z m385 0 c-19 -13 -30 -13 -30 0 0 6 10
10 23 10 18 0 19 -2 7 -10z m361 -26 c-23 -16 -41 -11 -41 11 0 18 21 24 43
13 18 -9 18 -10 -2 -24z m220 26 c5 0 9 -7 9 -15 0 -9 -9 -15 -25 -15 -19 0
-25 5 -25 21 0 15 4 19 16 15 9 -3 20 -6 25 -6z m129 -9 c0 -23 -28 -34 -63
-26 -24 6 -24 8 -9 26 22 26 72 26 72 0z m175 0 c0 -8 -4 -16 -10 -18 -16 -5
-38 14 -30 26 9 16 40 9 40 -8z m124 -5 c20 -15 -36 -28 -62 -14 -20 10 -20
11 -3 24 18 13 40 10 65 -10z m-549 4 c0 -6 -7 -13 -15 -16 -20 -8 -48 3 -40
16 8 13 55 13 55 0z m820 -12 c0 -19 -26 -24 -49 -9 -8 5 -28 5 -48 -1 -23 -6
-39 -6 -45 0 -20 20 4 30 72 28 59 -1 70 -4 70 -18z m-4817 -28 c4 0 5 5 2 10
-10 16 11 12 25 -5 29 -36 -20 -159 -51 -128 -8 8 -5 17 10 32 24 24 28 69 7
77 -8 3 -17 13 -21 22 -5 14 -4 15 6 5 7 -7 17 -13 22 -13z m971 -36 c10 -27
7 -64 -10 -95 -20 -39 -31 -30 -14 11 7 17 10 46 7 65 -6 35 6 48 17 19z
m-299 -4 c3 -5 1 -10 -4 -10 -6 0 -11 -16 -11 -35 0 -19 -4 -35 -10 -35 -5 0
-10 20 -10 45 0 33 4 45 14 45 8 0 18 -4 21 -10z m-555 -21 c0 -5 -4 -9 -10
-9 -5 0 -10 7 -10 16 0 8 5 12 10 9 6 -3 10 -10 10 -16z m24 6 c3 -8 1 -15 -4
-15 -6 0 -10 7 -10 15 0 8 2 15 4 15 2 0 6 -7 10 -15z m604 -2 c-32 -5 -38
-36 -10 -52 14 -9 13 -10 -10 -11 -25 0 -28 3 -28 35 0 34 1 35 38 34 30 -2
32 -3 10 -6z m80 0 c-21 -5 -24 -23 -5 -23 6 0 4 -5 -6 -11 -9 -6 -15 -14 -12
-20 4 -5 -1 -9 -9 -9 -12 0 -16 10 -16 35 0 33 2 35 33 34 17 -1 24 -3 15 -6z
m61 -10 c0 -10 -4 -27 -8 -37 -7 -18 -8 -18 -14 5 -10 37 -8 49 8 49 8 0 15
-8 14 -17z m-540 -20 c-10 -11 -14 -11 -20 -1 -10 17 -2 28 17 21 11 -4 12 -8
3 -20z m35 2 c3 -8 1 -15 -4 -15 -6 0 -10 7 -10 15 0 8 2 15 4 15 2 0 6 -7 10
-15z m2816 -55 c-12 -23 -30 -27 -30 -7 0 17 10 27 27 27 11 0 11 -5 3 -20z
m175 10 c3 -5 1 -10 -4 -10 -6 0 -11 5 -11 10 0 6 2 10 4 10 3 0 8 -4 11 -10z
m95 -5 c0 -8 -9 -15 -20 -15 -13 0 -18 5 -14 15 4 8 12 15 20 15 8 0 14 -7 14
-15z m120 -15 c0 -14 -37 -31 -54 -24 -22 8 -20 42 2 47 20 4 52 -10 52 -23z
m71 14 c10 -13 10 -17 -2 -25 -30 -19 -57 -3 -45 26 7 20 30 19 47 -1z m219 7
c0 -6 19 -9 41 -8 24 1 44 -3 46 -9 5 -16 -36 -25 -58 -14 -12 7 -26 5 -45 -5
-26 -13 -29 -13 -38 2 -6 12 -4 20 10 30 21 15 44 17 44 4z m875 -21 c0 -13
-6 -25 -12 -27 -9 -3 -13 6 -13 27 0 21 4 30 13 28 6 -3 12 -15 12 -28z
m-1645 12 c0 -14 -11 -21 -26 -15 -21 8 -17 23 6 23 11 0 20 -4 20 -8z m696
-3 c9 -16 -21 -43 -40 -36 -9 4 -16 16 -16 27 0 15 7 20 24 20 14 0 28 -5 32
-11z m270 -1 c11 -17 -26 -40 -43 -27 -10 9 -10 15 -2 25 14 17 35 18 45 2z
m94 -2 c0 -21 -20 -30 -33 -17 -9 9 -8 14 3 21 21 14 30 12 30 -4z m144 -17
c-8 -14 -34 -11 -34 4 0 8 3 17 7 20 9 9 34 -13 27 -24z m626 6 c0 -14 -4 -25
-10 -25 -11 0 -14 33 -3 43 11 11 13 8 13 -18z m-726 -6 c-3 -5 -10 -7 -15 -3
-5 3 -7 10 -3 15 3 5 10 7 15 3 5 -3 7 -10 3 -15z m194 3 c2 -7 -6 -12 -17
-12 -21 0 -27 11 -14 24 9 9 26 2 31 -12z m127 -7 c0 -17 -7 -20 -40 -20 -29
0 -41 4 -43 17 -2 11 5 18 20 21 43 9 63 3 63 -18z m-3838 -16 c6 -6 9 -29 6
-52 -6 -47 -40 -94 -57 -77 -7 7 -3 15 12 26 23 16 31 69 11 76 -11 4 -2 38
10 38 4 0 12 -5 18 -11z m-541 -47 c1 -40 -1 -42 -27 -42 -37 0 -49 38 -22 69
28 33 48 23 49 -27z m130 22 c-3 -9 -6 -27 -6 -40 0 -19 -5 -24 -25 -24 -29 0
-31 10 -10 50 16 31 52 43 41 14z m54 -14 c0 -17 5 -30 13 -31 6 0 28 -2 47
-3 31 -3 33 -2 12 7 -33 15 -24 41 16 45 18 2 32 -1 32 -7 0 -6 -10 -11 -22
-11 l-22 0 23 -16 c19 -14 25 -14 32 -3 5 8 9 20 9 27 0 25 60 9 61 -17 0 -10
3 -8 10 8 6 15 14 21 25 17 9 -3 20 -6 25 -6 15 0 6 -63 -8 -68 -7 -2 -14 5
-14 15 -1 16 -2 16 -6 1 -2 -10 -9 -18 -14 -18 -5 0 -9 8 -9 18 -1 16 -1 16
-14 0 -10 -14 -29 -17 -122 -15 -118 2 -124 6 -110 63 9 35 36 31 36 -6z
m-317 11 c4 0 7 -8 7 -18 0 -9 -3 -13 -7 -10 -3 4 -12 2 -20 -4 -9 -9 -13 -8
-13 0 0 6 -9 11 -20 11 -19 0 -26 11 -15 21 4 4 44 4 68 0z m55 -19 c2 -7 -2
-10 -12 -6 -9 3 -16 11 -16 16 0 13 23 5 28 -10z m821 -49 c1 -7 -10 -13 -24
-13 -20 0 -25 5 -24 23 1 17 2 18 6 4 6 -23 23 -12 24 16 0 21 1 21 9 2 5 -11
9 -26 9 -32z m77 35 c4 -7 3 -8 -4 -4 -8 5 -12 -3 -12 -23 0 -20 -5 -30 -12
-28 -14 2 -30 46 -22 59 8 12 42 10 50 -4z m69 -16 c-15 -10 -17 -32 -3 -32 6
0 9 -2 6 -5 -11 -11 -38 8 -38 26 0 13 7 19 23 19 12 0 18 -4 12 -8z m250 -32
c3 -5 -1 -10 -10 -10 -9 0 -13 5 -10 10 3 6 8 10 10 10 2 0 7 -4 10 -10z
m1382 -11 c2 -16 -3 -20 -24 -17 -34 4 -41 25 -11 31 13 2 25 5 28 6 3 0 6 -8
7 -20z m151 11 c22 0 13 -30 -13 -40 -14 -5 -25 -14 -25 -20 0 -17 -33 -11
-59 11 -13 11 -22 21 -20 23 19 17 68 35 84 31 11 -3 26 -5 33 -5z m433 -11
c41 0 81 0 89 0 8 0 37 -2 63 -5 42 -5 48 -9 45 -28 -3 -18 -10 -21 -53 -22
-27 -1 -64 4 -80 11 -17 6 -39 9 -50 5 -11 -4 -32 -4 -46 0 -14 4 -38 6 -52 3
-19 -4 -29 0 -33 11 -9 22 15 50 31 36 7 -6 46 -10 86 -11z m-236 -14 c0 -17
-6 -20 -45 -17 -25 1 -51 4 -57 7 -24 8 -13 22 18 23 17 0 34 3 37 7 14 13 47
-1 47 -20z m565 -11 c0 -8 -9 -14 -20 -14 -19 0 -27 19 -14 33 10 9 34 -4 34
-19z m-3790 -54 c0 -23 5 -30 19 -30 14 0 21 8 23 28 2 19 9 28 26 30 25 4 29
-12 8 -34 -8 -7 -16 -18 -18 -23 -3 -9 -28 -14 -64 -12 -17 1 -20 6 -16 26 2
15 0 25 -7 25 -7 0 -9 5 -6 10 14 22 35 10 35 -20z m160 19 c0 -4 8 -6 18 -5
12 1 18 -8 20 -31 2 -19 -1 -33 -7 -33 -6 0 -11 11 -11 25 0 14 -4 25 -10 25
-5 0 -10 -12 -10 -26 0 -33 -20 -21 -21 14 -2 27 -2 27 -6 2 -8 -44 -23 -46
-23 -3 0 37 2 41 25 39 14 0 25 -4 25 -7z m827 -33 c-5 -31 -3 -46 6 -49 7 -2
0 -6 -16 -9 -19 -4 -25 -2 -18 6 5 6 7 30 5 54 -3 33 0 42 13 42 13 0 15 -8
10 -44z m-595 17 c5 -23 -1 -53 -12 -53 -9 0 -19 57 -12 65 10 10 20 5 24 -12z
m-91 -5 c1 -7 1 -16 0 -20 -2 -17 18 -7 24 12 3 11 10 20 15 20 4 0 3 -13 -3
-30 -14 -37 -34 -38 -49 -2 l-12 27 -4 -27 c-3 -27 -32 -41 -32 -15 0 9 -2 9
-9 -1 -7 -11 -10 -10 -15 3 -14 37 -7 45 39 45 29 0 45 -5 46 -12z m175 0 c5
-8 0 -9 -14 -6 -12 4 -22 3 -22 -2 0 -4 9 -10 21 -13 23 -6 17 -27 -7 -27 -8
0 -12 5 -9 10 3 6 -1 10 -9 10 -16 0 -22 21 -9 33 10 11 41 8 49 -5z m149 -23
c0 -23 -5 -31 -20 -33 -17 -2 -21 2 -19 25 2 44 3 45 22 41 12 -2 17 -13 17
-33z m65 -16 c0 -9 -7 -19 -15 -23 -11 -4 -15 2 -15 23 0 15 3 31 7 34 8 9 23
-13 23 -34z m388 -7 c3 -34 -1 -43 -19 -53 -20 -10 -21 -9 -13 7 4 11 8 36 7
57 -1 52 21 43 25 -11z m-265 -28 c-21 -16 -37 -18 -28 -4 3 6 2 10 -3 10 -18
0 0 42 22 50 17 6 22 3 24 -17 2 -15 -4 -30 -15 -39z m-270 49 c-7 -2 -19 -2
-25 0 -7 3 -2 5 12 5 14 0 19 -2 13 -5z m372 -18 c0 -15 -8 -21 -32 -23 -30
-3 -33 -1 -33 23 0 24 3 26 33 23 24 -2 32 -8 32 -23z m225 10 c0 -8 -2 -15
-4 -15 -2 0 -6 7 -10 15 -3 8 -1 15 4 15 6 0 10 -7 10 -15z m183 3 c6 -21 -4
-48 -19 -48 -8 0 -15 10 -15 23 -2 21 -2 22 -6 1 -2 -12 -13 -30 -23 -39 -18
-16 -21 -16 -59 1 -30 14 -41 25 -41 42 0 26 7 28 32 5 17 -15 18 -15 18 0 0
10 8 17 20 17 15 0 20 -7 20 -25 0 -14 4 -25 9 -25 6 0 8 10 6 22 -7 33 47 56
58 26z m37 -3 c0 -18 41 -20 57 -4 21 21 43 2 43 -36 0 -22 -4 -34 -10 -30 -5
3 -10 17 -10 31 0 15 -4 23 -11 19 -6 -4 -8 -13 -5 -21 4 -11 1 -12 -13 -5
-13 7 -28 5 -53 -9 -39 -20 -56 -17 -33 7 8 8 15 25 15 39 0 13 5 24 10 24 6
0 10 -7 10 -15z m160 -24 c0 -26 -10 -51 -21 -51 -5 0 -9 16 -9 35 0 24 5 35
15 35 8 0 15 -9 15 -19z m87 -17 c-10 -60 -21 -61 -30 -1 -5 33 -3 37 15 37
18 0 20 -4 15 -36z m78 22 c16 -11 21 -11 33 0 7 8 18 12 22 9 5 -3 34 -6 65
-6 50 -1 56 -3 61 -25 9 -37 -2 -57 -29 -50 -12 3 -34 6 -49 6 -24 0 -28 4
-28 31 0 19 -4 28 -11 23 -6 -3 -8 -15 -6 -26 7 -26 -20 -36 -37 -13 -12 16
-13 16 -19 1 -4 -10 -18 -16 -37 -16 -26 0 -30 3 -30 28 0 47 29 64 65 38z
m243 -39 c3 -34 1 -37 -23 -37 -22 0 -25 4 -23 33 2 42 6 49 26 45 12 -2 18
-15 20 -41z m55 1 c5 -38 3 -43 -18 -35 -9 4 -15 19 -15 37 0 41 26 40 33 -2z
m90 12 c11 -43 -42 -67 -66 -29 -16 26 -1 49 32 49 20 0 30 -6 34 -20z m-663
-15 c0 -3 -4 -13 -9 -23 -5 -9 -14 -28 -20 -42 -9 -22 -10 -20 -4 15 3 22 8
43 10 48 5 8 23 10 23 2z m-1764 -59 c4 -22 1 -27 -13 -24 -19 4 -28 30 -19
55 9 22 25 5 32 -31z m56 -10 c-3 -5 -9 -1 -12 10 -4 10 -5 23 -2 28 3 5 9 1
12 -10 4 -10 5 -23 2 -28z m295 1 c1 -15 -2 -27 -8 -27 -5 0 -9 4 -9 9 0 5 -9
13 -20 16 -11 3 -20 11 -20 18 0 8 3 8 12 -1 7 -7 19 -12 28 -11 10 0 11 2 3
6 -17 6 -17 26 -1 21 7 -3 14 -17 15 -31z m196 -10 c3 -22 2 -35 -4 -32 -5 4
-9 22 -9 42 0 45 5 40 13 -10z m-363 19 c0 -8 -4 -18 -10 -21 -5 -3 -10 3 -10
14 0 12 5 21 10 21 6 0 10 -6 10 -14z m316 -13 c-4 -34 -16 -41 -16 -10 0 15
-4 27 -9 27 -4 0 -6 -11 -3 -25 3 -18 0 -25 -12 -25 -9 0 -16 5 -16 11 0 5 5
7 11 3 9 -5 10 1 5 19 -6 24 -4 27 18 25 19 -2 24 -7 22 -25z m232 -3 c-1 -16
-5 -27 -10 -24 -16 10 -8 -9 10 -22 9 -7 12 -14 5 -14 -14 0 -43 27 -43 41 0
16 20 49 30 49 5 0 8 -13 8 -30z m-491 -2 c-3 -8 -6 -5 -6 6 -1 11 2 17 5 13
3 -3 4 -12 1 -19z m33 13 c0 -6 -4 -12 -8 -15 -5 -3 -9 1 -9 9 0 8 4 15 9 15
4 0 8 -4 8 -9z m331 -31 c5 0 9 -4 9 -10 0 -16 -30 -12 -36 5 -4 8 -3 23 2 33
7 15 8 14 11 -5 3 -13 9 -23 14 -23z m207 26 c-10 -7 -18 -18 -18 -24 0 -6 8
-13 18 -15 16 -4 16 -5 -1 -6 -10 0 -20 6 -23 14 -7 17 12 45 30 45 6 0 3 -7
-6 -14z m38 -46 c1 -17 -2 -27 -7 -24 -5 3 -9 19 -9 36 0 39 13 28 16 -12z
m57 33 c-7 -2 -13 -18 -13 -35 0 -35 -23 -34 -28 2 -4 24 12 40 38 39 10 0 11
-2 3 -6z m73 -7 c5 -14 -24 -65 -37 -66 -7 0 -2 57 6 71 9 14 25 11 31 -5z
m362 2 c19 -19 14 -37 -14 -50 -17 -8 -24 -18 -21 -30 3 -11 0 -18 -9 -18 -22
0 -19 86 4 99 22 13 26 13 40 -1z m88 -23 c11 -44 1 -60 -36 -60 -28 0 -35 4
-35 20 0 11 11 25 23 31 15 7 20 14 13 18 -18 12 -12 24 9 19 11 -3 23 -16 26
-28z m594 25 c0 -5 -7 -10 -16 -10 -8 0 -12 5 -9 10 3 6 10 10 16 10 5 0 9 -4
9 -10z m190 -5 c0 -8 -4 -15 -10 -15 -5 0 -10 7 -10 15 0 8 5 15 10 15 6 0 10
-7 10 -15z m-1121 -11 c3 -2 0 -9 -6 -15 -16 -16 -47 -7 -51 15 -3 16 0 18 24
12 16 -4 31 -10 33 -12z m411 1 c0 -8 -5 -15 -12 -15 -6 0 -4 -8 6 -19 22 -24
13 -41 -20 -41 -27 0 -34 20 -6 20 15 1 15 2 -3 16 -17 13 -18 16 -5 24 10 7
11 10 3 10 -7 0 -13 5 -13 10 0 6 11 10 25 10 16 0 25 -6 25 -15z m-260 -9 c0
-8 -5 -18 -10 -21 -6 -4 -8 -11 -5 -16 4 -5 1 -9 -5 -9 -7 0 -9 8 -5 21 5 14
2 25 -6 30 -10 6 -8 9 9 9 12 0 22 -6 22 -14z m356 3 c5 -9 -1 -10 -20 -5 -32
8 -33 0 -3 -24 17 -15 20 -22 11 -36 -15 -25 -27 -27 -49 -8 -20 15 -20 15 3
11 25 -6 29 5 7 23 -8 7 -15 21 -15 31 0 14 7 19 29 19 17 0 33 -5 37 -11z
m72 -1 c5 -7 9 -31 8 -53 -1 -41 0 -40 -51 -36 -8 0 -15 8 -15 16 0 12 4 13
19 6 30 -17 34 1 5 24 -18 15 -25 27 -21 38 7 20 40 22 55 5z m249 -3 c8 -3
11 -22 10 -55 -2 -41 -5 -50 -20 -50 -16 0 -18 7 -15 48 3 42 1 47 -19 50 -18
3 -24 -4 -32 -34 -6 -20 -8 -41 -5 -46 3 -4 -4 -8 -15 -8 -17 0 -21 6 -21 33
0 65 39 86 117 62z m-149 -27 c-2 -25 -8 -33 -22 -33 -11 0 -21 -6 -24 -13 -6
-20 -22 -13 -22 11 0 50 11 67 42 67 27 0 29 -2 26 -32z m236 -17 c-5 -43 -4
-50 12 -54 11 -3 4 -5 -15 -6 -32 -1 -33 0 -27 30 3 17 6 42 6 55 0 15 6 24
15 24 13 0 15 -9 9 -49z m141 29 c4 -6 -8 -10 -30 -10 -35 0 -36 -1 -33 -32 2
-25 8 -34 26 -36 12 -2 22 -8 22 -13 0 -13 -44 -11 -58 3 -13 13 -17 80 -5 91
10 11 71 8 78 -3z m55 -44 c0 -30 -4 -58 -10 -61 -6 -4 -10 17 -10 54 0 34 4
61 10 61 6 0 10 -24 10 -54z m125 33 c4 -6 -2 -13 -13 -16 -11 -3 -22 -16 -25
-30 -3 -19 1 -27 19 -35 26 -12 32 -28 11 -28 -27 0 -45 26 -51 73 -6 47 -5
47 24 47 16 0 32 -5 35 -11z m173 -11 c-3 -7 -13 -13 -23 -13 -10 0 -20 6 -22
13 -3 7 5 12 22 12 17 0 25 -5 23 -12z m-2580 -44 c15 -10 22 -24 20 -37 -2
-18 -10 -22 -38 -21 -31 0 -35 4 -38 29 -2 15 2 32 10 36 18 12 20 11 46 -7z
m1217 6 c3 -5 2 -10 -4 -10 -5 0 -13 5 -16 10 -3 6 -2 10 4 10 5 0 13 -4 16
-10z m1335 -2 c0 -7 3 -23 6 -35 5 -17 2 -23 -10 -23 -17 0 -32 42 -21 59 9
15 25 14 25 -1z m-9064 -36 c17 -42 11 -41 -15 4 -12 20 -16 34 -10 32 6 -2
17 -18 25 -36z m6836 -8 c-6 -30 6 -31 18 -1 8 21 9 21 9 -5 1 -22 -3 -26 -20
-23 -30 6 -32 9 -24 46 8 37 25 21 17 -17z m1548 30 c0 -2 -9 -4 -20 -4 -11 0
-20 4 -20 9 0 5 9 7 20 4 11 -3 20 -7 20 -9z m-1650 -9 c17 -20 5 -45 -20 -45
-23 0 -35 22 -26 45 7 19 30 19 46 0z m74 -7 c-3 -5 -12 -7 -20 -4 -8 3 -14
-1 -14 -8 0 -8 6 -17 13 -19 6 -3 2 -6 -10 -6 -18 -1 -23 5 -23 23 0 13 6 26
13 29 19 6 48 -4 41 -15z m126 -19 c0 -19 -5 -29 -15 -29 -15 0 -20 26 -9 54
9 24 24 9 24 -25z m280 -9 c0 -22 -4 -40 -10 -40 -5 0 -10 18 -10 40 0 22 5
40 10 40 6 0 10 -18 10 -40z m-220 4 c0 -33 -33 -30 -38 4 -3 17 2 22 17 22
16 0 21 -6 21 -26z m48 1 c1 -16 -3 -25 -13 -25 -21 0 -29 19 -15 35 18 21 25
18 28 -10z m86 -12 c-1 -28 -18 -42 -29 -24 -3 6 -1 11 5 11 8 0 10 9 6 25 -5
18 -3 23 7 20 7 -3 12 -17 11 -32z m45 17 c-6 -5 -9 -17 -6 -30 3 -14 1 -20
-6 -17 -14 4 -21 32 -13 52 3 9 12 12 21 8 12 -4 13 -8 4 -13z m854 10 c19 -1
-25 -30 -45 -30 -10 0 -18 6 -18 14 0 9 7 12 23 9 18 -4 20 -3 7 7 -13 10 -12
11 3 6 10 -3 24 -6 30 -6z m1145 -2 c-7 -20 -48 -23 -48 -4 0 11 9 16 26 16
16 0 24 -5 22 -12z m-2085 -5 c2 -5 -4 -16 -15 -25 -17 -17 -18 -17 -18 7 0
23 23 36 33 18z m451 -47 c-8 -44 -15 -41 -16 6 0 49 1 53 13 41 6 -6 8 -25 3
-47z m-221 32 c3 -10 7 -10 20 1 23 18 51 7 39 -16 -5 -10 -7 -24 -5 -30 5
-15 -13 -18 -22 -3 -3 5 -11 7 -18 4 -7 -2 -18 7 -24 23 l-11 28 -1 -27 c-1
-35 -21 -37 -21 -2 0 31 -23 28 -28 -4 -4 -29 -22 -18 -22 14 0 22 4 24 44 24
27 0 46 -5 49 -12z m1937 -3 c0 -16 -27 -32 -37 -22 -3 4 -3 13 0 22 8 20 37
20 37 0z m973 9 c9 -10 -4 -34 -19 -34 -8 0 -14 6 -14 13 0 22 19 35 33 21z
m155 -11 c-5 -25 -28 -28 -28 -4 0 12 6 21 16 21 9 0 14 -7 12 -17z m275 5
c12 -6 46 -10 75 -9 59 3 68 -10 21 -34 -22 -12 -34 -13 -43 -5 -8 5 -34 9
-60 8 -58 -2 -77 13 -45 36 28 19 25 19 52 4z m-125 -15 c-4 -20 -18 -26 -37
-14 -18 12 -5 31 20 31 14 0 19 -6 17 -17z m-3058 -8 c-7 -8 -10 -22 -6 -30 3
-8 1 -15 -4 -15 -11 0 -14 43 -3 53 13 14 25 7 13 -8z m180 4 c13 -8 12 -9 -4
-7 -21 3 -34 -38 -13 -45 8 -2 7 -4 -2 -3 -24 2 -37 32 -22 50 16 19 21 19 41
5z m3224 -2 c15 -11 16 -15 3 -25 -25 -21 -63 8 -40 31 9 10 17 9 37 -6z
m-3149 -7 c3 -6 -1 -13 -11 -17 -16 -6 -16 -7 0 -18 15 -11 14 -13 -9 -17 -22
-5 -25 -2 -25 23 0 32 31 52 45 29z m3335 -3 c0 -17 -20 -37 -37 -37 -13 0
-18 32 -6 43 11 12 43 7 43 -6z m145 3 c11 -18 -6 -50 -26 -50 -28 0 -37 30
-14 46 22 17 32 17 40 4z m-3405 -8 c0 -4 -6 -14 -12 -21 -10 -11 -10 -13 0
-7 7 4 12 1 12 -8 0 -21 -16 -21 -24 0 -10 27 -7 44 9 44 8 0 15 -4 15 -8z
m3547 -8 c7 -20 -22 -45 -43 -37 -14 5 -19 35 -7 46 12 13 44 7 50 -9z m161
-6 c2 -9 -8 -24 -21 -33 -42 -27 -76 4 -44 40 16 20 61 15 65 -7z m207 -8 c39
1 116 -1 173 -5 l103 -7 -3 -27 c-3 -23 -7 -26 -38 -24 -19 0 -80 2 -134 3
-72 1 -107 5 -127 17 -26 16 -29 16 -48 -1 -12 -11 -31 -16 -53 -14 -26 2 -34
8 -36 27 -5 31 15 43 58 36 19 -4 67 -6 105 -5z m-5316 -65 c0 -5 -4 -3 -9 5
-5 8 -9 22 -9 30 0 16 17 -16 18 -35z m161 -10 c0 -20 -5 -25 -25 -25 -20 0
-25 5 -25 25 0 20 5 25 25 25 20 0 25 -5 25 -25z m193 6 c15 -3 28 -9 27 -13
0 -5 0 -12 0 -18 0 -5 -20 -10 -44 -10 -36 0 -46 4 -51 20 -8 26 3 43 24 34 9
-3 29 -9 44 -13z m-6793 -6 c0 -10 -10 -15 -30 -15 -47 0 -35 27 13 29 9 1 17
-6 17 -14z m6964 -1 c9 -24 7 -44 -4 -44 -5 0 -9 10 -7 22 1 14 -4 23 -15 26
-13 3 -18 -3 -18 -21 0 -14 6 -28 13 -31 6 -3 3 -5 -8 -3 -15 2 -21 11 -23 35
-3 30 -1 32 26 32 18 0 32 -6 36 -16z m288 -22 c10 -7 18 -23 17 -35 l0 -22
-9 23 c-5 12 -16 22 -25 22 -10 0 -15 9 -14 28 0 16 3 21 6 12 4 -8 14 -21 25
-28z m-892 19 c0 -5 -7 -14 -15 -21 -16 -14 -18 -10 -9 14 6 17 24 22 24 7z
m528 -19 c2 -15 -2 -22 -12 -22 -11 0 -16 9 -16 26 0 31 23 28 28 -4z m-458
14 c0 -3 -4 -8 -10 -11 -5 -3 -10 -1 -10 4 0 6 5 11 10 11 6 0 10 -2 10 -4z
m582 -28 c-13 -26 -17 -29 -20 -15 -2 10 2 24 8 32 22 26 29 16 12 -17z m196
-11 c2 -19 -1 -27 -13 -27 -12 0 -14 4 -6 18 7 13 6 23 -2 32 -9 10 -9 12 3 8
8 -3 16 -17 18 -31z m331 20 c8 -10 7 -17 -2 -26 -9 -10 -8 -15 7 -27 11 -8
15 -14 9 -14 -6 0 -17 7 -24 16 -12 14 -14 14 -20 -3 -6 -13 -8 -8 -8 18 -1
48 15 63 38 36z m301 -62 c0 -60 -3 -75 -15 -75 -11 0 -14 7 -9 25 4 15 2 25
-5 25 -6 0 -11 7 -11 15 0 8 4 15 9 15 5 0 12 16 15 35 11 55 16 41 16 -40z
m-510 40 c0 -20 -5 -25 -25 -25 -20 0 -25 5 -25 25 0 20 5 25 25 25 20 0 25
-5 25 -25z m45 15 c3 -5 1 -10 -4 -10 -15 0 -14 -27 2 -34 6 -3 3 -5 -8 -3
-25 3 -35 57 -11 57 8 0 18 -4 21 -10z m237 -12 c-3 -13 -10 -26 -16 -30 -7
-5 -4 -8 7 -8 9 0 17 -4 17 -10 0 -13 -27 -13 -36 1 -3 6 -1 16 4 21 8 8 8 17
1 30 -8 15 -6 18 10 18 15 0 18 -5 13 -22z m509 -44 c-3 -64 -11 -87 -20 -61
-10 28 0 128 12 124 8 -2 11 -24 8 -63z m169 47 c0 -11 -4 -22 -8 -25 -14 -9
-35 12 -29 28 9 23 37 20 37 -3z m-828 2 c-10 -4 -10 -8 -1 -19 17 -21 -5 -44
-23 -25 -11 12 -10 13 6 7 19 -7 19 -6 1 14 -24 26 -45 26 -38 0 3 -11 0 -20
-6 -20 -6 0 -11 11 -11 25 0 23 4 25 43 24 23 0 36 -3 29 -6z m478 -39 c0 -19
-5 -24 -25 -24 -31 0 -33 -20 -2 -21 17 -1 18 -2 4 -6 -44 -11 -64 54 -25 81
26 19 48 5 48 -30z m2623 24 c8 -28 -12 -57 -24 -35 -9 15 -1 57 11 57 4 0 10
-10 13 -22z m-2909 -20 c-4 -15 -2 -19 7 -16 8 3 13 13 13 22 -1 9 3 16 8 16
20 0 3 -45 -19 -48 -18 -3 -22 1 -21 27 1 17 5 28 10 25 5 -3 6 -15 2 -26z
m726 22 c0 -5 -8 -13 -17 -19 -14 -8 -15 -12 -4 -25 7 -9 9 -16 3 -16 -18 0
-24 -34 -7 -46 11 -8 13 -14 5 -19 -6 -4 -17 -2 -24 4 -16 14 -26 70 -14 77 5
3 8 11 7 17 -3 29 3 37 26 37 14 0 25 -4 25 -10z m-625 -20 c7 -23 -1 -40 -19
-40 -20 0 -39 27 -32 45 8 22 44 18 51 -5z m235 4 c0 -8 -5 -12 -11 -8 -16 9
6 -29 25 -45 20 -17 36 -6 36 25 0 13 5 24 11 24 6 0 9 -14 7 -32 -3 -29 -7
-33 -36 -36 -18 -2 -40 2 -48 9 -19 16 -19 79 1 79 8 0 15 -7 15 -16z m205 6
c4 -6 4 -18 1 -27 -5 -12 -9 -13 -21 -3 -8 7 -15 19 -15 26 0 16 26 19 35 4z
m695 -29 c0 -23 27 -31 79 -24 33 5 41 2 51 -16 6 -12 10 -36 8 -54 -3 -28 -7
-32 -34 -35 -39 -4 -64 19 -64 59 0 22 -5 29 -20 29 -15 0 -20 -7 -20 -29 0
-16 5 -31 12 -33 13 -5 2 -28 -12 -28 -5 0 -14 9 -20 20 -13 24 -2 143 11 134
5 -3 9 -13 9 -23z m-426 3 c23 -23 20 -26 -21 -19 l-38 5 33 -17 c47 -24 41
-57 -10 -61 -22 -2 -38 1 -38 7 0 6 12 11 28 11 l27 1 -27 15 c-29 15 -36 42
-16 62 17 17 44 15 62 -4z m2706 7 c0 -5 21 -9 48 -9 26 0 74 -3 107 -6 33 -3
79 -6 102 -6 33 1 43 -3 48 -20 4 -12 1 -27 -5 -35 -15 -19 -49 -19 -56 -2 -3
10 -26 12 -93 9 -82 -4 -90 -3 -110 19 -18 20 -24 22 -42 11 -16 -10 -20 -10
-25 3 -4 8 -4 22 0 30 6 16 26 21 26 6z m-2890 -13 c0 -5 0 -24 0 -43 0 -30
-3 -35 -24 -35 -32 0 -44 20 -17 27 24 6 28 28 6 37 -25 9 -17 28 10 24 14 -2
25 -6 25 -10z m298 0 c7 -7 12 -16 12 -22 0 -6 -5 -5 -12 2 -21 21 -47 14 -54
-14 -8 -31 7 -48 35 -39 31 10 51 33 51 61 0 21 4 24 38 24 21 0 43 -5 50 -12
13 -13 15 -49 6 -85 -10 -38 -24 -26 -24 21 0 25 -5 48 -12 52 -15 10 -38 -24
-38 -58 0 -18 -5 -28 -15 -28 -8 0 -15 7 -15 17 0 15 -1 15 -18 0 -22 -20 -63
-22 -80 -5 -7 7 -12 26 -12 43 0 38 16 55 50 55 14 0 31 -5 38 -12z m-2335 -9
c12 -7 33 -12 48 -11 22 0 28 -5 32 -26 2 -15 8 -35 12 -44 5 -13 2 -20 -11
-25 -10 -4 -19 -2 -21 3 -11 30 -20 36 -40 23 -16 -9 -30 -10 -66 -1 -25 7
-59 12 -76 12 -34 0 -45 12 -36 40 7 22 35 26 65 10 16 -8 22 -6 32 10 15 23
30 25 61 9z m2585 -9 c2 -11 -5 -16 -25 -15 -23 0 -29 -5 -31 -27 -3 -27 -1
-29 37 -32 28 -2 23 -26 -5 -26 -58 0 -84 60 -43 101 23 23 62 22 67 -1z
m-2365 -12 c32 2 37 -1 38 -21 l2 -22 4 23 c4 22 43 33 43 11 0 -6 5 -7 13 -2
17 11 81 10 89 -2 11 -15 10 -45 -2 -45 -5 0 -10 10 -10 23 l0 22 -18 -23
c-15 -19 -24 -22 -60 -17 -23 2 -74 6 -113 7 -73 2 -88 11 -75 44 4 11 12 13
28 8 13 -4 40 -6 61 -6z m5247 -3 c0 -8 -4 -15 -10 -15 -5 0 -10 7 -10 15 0 8
5 15 10 15 6 0 10 -7 10 -15z m128 -9 c3 -12 -1 -17 -10 -14 -7 3 -15 13 -16
22 -3 12 1 17 10 14 7 -3 15 -13 16 -22z m-2700 2 c6 -6 12 -30 12 -54 0 -37
-3 -44 -20 -44 -17 0 -20 7 -20 41 0 33 -3 40 -17 37 -13 -2 -19 -14 -21 -41
-5 -56 -26 -41 -30 21 l-3 51 43 -1 c24 0 49 -5 56 -10z m2479 -10 c-3 -8 -6
-5 -6 6 -1 11 2 17 5 13 3 -3 4 -12 1 -19z m327 13 c9 -14 -4 -41 -20 -41 -8
0 -14 8 -14 18 0 29 22 43 34 23z m-5239 -11 c4 -6 10 -8 15 -5 5 3 18 -5 30
-17 16 -17 19 -18 15 -5 -6 13 -2 17 14 17 24 0 27 -10 9 -28 -16 -16 -48 -15
-48 1 0 7 -3 8 -8 2 -20 -28 -71 -2 -58 30 6 17 22 20 31 5z m1490 1 c3 -5 1
-13 -5 -16 -15 -9 -43 3 -35 15 8 13 32 13 40 1z m-1232 -33 c6 -40 4 -42 -22
-33 -13 4 -21 15 -21 28 0 16 -3 18 -9 9 -10 -16 -43 -13 -48 5 -4 10 13 15
78 21 12 2 18 -8 22 -30z m2277 22 c0 -5 -12 -10 -26 -10 -14 0 -23 4 -19 10
3 6 15 10 26 10 10 0 19 -4 19 -10z m-2122 -25 c4 -20 4 -20 -12 0 -15 20 -15
19 -16 -7 0 -17 6 -28 18 -31 10 -3 5 -5 -12 -6 -22 -1 -27 3 -22 15 3 9 6 25
6 36 0 26 33 20 38 -7z m-103 -4 c-3 -11 0 -21 9 -24 10 -4 16 2 18 21 4 23 6
24 12 9 12 -26 -11 -49 -35 -36 -20 10 -27 49 -8 49 6 0 8 -8 4 -19z m197 -6
c-2 -14 -8 -25 -13 -25 -5 0 -9 11 -9 25 0 14 6 25 14 25 9 0 12 -8 8 -25z
m157 -22 c0 -28 -2 -33 -8 -19 -7 19 -8 19 -14 1 -4 -10 -10 -15 -13 -12 -5 5
26 67 33 67 2 0 3 -17 2 -37z m-49 -8 c-1 -28 -2 -29 -14 -12 -11 14 -15 15
-19 5 -4 -8 -6 -7 -6 5 -1 9 -5 17 -10 17 -5 0 -12 -8 -14 -17 -3 -12 -5 -10
-6 7 -1 22 3 25 34 25 32 0 35 -2 35 -30z m2697 19 c8 -21 -13 -42 -28 -27
-13 13 -5 43 11 43 6 0 13 -7 17 -16z m-2620 -31 c-3 -10 -5 -4 -5 12 0 17 2
24 5 18 2 -7 2 -21 0 -30z m67 -15 c7 -5 5 -8 -6 -8 -14 0 -18 8 -17 33 2 27
2 28 6 7 3 -14 10 -28 17 -32z m2886 -9 c-12 -22 -23 -24 -51 -8 -16 8 -18 13
-8 25 6 8 17 14 24 14 7 0 16 8 20 18 6 15 8 14 16 -6 6 -15 5 -31 -1 -43z
m-2845 41 c-3 -6 4 -10 17 -10 19 0 20 2 8 11 -13 9 -13 10 0 6 8 -2 16 -16
18 -32 3 -25 1 -27 -20 -22 -13 4 -26 7 -30 7 -12 0 -9 50 3 50 5 0 7 -4 4
-10z m165 -15 c-10 -12 -9 -16 4 -21 9 -3 16 -11 16 -16 0 -6 -6 -5 -15 2 -11
9 -15 9 -15 1 0 -7 -4 -9 -10 -6 -14 9 -12 42 3 48 23 10 29 7 17 -8z m2573
-10 c-5 -13 -23 -22 -23 -11 0 15 14 35 21 31 4 -3 6 -12 2 -20z m-2487 0 c10
-24 1 -33 -25 -24 -19 8 -21 12 -11 24 16 19 29 19 36 0z m1467 0 c-4 -15 -36
-12 -41 3 -3 9 3 13 19 10 13 -1 23 -7 22 -13z m1297 -5 c12 -7 12 -12 3 -21
-10 -10 -18 -10 -40 0 -26 13 -27 14 -8 22 26 10 28 10 45 -1z m106 -11 c10
-17 -17 -29 -40 -17 -20 11 -20 11 -1 19 28 11 33 10 41 -2z m274 0 c83 2 99
-20 56 -72 -27 -34 -59 -33 -64 1 -2 15 -11 22 -28 23 -13 1 -37 3 -54 5 -16
2 -43 6 -60 8 -16 2 -42 4 -56 5 -16 1 -24 6 -22 14 5 14 105 27 158 20 19 -2
51 -4 70 -4z m254 2 c8 -12 -3 -41 -15 -41 -5 0 -9 11 -9 25 0 25 14 34 24 16z
m-4945 -37 c-14 -18 -24 -11 -15 11 3 9 11 13 16 10 8 -5 7 -11 -1 -21z m51 5
c0 -11 -4 -17 -10 -14 -5 3 -10 13 -10 21 0 8 5 14 10 14 6 0 10 -9 10 -21z
m165 0 c9 15 45 14 45 -1 0 -10 2 -10 8 -1 4 7 21 10 37 8 17 -2 33 -4 36 -4
4 -1 7 -12 7 -25 0 -21 -4 -23 -27 -19 -14 3 -30 6 -36 7 -5 1 -16 6 -24 10
-9 6 -12 5 -7 -2 4 -7 -7 -10 -35 -9 -29 1 -44 7 -51 20 -13 26 11 44 29 21 7
-10 13 -11 18 -5z m185 -7 c0 -4 -5 -13 -12 -20 -9 -9 -8 -12 5 -12 10 0 17 8
17 20 0 20 14 27 24 11 3 -4 17 -6 31 -3 22 4 25 1 24 -24 l-1 -29 -8 25 c-7
21 -8 22 -9 5 -1 -18 -7 -21 -53 -20 -50 1 -53 2 -56 28 -3 22 1 27 17 27 12
0 21 -4 21 -8z m4802 -43 c-21 -8 -52 7 -52 26 0 23 43 23 57 0 9 -16 9 -21
-5 -26z m111 29 c10 -31 -13 -47 -42 -29 -12 8 -12 12 -2 25 16 19 38 21 44 4z
m-4722 -5 c0 -5 2 -16 4 -25 2 -13 -3 -18 -19 -18 -29 0 -35 7 -29 31 5 18 42
28 44 12z m55 -9 c-9 -23 3 -36 18 -21 10 9 11 14 2 19 -6 5 -2 8 12 8 17 0
22 -6 22 -25 0 -21 -5 -25 -29 -25 -17 0 -33 5 -36 10 -4 6 -11 8 -16 5 -5 -4
-9 5 -9 19 0 20 5 26 21 26 15 0 19 -4 15 -16z m4427 10 c11 -11 -3 -24 -18
-18 -8 4 -12 10 -9 15 6 11 18 12 27 3z m-5143 -13 c0 -5 -7 -14 -15 -21 -13
-10 -15 -9 -15 9 0 12 6 21 15 21 8 0 15 -4 15 -9z m597 3 c-3 -3 -12 -4 -19
-1 -8 3 -5 6 6 6 11 1 17 -2 13 -5z m230 -6 c12 -20 14 -48 3 -48 -9 0 -14 14
-11 33 0 4 -3 7 -9 7 -5 0 -10 -7 -10 -15 0 -8 -4 -15 -9 -15 -5 0 -8 11 -8
25 0 27 29 36 44 13z m68 -23 c0 -11 -8 -21 -17 -23 -14 -3 -18 3 -18 23 0 20
4 26 18 23 9 -2 17 -12 17 -23z m4592 10 c8 -23 -1 -27 -33 -15 -23 9 -25 13
-14 20 22 14 40 12 47 -5z m155 -3 c4 -4 2 -17 -6 -27 -14 -19 -14 -19 -50 0
-37 20 -41 26 -28 39 8 9 72 0 84 -12z m-4682 2 c0 -3 -7 -12 -15 -20 -13 -14
-15 -13 -15 5 0 12 6 21 15 21 8 0 15 -3 15 -6z m100 -24 c0 -11 3 -20 8 -21
18 -2 44 -8 47 -11 1 -2 -1 -37 -5 -78 -8 -86 -12 -83 -10 8 1 55 -1 62 -18
62 -16 0 -20 -10 -25 -58 -9 -80 -15 -92 -46 -92 -41 1 -73 31 -75 71 0 19 4
34 9 34 6 0 9 -3 7 -8 -1 -4 4 -23 12 -42 11 -26 21 -35 38 -34 13 0 17 3 11
6 -20 7 -15 20 8 26 18 5 21 12 19 59 -3 77 -1 98 10 98 6 0 10 -9 10 -20z
m110 -51 c0 -52 2 -60 17 -57 25 5 29 39 7 55 -22 16 -13 27 15 18 23 -7 26
-29 11 -70 -8 -21 -16 -26 -38 -23 -26 3 -27 5 -30 71 -2 42 1 67 8 67 6 0 10
-25 10 -61z m250 51 c0 -12 -17 -12 -45 0 -17 7 -15 9 13 9 17 1 32 -3 32 -9z
m-94 -85 c0 -47 -1 -50 -25 -52 -49 -3 -75 42 -50 88 8 15 19 19 42 17 31 -3
32 -4 33 -53z m125 -26 l-9 -34 -1 35 c0 19 3 46 7 60 l7 25 3 -26 c2 -15 -1
-42 -7 -60z m77 51 c0 -17 -3 -28 -8 -25 -4 3 -7 13 -5 23 2 9 4 20 4 25 2 19
8 4 9 -23z m56 -16 c-4 -64 -14 -68 -14 -6 0 29 4 52 9 52 5 0 7 -21 5 -46z
m62 31 c-3 -21 -16 -31 -16 -12 0 8 -6 18 -12 20 -7 3 -3 6 9 6 13 1 20 -4 19
-14z m-1501 -40 c0 -25 -4 -30 -25 -30 -16 0 -26 6 -28 18 -6 30 6 49 30 45
18 -2 23 -9 23 -33z m169 2 c-1 -12 -3 -25 -3 -28 -1 -6 -92 0 -99 7 -2 1 -1
11 2 22 5 15 16 20 55 20 44 1 47 0 45 -21z m84 13 c20 0 32 -4 26 -8 -6 -4
-10 -17 -9 -29 1 -14 -4 -23 -13 -23 -10 0 -13 8 -10 25 4 17 1 25 -9 25 -10
0 -12 -6 -8 -19 7 -22 -6 -34 -29 -25 -10 4 -16 18 -16 36 0 23 4 29 16 24 9
-3 32 -6 52 -6z m-444 -16 c19 -19 20 -35 3 -58 -19 -25 -50 -16 -62 18 -8 23
-6 30 10 42 24 18 30 18 49 -2z m512 -6 l8 -23 7 25 c6 21 7 19 8 -14 1 -38 1
-39 -19 -21 -11 10 -20 13 -20 7 0 -7 -4 -12 -8 -12 -5 0 -7 14 -4 30 5 36 18
39 28 8z m901 -15 c-3 -10 -5 -4 -5 12 0 17 2 24 5 18 2 -7 2 -21 0 -30z
m3238 7 c-5 -8 -11 -8 -17 -2 -6 6 -7 16 -3 22 5 8 11 8 17 2 6 -6 7 -16 3
-22z m-3935 -22 c0 -9 6 -19 13 -21 10 -4 -25 -3 -55 2 -5 0 -8 14 -8 30 0 27
1 28 25 18 14 -7 25 -19 25 -29z m4098 19 c2 -10 -3 -17 -11 -17 -16 0 -30 24
-19 34 10 10 27 1 30 -17z m-4237 -21 c5 3 7 9 4 14 -3 4 2 10 10 14 11 4 15
-2 15 -19 0 -20 -5 -25 -25 -25 -21 0 -25 4 -24 28 2 23 2 24 6 4 2 -12 9 -20
14 -16z m79 9 c0 -33 -15 -33 -16 0 -1 14 2 25 7 25 5 0 9 -11 9 -25z m4250 5
c0 -4 -7 -10 -15 -14 -10 -4 -15 1 -15 14 0 13 5 18 15 14 8 -4 15 -10 15 -14z
m-4106 1 c3 -4 18 -6 33 -4 22 4 25 2 13 -6 -10 -7 -11 -11 -2 -11 15 0 16
-26 1 -36 -6 -3 -15 -2 -21 4 -6 6 -17 8 -24 5 -10 -4 -14 3 -14 21 0 14 -4
26 -10 26 -5 0 -10 -11 -10 -25 0 -14 -4 -25 -10 -25 -5 0 -10 14 -10 30 0 25
4 30 24 30 14 0 27 -4 30 -9z m4336 -6 c9 -11 17 -12 30 -5 11 6 28 6 42 1 35
-14 3 -23 -68 -19 -47 2 -59 7 -62 21 -4 22 40 24 58 2z m166 -6 c4 -7 22 -9
50 -4 29 4 44 2 44 -4 0 -6 19 -11 42 -11 23 0 38 -3 34 -7 -7 -7 -65 -15 -96
-13 -8 0 -33 0 -55 1 -47 0 -71 15 -54 35 14 17 25 18 35 3z m-3846 -9 c0 -5
-2 -10 -4 -10 -3 0 -8 5 -11 10 -3 6 -1 10 4 10 6 0 11 -4 11 -10z m230 -20
c0 -5 -14 -10 -31 -10 -17 0 -28 4 -24 10 3 6 17 10 31 10 13 0 24 -4 24 -10z
m3930 -19 c0 -25 -37 -33 -66 -14 -32 20 -22 33 27 33 32 0 39 -4 39 -19z m83
-6 c-7 -19 -19 -19 -26 -1 -3 8 -1 17 6 19 18 6 27 -2 20 -18z m-3896 -62 c-2
-16 -4 -3 -4 27 0 30 2 43 4 28 2 -16 2 -40 0 -55z m-1697 42 c8 -10 31 -15
69 -15 31 0 72 -5 91 -11 19 -6 61 -12 93 -14 31 -1 60 -5 63 -8 4 -3 4 -18 0
-32 -5 -21 -10 -24 -26 -15 -10 5 -26 7 -34 4 -9 -3 -24 -3 -33 1 -30 13 -155
5 -170 -11 -15 -15 -53 -19 -53 -6 0 4 -48 7 -105 8 -85 0 -109 4 -123 17 -29
29 1 46 92 49 69 3 81 6 94 26 17 26 25 27 42 7z m1810 -5 c12 -8 11 -10 -7
-10 -16 0 -22 -7 -25 -27 -2 -21 -9 -28 -26 -29 -18 -1 -19 -1 -2 3 25 6 27
48 3 62 -15 9 -13 10 12 11 17 0 37 -5 45 -10z m58 -7 c-32 -5 -38 -23 -9 -23
11 0 22 -4 25 -9 3 -4 -6 -6 -19 -3 -31 5 -35 -24 -5 -31 17 -4 16 -4 -2 -3
-16 1 -24 8 -26 24 -6 37 5 52 35 51 l28 -2 -27 -4z m2152 -12 c0 -11 -4 -23
-10 -26 -5 -3 -10 -2 -10 4 0 5 -3 16 -6 25 -4 11 -1 16 10 16 9 0 16 -8 16
-19z m-4400 -21 c16 -11 35 -17 44 -14 8 3 29 -2 45 -12 24 -14 30 -23 25 -39
-11 -35 -22 -40 -58 -27 -20 7 -51 10 -74 6 -42 -7 -46 -4 -55 37 -5 18 -1 32
14 47 24 27 24 27 59 2z m770 -7 c24 6 24 8 4 -31 -18 -37 -29 -42 -20 -9 4
16 -1 26 -14 35 -11 7 -20 18 -20 25 0 7 7 4 15 -7 9 -12 22 -17 35 -13z
m1650 0 c0 -13 -3 -13 -15 -3 -8 7 -12 16 -9 21 8 13 24 1 24 -18z m2106 18
c5 -5 22 -11 37 -13 36 -4 31 -24 -5 -20 -16 1 -28 -2 -28 -7 0 -12 -88 -7
-102 7 -9 9 -7 13 8 17 10 4 26 10 34 15 20 12 44 12 56 1z m-3557 -28 c14
-26 -5 -59 -25 -42 -22 18 -17 59 7 59 4 0 12 -8 18 -17z m1313 -15 c-8 -8 -9
-4 -5 13 4 13 8 18 11 10 2 -7 -1 -18 -6 -23z m2718 -2 c0 -32 -18 -43 -38
-23 -13 13 -13 19 -2 31 19 24 40 19 40 -8z m-84 3 c10 -17 -12 -32 -36 -24
-17 5 -19 10 -9 21 14 17 35 18 45 3z m-3836 -8 c0 -5 -11 -32 -23 -61 -20
-45 -25 -50 -29 -32 -4 13 3 38 15 62 21 37 37 51 37 31z m1331 -24 c-16 -16
-25 -1 -10 16 8 8 16 11 18 5 2 -5 -2 -15 -8 -21z m-1237 4 c3 -5 -3 -30 -15
-55 -14 -33 -18 -56 -13 -81 7 -41 -4 -45 -29 -9 -18 24 -18 26 2 68 12 23 21
52 21 64 0 22 23 31 34 13z m4093 -7 c3 -9 -3 -25 -16 -37 -19 -20 -22 -20
-37 -5 -23 23 -10 58 22 58 14 0 27 -7 31 -16z m103 -4 c0 -5 -7 -10 -15 -10
-8 0 -15 5 -15 10 0 6 7 10 15 10 8 0 15 -4 15 -10z m110 -10 c0 -5 -13 -10
-30 -10 -16 0 -30 5 -30 10 0 6 14 10 30 10 17 0 30 -4 30 -10z m-4210 -36 c0
-8 -4 -14 -10 -14 -5 0 -10 4 -10 9 0 5 -3 18 -7 28 -6 16 -5 16 10 4 9 -7 17
-20 17 -27z m4300 26 c0 -5 -13 -10 -30 -10 -16 0 -30 5 -30 10 0 6 14 10 30
10 17 0 30 -4 30 -10z m127 -6 c5 -14 -35 -26 -43 -13 -8 14 6 30 24 27 8 -2
17 -8 19 -14z m-4475 -24 c-2 -16 -8 -30 -13 -30 -10 0 -12 21 -3 44 10 27 21
18 16 -14z m128 10 c0 -4 -12 -5 -26 -2 -17 3 -22 7 -13 12 13 9 39 2 39 -10z
m255 10 c-3 -5 -10 -10 -16 -10 -5 0 -9 5 -9 10 0 6 7 10 16 10 8 0 12 -4 9
-10z m-1055 -19 c13 -26 -4 -73 -24 -65 -20 8 -27 31 -20 60 7 29 29 31 44 5z
m894 -1 c4 -5 5 -14 1 -21 -6 -9 -11 -8 -21 6 -7 10 -20 15 -29 12 -15 -6 -21
4 -8 16 7 8 43 -1 57 -13z m4344 3 c2 -8 -5 -13 -17 -13 -21 0 -35 13 -24 24
10 10 36 3 41 -11z m249 -30 c-3 -10 -5 -4 -5 12 0 17 2 24 5 18 2 -7 2 -21 0
-30z m-4554 12 c-3 -9 -8 -14 -10 -11 -3 3 -2 9 2 15 9 16 15 13 8 -4z m55 3
c-3 -7 -13 -14 -24 -15 -10 -2 -13 0 -6 3 6 3 10 10 6 15 -3 5 2 9 11 9 9 0
15 -6 13 -12z m522 -20 c11 -18 20 -43 20 -56 0 -33 -28 -82 -47 -82 -14 0
-14 2 1 19 14 15 17 32 14 68 -3 26 -8 56 -12 66 -14 29 3 19 24 -15z m-7440
12 c0 -5 -2 -10 -4 -10 -3 0 -8 5 -11 10 -3 6 -1 10 4 10 6 0 11 -4 11 -10z
m5278 -2 c17 -17 15 -25 -8 -31 -23 -6 -56 16 -46 31 9 15 39 15 54 0z m1437
5 c-11 -3 -23 -10 -27 -16 -4 -6 -10 -8 -15 -4 -10 11 17 27 42 26 l20 -1 -20
-5z m277 -5 c-7 -7 -12 -21 -12 -32 0 -10 -3 -17 -6 -13 -10 10 5 57 18 57 9
0 9 -3 0 -12z m48 -38 l-8 -35 -1 31 c-1 17 2 34 6 37 11 12 12 3 3 -33z m50
30 c0 -5 -2 -10 -4 -10 -3 0 -8 5 -11 10 -3 6 -1 10 4 10 6 0 11 -4 11 -10z
m-860 -20 c0 -13 -7 -20 -20 -20 -13 0 -20 7 -20 20 0 13 7 20 20 20 13 0 20
-7 20 -20z m497 -2 c-3 -8 -6 -5 -6 6 -1 11 2 17 5 13 3 -3 4 -12 1 -19z m443
18 c0 -2 -9 -6 -20 -9 -11 -3 -20 -1 -20 4 0 5 9 9 20 9 11 0 20 -2 20 -4z
m30 -6 c0 -5 -2 -10 -4 -10 -3 0 -8 5 -11 10 -3 6 -1 10 4 10 6 0 11 -4 11
-10z m2500 -10 c0 -18 -3 -19 -20 -10 -11 6 -20 15 -20 20 0 6 9 10 20 10 13
0 20 -7 20 -20z m-3992 1 c9 -5 2 -8 -20 -9 -23 -1 -28 2 -18 8 18 12 22 12
38 1z m78 -2 c3 -6 1 -16 -6 -22 -10 -9 -12 -8 -7 5 4 11 0 18 -11 21 -16 4
-16 5 0 6 9 0 20 -4 24 -10z m1507 -8 c3 -14 1 -18 -10 -14 -11 4 -14 0 -11
-18 2 -20 9 -24 36 -24 36 0 42 -10 12 -20 -47 -15 -91 50 -58 83 17 17 25 15
31 -7z m41 13 c22 -8 20 -24 -2 -24 -10 0 -19 7 -19 15 0 17 0 17 21 9z m2516
2 c0 -3 -4 -8 -10 -11 -5 -3 -10 -1 -10 4 0 6 5 11 10 11 6 0 10 -2 10 -4z
m-3540 -31 c0 -16 -27 -28 -36 -14 -7 12 15 41 27 33 5 -3 9 -11 9 -19z m470
15 c0 -5 -2 -10 -4 -10 -3 0 -8 5 -11 10 -3 6 -1 10 4 10 6 0 11 -4 11 -10z
m3018 4 c12 -4 22 -11 22 -16 0 -14 -63 -5 -68 10 -4 13 10 15 46 6z m-4010
-29 c21 5 23 4 14 -7 -7 -9 -8 -19 -2 -28 13 -20 12 -30 0 -30 -5 0 -10 7 -10
15 0 21 -28 19 -33 -2 -3 -10 -5 5 -5 32 0 28 2 42 5 32 4 -15 11 -17 31 -12z
m1312 11 c0 -2 -8 -10 -17 -17 -16 -13 -17 -12 -4 4 13 16 21 21 21 13z m3069
-7 c36 -13 40 -24 9 -27 -13 -1 -32 -3 -43 -5 -14 -1 -21 5 -23 21 -4 25 9 28
57 11z m-4439 -11 c0 -7 3 -23 6 -35 4 -14 2 -23 -5 -23 -6 0 -11 14 -11 32 0
34 -15 29 -22 -7 -2 -15 -11 -20 -33 -20 -27 0 -30 3 -32 33 -1 32 -1 32 48
32 32 0 49 -4 49 -12z m410 -12 c0 -13 3 -31 6 -40 4 -12 0 -16 -16 -16 -18 0
-21 4 -16 23 3 12 6 30 6 40 0 9 5 17 10 17 6 0 10 -11 10 -24z m1080 -8 c0
-4 -6 -8 -14 -8 -8 0 -17 4 -20 8 -2 4 4 8 15 8 10 0 19 -4 19 -8z m3180 8 c0
-2 -7 -9 -15 -16 -12 -10 -15 -10 -15 4 0 9 7 16 15 16 8 0 15 -2 15 -4z
m-5390 -15 c0 -5 28 -12 63 -14 34 -3 90 -10 124 -16 57 -10 66 -9 117 15 63
29 102 25 119 -13 15 -34 -1 -56 -42 -59 -18 -1 -35 -5 -39 -8 -3 -3 -10 -2
-16 3 -24 20 -119 17 -140 -5 -20 -19 -21 -38 -2 -31 7 3 30 -8 50 -25 27 -22
43 -28 61 -24 15 4 25 2 25 -4 0 -7 6 -8 18 -2 17 9 23 9 92 -2 19 -3 40 0 47
5 6 6 17 8 23 4 5 -3 10 -1 10 4 0 6 -10 11 -22 11 -17 0 -19 3 -10 12 10 10
20 4 47 -27 39 -43 43 -65 18 -90 -16 -16 -18 -16 -34 4 -14 17 -18 18 -23 6
-9 -25 -26 -17 -27 13 0 27 -1 27 -11 5 -16 -33 -28 -28 -28 10 0 23 -5 34
-15 34 -11 0 -12 -4 -4 -14 9 -10 5 -16 -19 -26 -24 -10 -48 -10 -103 -3 -48
7 -74 7 -76 0 -4 -11 -78 -10 -106 1 -9 4 -32 4 -51 1 -28 -5 -36 -3 -49 18
-20 30 -12 38 56 56 27 7 51 20 55 28 10 26 -35 52 -92 52 -36 0 -58 6 -76 20
l-25 20 28 25 c28 25 57 33 57 16z m5523 -5 c7 -17 -1 -26 -24 -26 -21 0 -33
15 -24 30 9 15 42 12 48 -4z m98 4 c27 -15 24 -40 -5 -40 -28 0 -40 14 -32 35
6 18 11 18 37 5z m109 -25 c0 -8 -7 -15 -15 -15 -13 0 -14 3 -3 15 16 18 18
18 18 0z m226 -9 c21 -22 17 -36 -11 -36 -26 0 -29 7 -19 34 8 20 12 20 30 2z
m-5053 -16 c3 -11 1 -20 -4 -20 -5 0 -10 6 -10 13 -1 6 -7 -10 -14 -38 -7 -27
-13 -41 -14 -30 -1 29 18 95 28 95 5 0 11 -9 14 -20z m4897 10 c0 -5 -4 -10
-10 -10 -5 0 -10 5 -10 10 0 6 5 10 10 10 6 0 10 -4 10 -10z m276 -10 c8 0 14
-4 14 -9 0 -12 -46 -20 -61 -11 -16 10 -1 33 18 26 8 -3 21 -6 29 -6z m-9546
-8 c0 -11 -194 -32 -270 -31 -37 1 -12 6 75 15 72 7 139 15 150 17 36 7 45 7
45 -1z m7810 -8 c0 -8 -5 -12 -10 -9 -6 4 -8 11 -5 16 9 14 15 11 15 -7z
m1860 10 c0 -3 -5 -14 -11 -25 -8 -16 -13 -18 -25 -8 -11 9 -12 15 -3 25 11
14 39 19 39 8z m120 -24 c0 -16 -4 -30 -8 -30 -5 0 -7 14 -4 30 2 17 6 30 8
30 2 0 4 -13 4 -30z m-10650 10 c0 -5 -20 -10 -44 -10 -25 0 -48 5 -51 10 -4
6 13 10 44 10 28 0 51 -4 51 -10z m8750 -15 c0 -8 -4 -15 -9 -15 -13 0 -22 16
-14 24 11 11 23 6 23 -9z m342 -20 c-4 -34 -18 -46 -47 -43 -29 4 -31 38 -4
60 34 26 55 19 51 -17z m1624 -2 c-11 -11 -19 6 -11 24 8 17 8 17 12 0 3 -10
2 -21 -1 -24z m-5479 -5 c-3 -7 -5 -2 -5 12 0 14 2 19 5 13 2 -7 2 -19 0 -25z
m3925 15 c21 -19 24 -35 4 -27 -7 3 -16 -2 -20 -11 -9 -24 -26 -8 -26 26 0 33
15 37 42 12z m-8942 -5 c19 -1 1 -4 -40 -7 -87 -7 -137 0 -75 10 22 4 49 5 60
3 11 -2 36 -5 55 -6z m299 8 c-11 -9 -220 -15 -214 -6 3 6 53 10 112 10 59 0
104 -2 102 -4z m3399 -15 c15 -10 36 -20 47 -22 30 -6 48 -49 31 -74 -20 -30
-116 -33 -156 -5 -43 31 -47 56 -14 91 32 34 56 36 92 10z m1710 -41 c0 -22
-3 -40 -8 -40 -22 0 -41 76 -23 93 13 14 31 -15 31 -53z m-5888 41 c0 -5 9
-11 20 -14 11 -3 20 -11 20 -17 0 -10 -3 -10 -15 0 -8 7 -22 10 -30 6 -16 -6
-21 -41 -6 -51 16 -9 24 15 11 30 -20 24 -1 17 46 -17 52 -37 56 -45 13 -22
-29 15 -33 15 -48 -2 -9 -9 -10 -14 -3 -10 6 4 12 2 12 -3 0 -6 7 -11 15 -11
8 0 15 -4 15 -10 0 -5 6 -10 14 -10 8 0 18 -5 22 -12 5 -8 2 -9 -12 -4 -10 4
-23 9 -29 10 -5 1 -16 6 -24 10 -11 7 -13 5 -8 -7 4 -11 1 -17 -9 -17 -8 0
-12 -5 -9 -10 4 -7 11 -8 18 -1 8 6 20 2 37 -12 18 -15 20 -18 6 -13 -13 4
-23 0 -32 -12 -18 -26 -64 -18 -59 9 4 22 -14 37 -24 20 -5 -8 -13 -7 -27 4
-17 13 -17 14 -1 15 23 0 22 7 -8 42 -19 23 -23 33 -15 43 8 10 8 19 0 34 -8
15 -8 21 0 21 6 0 8 5 5 10 -4 6 15 10 49 10 31 0 56 -4 56 -9z m213 2 c-7 -2
-21 -2 -30 0 -10 3 -4 5 12 5 17 0 24 -2 18 -5z m5035 -5 c9 -9 12 -9 12 0 0
10 3 10 14 0 8 -7 12 -16 10 -19 -2 -4 3 -12 11 -19 17 -14 19 -7 5 20 -7 13
-7 21 0 25 15 9 42 -15 36 -32 -3 -7 1 -13 9 -13 18 0 20 21 3 38 -9 9 -7 12
10 12 23 0 26 -13 13 -60 -4 -15 -10 -20 -14 -13 -4 6 -16 9 -27 6 -11 -3 -28
-2 -37 2 -31 14 -41 13 -47 -1 -10 -27 -44 -16 -51 16 -4 16 -4 34 0 40 8 14
38 13 53 -2z m-8126 -27 c83 -28 195 -87 258 -134 83 -62 329 -311 393 -399
63 -85 72 -114 42 -132 -11 -6 -22 -12 -24 -13 -2 -2 28 -32 67 -69 133 -122
298 -358 457 -649 62 -114 126 -216 173 -275 62 -77 468 -505 502 -530 36 -26
74 -86 66 -105 -24 -65 -241 76 -500 325 -115 111 -211 231 -281 353 -195 339
-245 412 -365 523 -127 119 -219 177 -356 226 -79 27 -105 31 -229 36 -107 3
-160 0 -220 -12 -79 -16 -80 -16 -96 5 -16 21 -15 54 2 64 4 3 -4 17 -18 31
-21 21 -25 32 -20 65 4 31 1 42 -14 52 -25 18 -61 101 -53 124 4 10 22 34 41
54 31 33 33 38 18 47 -10 5 -26 7 -36 5 -56 -15 -102 34 -133 142 -10 33 -26
76 -37 97 -34 67 -22 109 45 152 74 47 209 54 318 17z m12485 14 c155 -8 195
-14 209 -32 8 -11 13 -13 14 -5 0 17 47 15 53 -2 6 -14 -10 -36 -26 -36 -5 0
-15 7 -23 15 -10 10 -22 12 -37 6 -31 -11 -147 2 -156 18 -6 8 -17 11 -31 6
-14 -5 -25 -2 -30 6 -7 10 -11 10 -24 0 -9 -8 -20 -9 -28 -4 -7 4 -22 8 -33 8
-11 0 -21 8 -23 18 -3 16 1 18 26 12 17 -3 66 -8 109 -10z m-9457 -15 c0 -5
-2 -10 -4 -10 -3 0 -8 5 -11 10 -3 6 -1 10 4 10 6 0 11 -4 11 -10z m110 0 c0
-5 -2 -10 -4 -10 -3 0 -8 5 -11 10 -3 6 -1 10 4 10 6 0 11 -4 11 -10z m4695
-10 c3 -5 -1 -10 -9 -10 -9 0 -16 5 -16 10 0 6 4 10 9 10 6 0 13 -4 16 -10z
m660 -20 c0 -18 -33 -26 -47 -12 -6 6 -7 15 -3 22 10 16 50 8 50 -10z m390 10
c3 -5 15 -10 26 -10 10 0 19 -6 19 -12 0 -7 7 -3 15 9 15 22 45 22 45 0 0 -16
-81 -117 -90 -112 -5 3 -6 22 -3 42 l6 37 -28 -22 c-51 -40 -87 -24 -64 30 15
37 60 60 74 38z m-5865 -4 c0 -3 -4 -8 -10 -11 -5 -3 -10 -1 -10 4 0 6 5 11
10 11 6 0 10 -2 10 -4z m80 -6 c8 -5 11 -10 5 -10 -5 0 -17 5 -25 10 -8 5 -10
10 -5 10 6 0 17 -5 25 -10z m70 6 c0 -2 -7 -7 -16 -10 -8 -3 -12 -2 -9 4 6 10
25 14 25 6z m5500 -15 c0 -22 -21 -33 -40 -21 -18 11 -4 40 20 40 13 0 20 -7
20 -19z m530 -2 c0 -12 -5 -39 -12 -60 -10 -35 -15 -39 -44 -39 -36 0 -43 11
-37 58 6 37 29 43 43 10 5 -13 9 -18 9 -11 2 23 21 63 31 63 5 0 10 -10 10
-21z m382 -1 c11 -69 -16 -111 -60 -92 -14 6 -13 8 8 13 19 6 25 14 26 37 2
55 4 64 13 64 5 0 10 -10 13 -22z m-494 -42 c3 -47 2 -48 -21 -42 -19 4 -29 0
-41 -19 -9 -14 -21 -23 -26 -20 -19 12 -10 51 21 94 42 56 63 52 67 -13z
m-5873 24 c3 -5 2 -10 -4 -10 -5 0 -13 5 -16 10 -3 6 -2 10 4 10 5 0 13 -4 16
-10z m6260 0 c3 -5 1 -10 -4 -10 -6 0 -11 5 -11 10 0 6 2 10 4 10 3 0 8 -4 11
-10z m166 -34 c1 -28 2 -29 8 -7 10 36 46 45 71 19 11 -12 20 -16 20 -10 0 7
7 12 15 12 19 0 19 -8 0 -54 -19 -44 -33 -46 -48 -6 -12 31 -27 40 -27 16 0
-25 -28 -40 -54 -28 -40 18 -40 110 0 95 8 -3 14 -19 15 -37z m3376 28 c7 -18
-14 -35 -34 -27 -7 3 -13 14 -13 24 0 24 38 26 47 3z m93 6 c0 -5 -8 -10 -17
-10 -15 0 -16 2 -3 10 19 12 20 12 20 0z m-4368 -52 c-15 -15 -27 14 -17 40 6
15 8 15 18 -6 7 -16 7 -26 -1 -34z m549 42 c26 -14 25 -56 -2 -70 -37 -20 -73
35 -42 65 17 18 19 18 44 5z m117 2 c17 -12 -19 -96 -47 -112 -22 -11 -23 -11
-27 35 -1 17 -4 39 -6 50 -3 18 3 21 62 34 3 0 11 -3 18 -7z m782 -1 c0 -6 -4
-13 -10 -16 -5 -3 -10 1 -10 9 0 9 5 16 10 16 6 0 10 -4 10 -9z m3060 -7 c0
-8 -5 -12 -10 -9 -6 4 -8 11 -5 16 9 14 15 11 15 -7z m120 -8 c0 -20 -16 -29
-40 -21 -32 10 -25 35 10 35 19 0 30 -5 30 -14z m-10192 -28 c7 -10 20 -18 28
-18 8 0 14 -4 14 -10 0 -16 -18 -12 -39 9 -17 17 -21 18 -32 5 -16 -20 17 -46
51 -40 15 3 35 -3 50 -14 l25 -20 -23 0 c-13 0 -20 4 -17 10 4 6 -6 10 -22 10
l-28 0 25 -20 c14 -11 30 -20 36 -20 6 0 17 -7 24 -15 10 -12 7 -15 -14 -21
-28 -7 -36 -24 -12 -24 8 0 17 -4 20 -9 10 -16 -38 2 -70 26 -25 19 -33 21
-37 9 -7 -17 1 -26 24 -26 9 0 19 -9 22 -19 3 -14 11 -19 28 -15 13 2 9 -1 -9
-8 -37 -12 -37 -27 -1 -45 17 -9 19 -13 7 -13 -9 0 -20 5 -23 10 -8 12 -42 13
-49 1 -3 -5 9 -16 27 -25 17 -8 28 -16 24 -16 -14 0 15 -24 55 -45 26 -13 34
-23 27 -30 -6 -6 -12 -6 -17 0 -4 6 -25 23 -47 40 -22 16 -42 32 -45 36 -3 4
-19 11 -35 15 -27 7 -29 6 -16 -9 7 -10 17 -17 22 -17 13 0 48 -37 42 -44 -4
-3 1 -6 9 -6 9 0 18 -7 22 -15 3 -8 1 -15 -4 -15 -6 0 -10 5 -10 10 0 6 -6 10
-13 10 -8 0 -24 9 -37 20 -25 21 -33 24 -43 13 -10 -9 65 -73 77 -66 6 3 5 0
-2 -8 -11 -12 -15 -12 -25 2 -21 28 -77 52 -92 39 -10 -8 -19 -8 -34 2 -24 15
-26 24 -9 34 6 4 14 2 16 -4 4 -12 32 -17 32 -6 0 12 -34 33 -52 34 -10 0 -18
4 -18 9 0 10 32 8 68 -3 17 -6 22 -13 17 -24 -5 -14 -4 -14 6 -5 10 10 9 17
-5 32 -24 26 -89 48 -94 32 -5 -16 -29 -14 -35 3 -4 9 0 12 13 9 34 -9 29 14
-10 46 -33 27 -38 35 -30 51 14 27 12 33 -7 26 -10 -4 -14 -4 -10 0 10 11 -12
34 -28 28 -7 -3 -16 0 -21 7 -4 7 -3 10 3 6 6 -4 16 0 23 9 7 8 19 13 27 10 7
-3 13 -1 13 5 0 6 20 -4 44 -21 24 -18 49 -29 55 -25 15 9 2 28 -15 21 -8 -3
-13 -1 -11 4 1 5 -14 23 -33 40 -32 29 -33 30 -5 13 55 -34 83 -45 95 -38 8 5
3 17 -17 38 -15 18 -18 23 -6 13 15 -12 29 -16 45 -10 20 6 21 5 10 -8 -16
-20 6 -42 28 -28 11 7 12 11 0 24 -11 14 -10 19 5 36 9 10 14 24 9 31 -11 19
19 -1 34 -23z m6752 17 c13 -8 10 -83 -4 -88 -6 -2 -26 0 -43 5 -41 11 -44 40
-5 55 26 11 26 11 -15 12 -41 1 -43 0 -43 -29 0 -20 -5 -30 -15 -30 -20 0 -29
43 -15 69 10 19 18 21 70 17 33 -3 64 -7 70 -11z m460 -39 c28 -9 37 -18 44
-47 10 -40 2 -74 -14 -64 -5 3 -10 21 -10 39 0 35 -21 62 -40 51 -5 -3 -10
-24 -10 -46 0 -28 -4 -39 -12 -37 -17 6 -21 41 -12 107 5 42 9 50 13 32 4 -16
18 -27 41 -35z m3090 33 c0 -16 -31 -22 -43 -10 -9 9 -9 14 2 20 16 10 41 4
41 -10z m-10466 3 c2 -4 -4 -8 -14 -8 -10 0 -16 4 -14 8 3 4 9 8 14 8 5 0 11
-4 14 -8z m7012 -14 c4 -6 1 -14 -7 -18 -10 -7 -10 -11 0 -24 15 -18 9 -32
-18 -39 -27 -7 -37 3 -44 45 -4 28 -2 40 10 47 18 10 50 4 59 -11z m1799 -8
c-5 -8 -11 -8 -17 -2 -6 6 -7 16 -3 22 5 8 11 8 17 2 6 -6 7 -16 3 -22z
m-8725 10 c0 -5 -7 -7 -15 -4 -8 4 -15 8 -15 10 0 2 7 4 15 4 8 0 15 -4 15
-10z m5101 -22 c0 -31 1 -31 10 -10 9 24 29 26 37 4 2 -7 -2 -10 -12 -6 -10 4
-16 1 -16 -9 0 -21 17 -31 23 -15 3 8 6 6 6 -4 1 -12 -6 -18 -19 -18 -11 0
-20 6 -20 13 0 8 -4 7 -10 -3 -5 -8 -10 -11 -10 -6 0 5 -6 3 -13 -3 -30 -24
-39 41 -9 70 25 26 32 23 33 -13z m1894 22 c4 -6 15 -8 26 -5 11 4 19 2 19 -4
0 -6 -7 -11 -15 -11 -22 0 -39 -38 -24 -56 16 -19 10 -23 -23 -17 -26 5 -28 9
-28 54 0 42 3 49 19 49 11 0 23 -5 26 -10z m411 -17 c-10 -10 -19 5 -10 18 6
11 8 11 12 0 2 -7 1 -15 -2 -18z m3079 18 c7 -12 -31 -25 -45 -16 -5 3 -10 10
-10 16 0 12 47 12 55 0z m-8697 -28 c46 -34 40 -63 -19 -100 -28 -18 -60 -33
-70 -33 -10 0 -34 14 -54 31 -39 35 -45 70 -19 108 15 21 23 23 75 19 39 -3
69 -11 87 -25z m3242 -3 c9 -33 2 -50 -20 -50 -18 0 -36 53 -24 72 11 17 38 3
44 -22z m274 -12 c7 -30 -6 -45 -22 -25 -11 13 -4 73 8 60 4 -4 10 -20 14 -35z
m1786 -8 c0 -41 -15 -59 -32 -42 -8 8 -7 16 2 26 7 9 9 23 6 32 -7 19 2 37 15
29 5 -4 9 -24 9 -45z m-6158 18 c-6 -6 -8 -17 -5 -24 3 -8 0 -14 -7 -14 -6 0
-8 5 -5 10 3 6 1 10 -4 10 -15 0 -14 27 2 33 18 6 30 -4 19 -15z m5448 13 c0
-6 -4 -13 -10 -16 -5 -3 -10 1 -10 9 0 9 5 16 10 16 6 0 10 -4 10 -9z m2678
-13 c-2 -19 -10 -23 -40 -25 -37 -2 -65 17 -53 37 3 5 26 10 51 10 41 0 45 -2
42 -22z m1672 -4 c0 -22 -2 -25 -15 -14 -12 10 -13 16 -4 26 16 20 19 18 19
-12z m-11251 -9 c8 -8 16 -38 19 -67 3 -46 0 -58 -25 -90 -15 -21 -38 -41 -50
-44 -13 -3 -23 -10 -23 -14 0 -12 -59 -30 -98 -30 -19 0 -65 9 -101 19 -36 11
-133 34 -216 51 -451 95 -475 101 -475 125 0 20 62 27 163 20 74 -6 122 -2
247 19 85 14 169 27 185 30 17 2 104 2 195 -1 121 -3 169 -8 179 -18z m7721
15 c0 -5 -8 -10 -19 -10 -24 0 -45 -25 -37 -45 3 -8 17 -15 31 -15 14 0 25 -4
25 -10 0 -5 -14 -10 -30 -10 -24 0 -33 6 -41 27 -15 41 3 73 41 73 16 0 30 -4
30 -10z m1945 0 c3 -5 1 -10 -4 -10 -6 0 -11 5 -11 10 0 6 2 10 4 10 3 0 8 -4
11 -10z m1545 0 c0 -5 -4 -10 -10 -10 -5 0 -10 5 -10 10 0 6 5 10 10 10 6 0
10 -4 10 -10z m-1392 -13 c21 -24 -2 -40 -47 -32 -41 7 -42 8 -25 26 20 22 57
25 72 6z m-4990 -40 c-11 -21 -28 -14 -28 12 0 25 10 32 25 18 9 -8 10 -18 3
-30z m3098 7 c-5 -13 -10 -14 -18 -6 -6 6 -8 18 -4 28 5 13 10 14 18 6 6 -6 8
-18 4 -28z m1984 5 c0 -21 -34 -26 -60 -9 -13 8 -12 11 4 23 25 18 56 10 56
-14z m-9370 11 c0 -5 -2 -10 -4 -10 -3 0 -8 5 -11 10 -3 6 -1 10 4 10 6 0 11
-4 11 -10z m220 -6 c0 -2 -9 -4 -21 -4 -11 0 -18 4 -14 10 5 8 35 3 35 -6z
m7276 4 c4 -6 2 -14 -4 -16 -16 -5 -15 -45 1 -61 10 -10 7 -12 -13 -9 -21 3
-25 7 -22 35 2 17 -1 34 -7 38 -6 3 -11 10 -11 16 0 13 47 11 56 -3z m95 1
c23 -12 16 -29 -10 -29 -30 0 -33 -36 -3 -49 17 -8 22 -15 15 -22 -32 -32 -82
61 -53 96 15 18 25 19 51 4z m123 -15 c21 -31 18 -93 -6 -108 -22 -13 -35 -1
-18 19 12 14 10 44 -5 93 -10 30 9 28 29 -4z m-7329 6 c3 -5 1 -10 -4 -10 -6
0 -11 5 -11 10 0 6 2 10 4 10 3 0 8 -4 11 -10z m5095 -10 c0 -11 -4 -20 -9
-20 -5 0 -11 9 -14 20 -3 13 0 20 9 20 8 0 14 -9 14 -20z m4024 3 c8 -20 -14
-36 -30 -22 -7 6 -19 9 -28 7 -8 -2 -14 1 -13 7 1 5 9 8 19 7 9 -2 19 2 23 8
9 15 22 12 29 -7z m-8613 -15 c23 -25 25 -42 4 -35 -8 4 -17 2 -20 -3 -4 -6 3
-10 14 -10 29 0 26 -18 -4 -26 -14 -3 -25 -10 -25 -15 0 -5 -9 -9 -21 -9 -11
0 -18 -4 -15 -9 8 -12 30 -8 50 8 8 7 20 10 25 7 16 -10 1 -36 -19 -36 -11 0
-22 -5 -25 -11 -4 -6 3 -9 21 -7 15 2 29 -3 31 -9 3 -8 -4 -13 -16 -13 -12 0
-21 -4 -21 -10 0 -5 7 -7 15 -4 8 4 15 1 15 -5 0 -6 8 -11 18 -11 14 0 15 -2
2 -10 -8 -5 -25 -7 -37 -3 -13 3 -23 1 -23 -5 0 -5 -7 -13 -16 -16 -12 -4 -15
-2 -10 9 8 21 -3 45 -19 39 -7 -3 -16 -1 -20 5 -3 6 1 11 10 11 12 0 15 7 13
28 -2 21 -8 27 -25 26 -18 0 -20 2 -12 13 6 7 20 13 31 13 19 0 40 37 30 54
-3 5 3 15 13 23 11 7 13 13 6 13 -7 0 -9 5 -6 10 9 15 15 13 36 -12z m2363 -7
c16 -18 17 -25 6 -50 -7 -17 -21 -33 -31 -36 -10 -4 -26 -13 -34 -21 -13 -14
-18 -13 -45 6 -17 12 -30 25 -28 29 35 78 43 87 79 89 25 2 41 -3 53 -17z
m1312 4 c11 -27 -1 -33 -19 -9 -16 21 -16 24 -2 24 9 0 18 -7 21 -15z m5049
-15 c0 -33 -39 -40 -55 -10 -15 27 -4 42 28 38 21 -2 27 -8 27 -28z m-9278
-12 c-3 -7 -5 -2 -5 12 0 14 2 19 5 13 2 -7 2 -19 0 -25z m4383 19 c15 -12 21
-77 8 -77 -5 0 -8 7 -8 15 0 8 -7 15 -15 15 -8 0 -15 -7 -15 -15 0 -13 -2 -14
-14 -3 -8 7 -11 14 -7 16 4 1 5 16 3 32 -3 24 -1 30 14 30 11 0 26 -6 34 -13z
m160 -31 c0 -26 -6 -18 -14 19 -5 22 -4 26 4 15 5 -8 10 -24 10 -34z m-4660
14 c0 -5 -9 -6 -20 -3 -11 3 -20 9 -20 13 0 5 9 6 20 3 11 -3 20 -9 20 -13z
m4330 -8 c0 -15 -2 -15 -10 -2 -13 20 -13 33 0 25 6 -3 10 -14 10 -23z m251
-10 c5 -26 3 -32 -10 -32 -12 0 -16 9 -16 35 0 43 17 41 26 -3z m4919 18 c0
-15 -7 -20 -25 -20 -18 0 -25 5 -25 20 0 15 7 20 25 20 18 0 25 -5 25 -20z
m-6921 -4 c22 -26 -6 -64 -53 -71 -22 -4 -57 -14 -76 -22 -19 -9 -48 -18 -65
-22 -22 -5 -32 -15 -39 -36 -4 -17 -12 -38 -17 -47 -5 -10 -9 -25 -9 -33 0
-32 -26 -13 -38 28 -13 47 -16 67 -14 113 3 54 60 79 212 93 41 4 78 8 81 9 4
1 12 -4 18 -12z m-1848 -19 c-13 -13 -26 -3 -16 12 3 6 11 8 17 5 6 -4 6 -10
-1 -17z m8979 8 c0 -8 -4 -15 -10 -15 -5 0 -10 7 -10 15 0 8 5 15 10 15 6 0
10 -7 10 -15z m200 9 c0 -3 -7 -12 -15 -20 -13 -14 -15 -13 -15 5 0 12 6 21
15 21 8 0 15 -3 15 -6z m-9745 -15 c11 -17 2 -18 -19 -3 -17 12 -17 14 -4 14
9 0 20 -5 23 -11z m4724 -19 c6 0 11 6 11 13 0 8 3 8 8 1 4 -6 15 -13 25 -17
9 -3 17 -12 17 -19 0 -9 -3 -8 -10 2 -5 8 -10 12 -10 8 0 -3 -3 -14 -7 -24 -4
-12 -3 -15 5 -10 7 4 12 2 12 -3 0 -6 -4 -11 -9 -11 -5 0 -9 -6 -8 -12 2 -50
-26 -65 -30 -16 -1 17 2 26 8 23 5 -4 7 -11 4 -16 -4 -5 -1 -9 5 -9 7 0 10 6
7 13 -29 69 -46 84 -48 45 -1 -22 -1 -22 -10 2 -7 20 -8 17 -6 -17 1 -24 -1
-43 -5 -43 -5 0 -8 4 -8 9 0 5 -8 7 -19 4 -10 -3 -22 0 -25 6 -4 7 -1 8 8 5 9
-3 16 -1 16 5 0 6 -4 11 -10 11 -21 0 -9 41 15 52 14 6 25 16 25 22 0 6 7 3
14 -6 7 -10 18 -18 25 -18z m-4903 6 c10 -8 16 -18 11 -22 -4 -4 -7 -2 -7 4 0
7 -6 12 -14 12 -8 0 -18 5 -21 10 -9 15 8 12 31 -4z m4338 -7 c3 1 6 -2 6 -6
0 -18 -25 -6 -28 12 -2 15 -1 16 6 7 5 -8 12 -13 16 -13z m5476 11 c0 -5 -7
-10 -16 -10 -8 0 -12 5 -9 10 3 6 10 10 16 10 5 0 9 -4 9 -10z m-9200 -10 c-8
-5 -19 -10 -25 -10 -5 0 -3 5 5 10 8 5 20 10 25 10 6 0 3 -5 -5 -10z m-475
-10 c3 -5 1 -10 -4 -10 -6 0 -11 5 -11 10 0 6 2 10 4 10 3 0 8 -4 11 -10z
m3653 -14 c6 -29 -5 -45 -27 -39 -23 6 -28 32 -9 51 16 16 32 10 36 -12z
m6223 1 c-10 -9 -11 -8 -5 6 3 10 9 15 12 12 3 -3 0 -11 -7 -18z m159 3 c0
-11 -7 -20 -15 -20 -8 0 -15 9 -15 20 0 11 7 20 15 20 8 0 15 -9 15 -20z
m-5392 -34 c0 -38 -2 -43 -18 -39 -25 7 -31 27 -17 57 19 40 35 32 35 -18z
m-1094 28 c21 -8 20 -27 -2 -41 -25 -15 -46 -1 -37 26 7 22 14 25 39 15z
m1606 -12 c0 -26 -52 -102 -70 -102 -11 1 -10 5 6 19 13 10 24 34 28 57 3 21
5 40 6 42 0 1 7 2 15 2 8 0 15 -8 15 -18z m5109 1 c-1 -10 -5 -29 -9 -43 -7
-21 -8 -19 -9 18 -1 23 4 42 9 42 6 0 10 -8 9 -17z m-10419 -13 c-8 -5 -19
-10 -25 -10 -5 0 -3 5 5 10 8 5 20 10 25 10 6 0 3 -5 -5 -10z m5194 -31 c-8
-13 -24 -1 -24 18 0 13 3 13 15 3 8 -7 12 -16 9 -21z m5286 9 c0 -18 -2 -20
-9 -8 -6 8 -7 18 -5 22 9 14 14 9 14 -14z m-9894 -39 c-4 -44 -2 -52 15 -56
10 -3 16 -10 13 -15 -4 -6 0 -14 7 -19 20 -13 29 -11 23 5 -7 19 49 41 73 27
20 -11 9 -15 -36 -11 -14 1 -21 -2 -17 -9 4 -6 16 -11 26 -11 10 0 22 -5 25
-10 7 -11 -14 -44 -23 -36 -2 3 -13 -5 -23 -17 -16 -19 -18 -20 -19 -4 0 16
-40 26 -40 9 0 -9 65 -45 87 -48 8 -1 22 -5 30 -9 14 -5 14 -7 -2 -18 -16 -13
-16 -14 0 -30 15 -16 15 -17 -4 -17 -12 0 -21 5 -21 12 0 9 -3 9 -12 0 -16
-16 -28 -15 -28 3 0 8 9 15 20 15 11 0 20 5 20 10 0 18 -32 11 -51 -12 -25
-27 -24 -31 8 -46 18 -8 30 -9 37 -2 15 15 26 12 26 -6 0 -13 -8 -15 -49 -9
-31 4 -51 3 -56 -4 -3 -6 -1 -11 4 -11 6 0 11 -5 11 -11 0 -6 -6 -9 -12 -6
-17 5 -16 58 1 80 8 9 10 17 4 17 -5 0 -15 11 -21 25 -13 29 -6 32 20 8 10 -9
21 -13 25 -9 4 4 1 11 -7 16 -30 19 -50 35 -50 40 0 4 9 16 20 28 l21 22 -21
0 c-15 0 -20 7 -20 24 0 16 -7 27 -21 31 -16 5 -18 10 -9 20 7 8 9 19 5 25 -3
5 -2 10 2 10 16 0 12 39 -5 43 -12 3 -11 5 5 6 21 1 22 -2 19 -50z m4493 21
c-11 -30 -39 -42 -39 -16 0 28 12 46 31 46 16 0 17 -4 8 -30z m-709 4 c0 -8
-4 -12 -10 -9 -5 3 -10 -1 -10 -9 0 -9 3 -16 8 -16 4 0 7 -11 7 -25 0 -14 -1
-25 -1 -25 -1 0 -9 11 -18 25 -12 18 -13 30 -6 50 10 28 30 34 30 9z m1060
-21 c0 -17 -25 -27 -42 -17 -7 5 -21 7 -30 6 -26 -5 -22 27 5 37 26 10 67 -6
67 -26z m-5430 17 c8 -5 11 -10 5 -10 -5 0 -17 5 -25 10 -8 5 -10 10 -5 10 6
0 17 -5 25 -10z m4300 0 c0 -5 -5 -10 -11 -10 -5 0 -7 5 -4 10 3 6 8 10 11 10
2 0 4 -4 4 -10z m300 -15 c6 4 10 -4 10 -19 0 -14 9 -31 22 -40 12 -9 17 -16
10 -16 -7 0 -23 11 -36 25 -20 21 -25 23 -30 9 -5 -14 -7 -14 -22 0 -8 9 -21
13 -27 9 -13 -8 12 28 28 39 5 4 15 2 22 -3 7 -6 17 -8 23 -4z m60 -7 c0 -18
-2 -20 -10 -8 -5 8 -13 11 -17 6 -4 -4 1 -14 11 -22 18 -12 18 -14 3 -14 -26
0 -34 30 -12 46 24 18 25 18 25 -8z m838 9 c9 -10 7 -19 -4 -35 -19 -27 -30
-28 -44 -1 -19 35 23 67 48 36z m-5378 -7 c0 -5 -10 -10 -22 -9 -22 0 -22 1
-3 9 11 5 21 9 23 9 1 1 2 -3 2 -9z m1375 -12 c99 -141 94 -179 -23 -193 -67
-8 -87 -1 -77 24 4 9 11 50 17 91 5 41 14 80 20 87 16 20 45 15 63 -9z m2828
2 c3 -11 1 -20 -4 -20 -5 0 -9 9 -9 20 0 11 2 20 4 20 2 0 6 -9 9 -20z m197 5
c-7 -9 -15 -13 -17 -11 -7 7 7 26 19 26 6 0 6 -6 -2 -15z m-238 -17 c-7 -7
-12 -8 -12 -2 0 14 12 26 19 19 2 -3 -1 -11 -7 -17z m1318 5 c-1 -27 -26 -55
-46 -51 -26 5 -28 24 -5 47 26 26 51 27 51 4z m-5609 -34 c31 -31 7 -22 -31
11 -24 22 -28 28 -12 20 13 -6 32 -20 43 -31z m5867 17 c5 -25 -18 -76 -34
-76 -16 0 -18 37 -4 75 11 29 33 29 38 1z m192 -21 c9 -11 17 -12 31 -4 31 16
158 7 176 -13 14 -16 17 -16 39 -1 23 14 26 14 45 -3 13 -12 38 -18 77 -20
127 -6 153 -9 162 -24 14 -21 12 -43 -4 -65 -12 -17 -18 -18 -52 -8 -22 6 -50
10 -64 9 -14 -2 -34 0 -46 4 -11 5 -28 4 -38 -2 -12 -7 -28 -4 -57 11 -31 16
-44 19 -60 11 -12 -7 -31 -8 -52 -2 -18 5 -46 7 -62 5 -25 -3 -34 1 -50 26
-23 35 -30 37 -51 16 -20 -20 -60 -19 -68 1 -8 21 -8 59 1 67 12 13 60 7 73
-8z m-5195 -23 c-3 -3 -11 0 -18 7 -9 10 -8 11 6 5 10 -3 15 -9 12 -12z m-60
-2 c3 -5 1 -10 -4 -10 -6 0 -11 5 -11 10 0 6 2 10 4 10 3 0 8 -4 11 -10z
m5915 -17 c0 -20 -3 -24 -11 -16 -7 7 -9 19 -6 27 10 24 17 19 17 -11z m-6180
-7 c0 -7 -6 -19 -14 -25 -11 -9 -15 -8 -20 5 -4 10 -1 21 6 26 19 12 28 10 28
-6z m-830 -16 c-8 -5 -17 -7 -19 -4 -3 3 1 9 9 14 8 5 17 7 19 4 3 -3 -1 -9
-9 -14z m883 7 c3 -8 -4 -13 -19 -13 -13 0 -24 6 -24 13 0 17 36 17 43 0z
m292 3 c-3 -5 -12 -10 -18 -10 -7 0 -6 4 3 10 19 12 23 12 15 0z m-1075 -4 c0
-3 -4 -8 -10 -11 -5 -3 -10 -1 -10 4 0 6 5 11 10 11 6 0 10 -2 10 -4z m9850
-26 c-5 -10 -29 -35 -53 -54 -36 -30 -43 -40 -39 -64 5 -36 -17 -55 -52 -46
-31 7 -41 20 -25 30 8 4 9 3 5 -4 -4 -7 -5 -12 -2 -12 3 0 12 16 21 35 15 38
59 87 109 121 35 25 51 22 36 -6z m-9864 -26 c30 -20 54 -37 54 -38 0 -1 -9
-2 -19 -2 -11 0 -19 4 -18 9 2 10 -58 48 -71 46 -18 -3 -32 2 -32 11 0 19 32
10 86 -26z m204 -3 c12 -12 10 -11 -9 0 -14 9 -27 22 -29 30 -3 11 -2 11 9 -1
8 -8 21 -21 29 -29z m-168 17 c-9 -9 -15 -9 -24 0 -9 9 -7 12 12 12 19 0 21
-3 12 -12z m749 3 c0 8 4 5 9 -6 14 -32 11 -36 -11 -24 -16 8 -23 8 -29 -1 -5
-8 -9 -7 -13 5 -4 9 -3 13 3 10 6 -3 10 1 10 11 0 13 3 14 15 4 12 -10 15 -10
16 1z m-894 -7 c-3 -3 -12 -4 -19 -1 -8 3 -5 6 6 6 11 1 17 -2 13 -5z m1043
-4 c0 -13 -28 -25 -38 -16 -3 4 0 11 8 16 20 13 30 12 30 0z m11398 -2 c16
-16 -3 -48 -29 -48 -22 0 -34 22 -25 45 6 18 37 20 54 3z m-11604 -29 c-3 -5
-11 -3 -18 4 -18 16 -8 31 10 16 7 -6 11 -15 8 -20z m-793 4 c13 -17 13 -17
-6 -3 -11 8 -22 16 -24 17 -2 2 0 3 6 3 6 0 17 -8 24 -17z m1134 -3 c3 -5 1
-10 -4 -10 -6 0 -11 5 -11 10 0 6 2 10 4 10 3 0 8 -4 11 -10z m5795 -10 c0 -5
-2 -10 -4 -10 -3 0 -8 5 -11 10 -3 6 -1 10 4 10 6 0 11 -4 11 -10z m-6060 -10
c0 -5 -7 -10 -15 -10 -8 0 -15 5 -15 10 0 6 7 10 15 10 8 0 15 -4 15 -10z
m-803 -6 c-3 -3 -12 -4 -19 -1 -8 3 -5 6 6 6 11 1 17 -2 13 -5z m1069 -7 c8 3
14 0 14 -6 0 -6 -16 -11 -37 -10 -21 1 -30 3 -20 6 9 2 17 10 18 16 0 9 2 9 5
0 3 -7 12 -9 20 -6z m-291 -7 c4 -6 10 -8 15 -5 5 3 11 1 15 -5 3 -5 -9 -9
-30 -8 -22 1 -35 6 -35 15 0 15 26 18 35 3z m7560 -6 c73 -7 145 -27 145 -39
0 -18 -57 -30 -74 -15 -8 6 -26 8 -40 4 -15 -3 -32 -1 -40 5 -8 7 -25 9 -40 5
-17 -4 -35 0 -52 10 -13 10 -33 14 -44 11 -10 -3 -21 -1 -25 5 -6 9 20 15 52
11 6 -1 15 3 18 9 4 7 19 8 38 4 18 -4 46 -9 62 -10z m-8445 -8 c0 -2 -7 -7
-16 -10 -8 -3 -12 -2 -9 4 6 10 25 14 25 6z m40 -7 c0 -5 4 -8 9 -4 5 3 12 2
15 -3 8 -14 -28 -10 -42 5 -11 11 -11 13 2 13 9 0 16 -5 16 -11z m791 -7 c-7
-2 -18 1 -23 6 -8 8 -4 9 13 5 13 -4 18 -8 10 -11z m9127 -18 c-5 -28 -28 -29
-28 -1 0 13 3 27 7 31 10 10 25 -10 21 -30z m-8841 10 c-3 -3 -12 -4 -19 -1
-8 3 -5 6 6 6 11 1 17 -2 13 -5z m-244 -35 c-23 -8 -27 -4 -19 17 5 14 9 14
22 3 14 -12 14 -14 -3 -20z m965 4 c4 -29 -31 -51 -99 -63 -30 -5 -112 -22
-182 -39 -71 -17 -147 -31 -170 -31 l-42 0 30 20 c26 18 194 78 280 101 17 4
48 15 70 23 57 22 109 17 113 -11z m8252 2 c0 -32 -45 -49 -56 -20 -10 24 14
47 37 34 10 -5 19 -11 19 -14z m-10070 -6 c0 -5 8 -9 17 -9 9 0 13 -3 10 -7
-8 -8 -57 17 -57 28 0 5 7 6 15 3 8 -4 15 -10 15 -15z m325 -9 c-3 -5 -12 -10
-18 -10 -7 0 -6 4 3 10 19 12 23 12 15 0z m469 -11 c-6 -11 -24 -2 -24 11 0 5
7 7 15 4 8 -4 12 -10 9 -15z m9446 -2 c0 -8 -3 -17 -7 -20 -9 -9 -34 13 -27
24 8 14 34 11 34 -4z m115 3 c3 -6 17 -7 31 -4 28 7 43 -18 24 -41 -17 -20
-37 -19 -71 6 -24 17 -27 24 -18 35 14 17 25 18 34 4z m-9194 -23 c-6 -8 -9
-22 -5 -31 3 -9 2 -16 -4 -16 -5 0 -13 8 -17 18 -8 21 -6 28 6 24 5 -1 12 5
16 13 3 9 8 14 11 11 3 -3 0 -12 -7 -19z m8274 -7 c10 -11 16 -20 13 -20 -3 0
-13 9 -23 20 -10 11 -16 20 -13 20 3 0 13 -9 23 -20z m1100 0 c-3 -5 -13 -10
-21 -10 -8 0 -14 5 -14 10 0 6 9 10 21 10 11 0 17 -4 14 -10z m-10545 -10 c13
-8 13 -10 -2 -10 -9 0 -20 5 -23 10 -8 13 5 13 25 0z m749 -12 c-10 -7 -8 -8
8 -3 24 7 43 -13 23 -25 -9 -5 -9 -9 -1 -14 6 -4 11 -17 11 -30 0 -12 5 -27
12 -34 9 -9 4 -12 -25 -12 -31 0 -38 4 -43 25 -3 13 -4 30 -1 37 2 7 -3 21
-12 31 -14 17 -14 20 3 33 10 7 23 11 29 7 5 -3 3 -9 -4 -15z m111 6 c0 -8 -5
-12 -10 -9 -6 4 -8 11 -5 16 9 14 15 11 15 -7z m9760 6 c0 -5 -2 -10 -4 -10
-3 0 -8 5 -11 10 -3 6 -1 10 4 10 6 0 11 -4 11 -10z m120 -15 c0 -8 -7 -15
-15 -15 -8 0 -15 7 -15 15 0 8 7 15 15 15 8 0 15 -7 15 -15z m-10767 -36 c4
-16 3 -18 -9 -8 -7 6 -11 15 -8 20 8 13 11 11 17 -12z m9325 -14 c-3 -3 -9 2
-12 12 -6 14 -5 15 5 6 7 -7 10 -15 7 -18z m332 -9 c0 -29 -24 -40 -41 -19
-11 13 -10 17 6 29 27 20 35 17 35 -10z m275 -6 c8 0 15 -6 15 -14 0 -9 -8
-12 -25 -8 -16 3 -33 -2 -45 -13 -15 -13 -28 -15 -62 -10 -71 11 -78 15 -78
42 0 25 2 25 48 19 26 -3 53 -2 61 3 10 6 25 4 42 -5 16 -8 35 -14 44 -14z
m-9042 0 c3 -11 1 -20 -4 -20 -5 0 -9 9 -9 20 0 11 2 20 4 20 2 0 6 -9 9 -20z
m8667 0 c0 -5 -4 -10 -10 -10 -5 0 -10 5 -10 10 0 6 5 10 10 10 6 0 10 -4 10
-10z m-173 -6 c-3 -3 10 -22 29 -42 19 -20 34 -40 34 -44 0 -18 -50 -1 -53 18
-1 5 -5 8 -9 7 -4 -2 -5 3 -2 11 3 7 -2 20 -10 29 -12 12 -13 17 -3 20 17 8
21 8 14 1z m-9393 -20 c3 -8 2 -12 -4 -9 -6 3 -10 10 -10 16 0 14 7 11 14 -7z
m10076 -4 c0 -5 -2 -10 -4 -10 -3 0 -8 5 -11 10 -3 6 -1 10 4 10 6 0 11 -4 11
-10z m104 -2 c20 -9 23 -14 15 -25 -6 -7 -17 -13 -24 -13 -17 0 -38 27 -30 40
8 13 8 13 39 -2z m-9003 -31 c-10 -9 -11 -8 -5 6 3 10 9 15 12 12 3 -3 0 -11
-7 -18z m-277 -2 c-4 -8 -7 -15 -9 -15 -2 0 -5 7 -9 15 -3 9 0 15 9 15 9 0 12
-6 9 -15z m905 -59 c-1 -60 4 -82 25 -124 34 -66 34 -106 1 -128 -20 -13 -28
-14 -40 -4 -20 17 -22 293 -2 315 6 8 13 14 14 15 2 0 2 -33 2 -74z m8466 65
c7 -12 -12 -24 -25 -16 -11 7 -4 25 10 25 5 0 11 -4 15 -9z m-9464 -18 c1 -10
2 -28 3 -41 0 -13 9 -29 19 -36 29 -22 19 -28 -13 -9 -32 19 -37 28 -19 39 8
5 6 10 -5 16 -9 5 -16 18 -16 28 0 25 30 27 31 3z m9562 10 c4 -3 2 -12 -4
-19 -12 -15 -49 -2 -49 16 0 11 43 14 53 3z m-10428 -21 c-3 -3 -11 0 -18 7
-9 10 -8 11 6 5 10 -3 15 -9 12 -12z m350 -2 c-27 -12 -43 -12 -25 0 8 5 22 9
30 9 10 0 8 -3 -5 -9z m10216 -6 c12 -14 11 -16 -5 -13 -11 2 -21 10 -24 17
-5 17 13 15 29 -4z m-10260 -15 l24 -20 -30 17 c-39 24 -40 24 -28 24 6 0 21
-9 34 -21z m886 4 c-9 -9 -20 -13 -24 -9 -4 4 -1 11 7 16 25 16 35 11 17 -7z
m9548 5 c32 -14 32 -26 -1 -34 -28 -7 -61 16 -50 35 9 14 19 14 51 -1z m-9535
-26 c0 -4 -9 -15 -20 -25 -22 -19 -25 -15 -10 14 11 19 30 26 30 11z m58 -12
c-7 -10 -14 -17 -17 -15 -4 4 18 35 25 35 2 0 -1 -9 -8 -20z m-342 -70 c1 -16
-3 -27 -7 -24 -14 8 -9 54 5 54 1 0 1 -13 2 -30z m274 26 c0 -2 -7 -7 -16 -10
-8 -3 -12 -2 -9 4 6 10 25 14 25 6z m4 -41 c-4 -8 -10 -15 -15 -15 -5 0 -9 7
-9 15 0 8 7 15 15 15 9 0 12 -6 9 -15z m4021 -26 c17 -27 -66 -72 -89 -49 -8
8 -4 18 17 36 30 25 61 31 72 13z m-4025 -9 c0 -5 -4 -10 -10 -10 -5 0 -10 5
-10 10 0 6 5 10 10 10 6 0 10 -4 10 -10z m70 6 c0 -3 -4 -8 -10 -11 -5 -3 -10
-1 -10 4 0 6 5 11 10 11 6 0 10 -2 10 -4z m4115 -12 c14 -14 14 -19 2 -38 -16
-24 -38 -30 -73 -22 -31 8 -32 39 -2 60 29 20 52 20 73 0z m-5005 -43 c0 -5
-8 -17 -17 -28 -10 -10 -13 -12 -8 -4 7 10 6 15 -2 18 -10 4 -10 7 0 18 12 13
27 11 27 -4z m5170 -12 c0 -5 -9 -9 -20 -9 -22 0 -27 16 -7 23 15 5 27 -1 27
-14z m-4320 1 c0 -5 -2 -10 -4 -10 -3 0 -8 5 -11 10 -3 6 -1 10 4 10 6 0 11
-4 11 -10z m4480 -4 c0 -21 -28 -46 -45 -40 -18 7 -19 26 -3 42 17 17 48 15
48 -2z m-4435 -6 c3 -5 1 -10 -4 -10 -6 0 -11 5 -11 10 0 6 2 10 4 10 3 0 8
-4 11 -10z m-308 -6 c-3 -3 -12 -4 -19 -1 -8 3 -5 6 6 6 11 1 17 -2 13 -5z
m270 -20 c-3 -3 -12 -4 -19 -1 -8 3 -5 6 6 6 11 1 17 -2 13 -5z m4793 -24 c0
-12 -35 -31 -43 -24 -3 3 -3 12 0 20 6 16 43 19 43 4z m-4780 -34 c0 -2 -7 -7
-16 -10 -8 -3 -12 -2 -9 4 6 10 25 14 25 6z m-10 -36 c0 -5 -4 -10 -10 -10 -5
0 -10 5 -10 10 0 6 5 10 10 10 6 0 10 -4 10 -10z m5110 6 c0 -3 -4 -8 -10 -11
-5 -3 -10 -1 -10 4 0 6 5 11 10 11 6 0 10 -2 10 -4z m-5705 -35 c-3 -6 -11 -8
-17 -5 -6 4 -5 9 3 15 16 10 23 4 14 -10z m555 9 c0 -5 -5 -10 -11 -10 -5 0
-7 5 -4 10 3 6 8 10 11 10 2 0 4 -4 4 -10z m80 6 c0 -3 -4 -8 -10 -11 -5 -3
-10 -1 -10 4 0 6 5 11 10 11 6 0 10 -2 10 -4z m-36 -15 c3 -5 -1 -11 -9 -14
-9 -4 -12 -1 -8 9 6 16 10 17 17 5z m41 -21 c-3 -5 -11 -10 -16 -10 -6 0 -7 5
-4 10 3 6 11 10 16 10 6 0 7 -4 4 -10z m-41 -25 c-4 -8 -8 -15 -10 -15 -2 0
-4 7 -4 15 0 8 4 15 10 15 5 0 7 -7 4 -15z m21 -18 c-10 -8 -15 -19 -11 -25 4
-7 3 -12 -3 -12 -20 0 -23 22 -5 35 11 8 23 15 28 15 6 0 2 -6 -9 -13z m-30
-58 c-7 -11 -35 -12 -35 -1 0 4 9 8 20 9 11 1 18 -2 15 -8z m25 -24 c-31 -32
-38 -25 -8 8 13 14 25 24 27 21 2 -2 -6 -15 -19 -29z m-50 -5 c0 -5 -4 -10
-10 -10 -5 0 -10 5 -10 10 0 6 5 10 10 10 6 0 10 -4 10 -10z m-525 -29 c3 -5
1 -12 -5 -16 -5 -3 -10 1 -10 9 0 18 6 21 15 7z m10433 -29 c7 -5 35 -73 63
-153 75 -217 73 -206 55 -244 -9 -18 -16 -38 -16 -43 0 -11 -79 -23 -117 -18
-28 3 -67 39 -100 89 -22 36 -23 41 -13 100 6 34 29 100 50 147 21 47 41 95
45 108 7 24 13 26 33 14z m-9912 -17 c-3 -8 -1 -15 4 -15 6 0 10 -5 10 -12 0
-8 -6 -7 -16 4 -9 9 -13 21 -10 27 10 16 19 13 12 -4z m-71 -16 c-8 -12 -35
-12 -35 0 0 11 22 20 33 14 4 -2 5 -9 2 -14z m5130 -199 c3 -5 1 -10 -4 -10
-6 0 -11 5 -11 10 0 6 2 10 4 10 3 0 8 -4 11 -10z m-1365 -140 c0 -28 -1 -29
-25 -18 -27 12 -33 33 -12 41 28 12 37 6 37 -23z m5567 -22 c-3 -8 -6 -5 -6 6
-1 11 2 17 5 13 3 -3 4 -12 1 -19z m-9737 -30 c0 -18 -2 -20 -9 -8 -6 8 -7 18
-5 22 9 14 14 9 14 -14z m0 -103 c0 -73 -13 -106 -18 -44 -1 16 -3 33 -3 37
-4 29 3 82 11 82 6 0 10 -32 10 -75z m3280 -60 c0 -8 -9 -15 -20 -15 -22 0
-27 15 -7 23 21 9 27 7 27 -8z m-2970 -55 c-8 -5 -28 -9 -45 -9 l-30 1 30 8
c17 4 37 8 45 9 13 1 13 0 0 -9z m514 -25 c-6 -15 -19 -20 -76 -30 -33 -6 -36
-5 -31 13 5 21 20 26 80 30 24 1 31 -2 27 -13z m5931 -25 c-3 -5 -12 -10 -18
-10 -7 0 -6 4 3 10 19 12 23 12 15 0z m-5795 -46 c0 -9 -9 -18 -20 -21 -11 -3
-20 -9 -20 -13 0 -4 -19 -10 -42 -13 -24 -3 -72 -10 -108 -16 -36 -5 -67 -8
-69 -5 -7 7 83 44 109 44 14 1 41 9 60 20 44 24 90 26 90 4z m2415 -94 c3 -5
1 -10 -4 -10 -6 0 -11 5 -11 10 0 6 2 10 4 10 3 0 8 -4 11 -10z m178 3 c-7 -2
-19 -2 -25 0 -7 3 -2 5 12 5 14 0 19 -2 13 -5z"/>
<path d="M11480 4300 c0 -5 5 -10 10 -10 6 0 10 5 10 10 0 6 -4 10 -10 10 -5
0 -10 -4 -10 -10z"/>
<path d="M11630 3965 c0 -8 4 -15 10 -15 5 0 7 7 4 15 -4 8 -8 15 -10 15 -2 0
-4 -7 -4 -15z"/>
<path d="M12740 3749 c0 -5 5 -7 10 -4 6 3 10 8 10 11 0 2 -4 4 -10 4 -5 0
-10 -5 -10 -11z"/>
<path d="M12960 3730 c0 -11 4 -20 9 -20 6 0 9 9 8 20 -1 11 -5 20 -9 20 -4 0
-8 -9 -8 -20z"/>
<path d="M11885 3629 c-4 -6 -5 -13 -2 -16 7 -7 27 6 27 18 0 12 -17 12 -25
-2z"/>
<path d="M11960 3595 c0 -8 5 -15 10 -15 6 0 10 7 10 15 0 8 -4 15 -10 15 -5
0 -10 -7 -10 -15z"/>
<path d="M12210 3610 c0 -5 9 -10 21 -10 11 0 17 5 14 10 -3 6 -13 10 -21 10
-8 0 -14 -4 -14 -10z"/>
<path d="M12310 3599 c0 -5 5 -7 10 -4 6 3 10 8 10 11 0 2 -4 4 -10 4 -5 0
-10 -5 -10 -11z"/>
<path d="M10690 3344 c0 -8 5 -12 10 -9 6 3 10 10 10 16 0 5 -4 9 -10 9 -5 0
-10 -7 -10 -16z"/>
<path d="M11460 3320 c0 -5 5 -10 10 -10 6 0 10 5 10 10 0 6 -4 10 -10 10 -5
0 -10 -4 -10 -10z"/>
<path d="M11248 3293 c7 -3 16 -2 19 1 4 3 -2 6 -13 5 -11 0 -14 -3 -6 -6z"/>
<path d="M11847 3294 c-12 -13 -8 -20 14 -21 11 -1 19 3 17 9 -5 15 -22 21
-31 12z"/>
<path d="M11670 3275 c0 -9 5 -15 11 -13 6 2 11 8 11 13 0 5 -5 11 -11 13 -6
2 -11 -4 -11 -13z"/>
<path d="M11920 3241 c0 -5 5 -13 10 -16 6 -3 10 -2 10 4 0 5 -4 13 -10 16 -5
3 -10 2 -10 -4z"/>
<path d="M12912 3193 c2 -10 10 -18 18 -18 8 0 16 8 18 18 2 12 -3 17 -18 17
-15 0 -20 -5 -18 -17z"/>
<path d="M10880 3175 c0 -8 5 -15 10 -15 6 0 10 7 10 15 0 8 -4 15 -10 15 -5
0 -10 -7 -10 -15z"/>
<path d="M11680 3110 c0 -5 5 -10 10 -10 6 0 10 5 10 10 0 6 -4 10 -10 10 -5
0 -10 -4 -10 -10z"/>
<path d="M10460 3049 c0 -5 5 -7 10 -4 6 3 10 8 10 11 0 2 -4 4 -10 4 -5 0
-10 -5 -10 -11z"/>
<path d="M10960 3010 c0 -5 5 -10 11 -10 5 0 7 5 4 10 -3 6 -8 10 -11 10 -2 0
-4 -4 -4 -10z"/>
<path d="M11350 2907 c0 -19 20 -36 36 -30 19 7 18 29 -2 37 -24 9 -34 7 -34
-7z"/>
<path d="M10730 2870 c0 -5 5 -10 11 -10 5 0 7 5 4 10 -3 6 -8 10 -11 10 -2 0
-4 -4 -4 -10z"/>
<path d="M14130 2390 c0 -5 5 -10 10 -10 6 0 10 5 10 10 0 6 -4 10 -10 10 -5
0 -10 -4 -10 -10z"/>
<path d="M4750 2306 c0 -9 5 -16 10 -16 6 0 10 4 10 9 0 6 -4 13 -10 16 -5 3
-10 -1 -10 -9z"/>
<path d="M4778 2273 c7 -3 16 -2 19 1 4 3 -2 6 -13 5 -11 0 -14 -3 -6 -6z"/>
<path d="M10770 2301 c0 -6 5 -13 10 -16 6 -3 10 1 10 9 0 9 -4 16 -10 16 -5
0 -10 -4 -10 -9z"/>
<path d="M11197 2284 c-4 -4 -7 -14 -7 -23 0 -11 3 -12 11 -4 6 6 10 16 7 23
-2 6 -7 8 -11 4z"/>
<path d="M4998 2169 c-10 -7 -10 -9 0 -10 27 -3 31 -4 38 -11 4 -5 11 -8 16
-8 16 0 7 15 -16 26 -14 7 -30 8 -38 3z"/>
<path d="M5075 2170 c3 -5 13 -10 21 -10 8 0 14 5 14 10 0 6 -9 10 -21 10 -11
0 -17 -4 -14 -10z"/>
<path d="M4845 2160 c3 -5 10 -10 16 -10 5 0 9 5 9 10 0 6 -7 10 -16 10 -8 0
-12 -4 -9 -10z"/>
<path d="M4885 2140 c-3 -5 -2 -10 3 -10 5 0 9 -7 9 -15 0 -8 -4 -15 -9 -15
-12 0 -10 -28 4 -36 7 -5 8 -3 3 7 -8 12 -6 12 9 0 12 -11 20 -11 28 -3 8 8 7
13 -5 18 -9 3 -17 11 -17 16 0 6 7 8 15 4 9 -3 15 0 15 9 0 8 -6 14 -12 13 -7
-2 -12 3 -10 10 2 14 -24 16 -33 2z"/>
<path d="M5112 2138 c3 -7 22 -14 44 -16 37 -2 38 -1 20 13 -24 18 -69 20 -64
3z"/>
<path d="M4985 2130 c-3 -5 -2 -10 4 -10 5 0 13 5 16 10 3 6 2 10 -4 10 -5 0
-13 -4 -16 -10z"/>
<path d="M5060 2130 c-9 -6 -10 -10 -3 -10 6 0 15 5 18 10 8 12 4 12 -15 0z"/>
<path d="M5010 2110 c0 -5 5 -10 10 -10 6 0 10 5 10 10 0 6 -4 10 -10 10 -5 0
-10 -4 -10 -10z"/>
<path d="M5046 2093 c-11 -11 -6 -23 9 -23 8 0 15 4 15 9 0 13 -16 22 -24 14z"/>
<path d="M4976 2068 c7 -11 34 -10 34 1 0 6 -9 9 -19 8 -11 0 -17 -5 -15 -9z"/>
<path d="M5085 2060 c-3 -6 1 -13 10 -16 19 -8 30 0 20 15 -8 14 -22 14 -30 1z"/>
<path d="M4930 2041 c0 -11 26 -22 34 -14 12 12 5 23 -14 23 -11 0 -20 -4 -20
-9z"/>
<path d="M5025 2039 c4 -5 12 -9 20 -9 7 0 15 -6 18 -12 4 -10 7 -10 18 0 7 6
11 12 8 12 -2 0 -19 4 -37 9 -20 6 -30 6 -27 0z"/>
<path d="M4985 2020 c3 -5 10 -10 16 -10 5 0 9 5 9 10 0 6 -7 10 -16 10 -8 0
-12 -4 -9 -10z"/>
<path d="M5025 1990 c3 -5 8 -10 11 -10 2 0 4 5 4 10 0 6 -5 10 -11 10 -5 0
-7 -4 -4 -10z"/>
<path d="M10098 2234 c-5 -4 -8 -16 -8 -28 0 -14 3 -17 11 -9 6 6 9 19 7 28
-1 9 -6 13 -10 9z"/>
<path d="M5885 1870 c-3 -5 1 -10 9 -10 8 0 18 5 21 10 3 6 -1 10 -9 10 -8 0
-18 -4 -21 -10z"/>
<path d="M5132 4320 c0 -30 3 -75 7 -100 l7 -45 7 67 c6 50 4 76 -7 100 l-14
33 0 -55z"/>
<path d="M3766 4311 c-3 -5 6 -37 20 -72 22 -54 47 -139 69 -234 3 -11 -2 -6
-11 10 -13 25 -14 26 -9 5 10 -35 16 -77 20 -133 3 -35 12 -58 35 -87 38 -47
46 -51 25 -10 -19 37 -19 46 0 30 13 -11 15 -10 9 6 -20 65 28 -43 97 -217 88
-221 126 -302 174 -369 28 -39 104 -151 310 -455 93 -138 98 -139 44 -5 -45
110 -265 555 -291 587 -5 7 -16 33 -24 60 -12 40 -12 48 0 55 8 5 11 17 8 33
-6 33 -28 26 -24 -7 2 -19 -3 -27 -18 -31 -11 -3 -18 -1 -15 3 3 5 2 10 -3 12
-4 1 -61 110 -126 241 -65 130 -124 237 -131 237 -7 0 -16 7 -19 16 -5 14 -4
15 9 4 8 -7 -5 30 -29 81 -25 52 -50 95 -56 97 -7 3 -7 8 -2 15 6 8 -2 34 -24
74 -18 35 -35 59 -38 54z m114 -366 c0 -5 -5 -3 -10 5 -5 8 -10 20 -10 25 0 6
5 3 10 -5 5 -8 10 -19 10 -25z m356 -600 c-11 -8 -25 -15 -30 -15 -6 0 -2 7 8
15 11 8 25 15 30 15 6 0 2 -7 -8 -15z m232 -430 c-3 -3 -9 2 -12 12 -6 14 -5
15 5 6 7 -7 10 -15 7 -18z m56 -125 c3 -14 -5 -2 -18 25 -14 28 -25 55 -25 60
0 15 36 -56 43 -85z"/>
<path d="M10750 4175 c0 -9 9 -15 25 -15 28 0 34 15 9 24 -25 10 -34 7 -34 -9z"/>
<path d="M10932 4170 c0 -14 2 -19 5 -12 2 6 2 18 0 25 -3 6 -5 1 -5 -13z"/>
<path d="M11040 4164 c0 -8 5 -12 10 -9 6 3 10 10 10 16 0 5 -4 9 -10 9 -5 0
-10 -7 -10 -16z"/>
<path d="M5163 4080 c0 -30 -3 -63 -7 -73 -6 -13 -5 -16 6 -12 16 6 28 -37 28
-102 0 -18 4 -33 10 -33 14 0 24 48 12 63 -5 6 -12 30 -15 52 -3 22 -12 67
-20 100 l-16 60 2 -55z"/>
<path d="M5132 4055 c0 -55 1 -57 9 -27 7 22 7 43 0 60 -8 23 -9 17 -9 -33z"/>
<path d="M3821 3939 c-1 -39 4 -60 14 -69 19 -16 19 3 0 75 l-13 50 -1 -56z"/>
<path d="M5134 3924 c-6 -25 -12 -125 -13 -222 -2 -177 -35 -616 -51 -682 -34
-135 -33 -123 -9 -143 15 -12 25 -15 33 -7 12 12 29 14 22 2 -2 -4 -6 -48 -7
-97 l-2 -90 32 3 c32 3 32 3 25 -35 -3 -21 -12 -55 -19 -76 -11 -33 -11 -39 2
-44 8 -3 19 -1 25 5 8 8 17 8 31 1 11 -6 32 -8 48 -5 17 3 29 1 29 -5 0 -6
-30 -9 -80 -8 -44 1 -83 -1 -87 -5 -4 -3 81 -4 188 -2 247 6 227 4 209 16 -11
7 -1 10 35 9 37 0 45 -3 30 -9 -13 -6 18 -9 88 -9 59 -1 107 3 107 8 0 5 44
12 98 15 88 7 171 17 258 31 30 5 38 17 145 233 62 125 115 229 119 232 8 7
30 59 30 70 0 24 -22 5 -58 -50 -29 -45 -41 -57 -46 -45 -3 9 -2 13 4 10 12
-8 13 5 0 25 -7 12 -11 10 -20 -10 -6 -14 -31 -59 -55 -100 -25 -41 -79 -142
-121 -225 -43 -82 -79 -145 -81 -138 -2 6 5 30 16 52 12 22 21 51 21 64 0 12
4 27 9 32 5 6 16 33 25 62 10 28 26 63 37 77 10 13 19 30 19 38 0 7 7 22 15
32 17 23 20 40 5 31 -5 -3 -10 1 -10 10 0 9 4 14 9 11 4 -3 17 4 27 16 19 21
19 21 -2 10 -11 -6 -32 -9 -45 -6 -13 2 -19 2 -13 -1 7 -3 9 -15 7 -27 -3 -11
0 -24 7 -28 9 -5 9 -9 1 -14 -6 -4 -11 -2 -11 3 0 24 -18 8 -39 -34 -12 -24
-26 -47 -31 -50 -5 -3 -17 -22 -27 -42 -20 -43 -28 -30 -14 23 14 52 5 56 -10
5 -12 -41 -29 -55 -29 -25 0 8 -4 13 -10 9 -17 -10 -47 31 -54 74 -6 36 -9 41
-21 31 -13 -11 -15 -7 -15 23 0 38 -16 60 -22 30 -2 -9 -2 28 -2 82 1 59 15
178 34 288 17 104 29 194 26 200 -2 7 -5 3 -6 -8 l-1 -20 -9 20 c-7 18 -9 16
-15 -12 -4 -18 -14 -38 -21 -44 -8 -6 -14 -26 -15 -43 0 -17 -11 -89 -24 -161
l-25 -130 5 96 c2 52 7 103 11 112 3 10 1 17 -5 17 -6 0 -11 -15 -12 -32 0
-35 -17 -86 -18 -57 -1 19 28 218 35 242 4 11 1 17 -8 15 -7 -2 -23 -40 -35
-88 -27 -100 -89 -377 -98 -435 -15 -98 -16 -100 -30 -81 -12 16 -14 16 -20
-3 -8 -25 -25 -18 -25 10 0 11 -6 30 -14 42 -17 26 -15 103 2 100 14 -3 17 83
3 91 -16 10 -64 -123 -63 -173 1 -29 -1 -41 -7 -32 -6 10 -10 10 -16 1 -4 -6
-2 -17 4 -23 6 -6 11 -18 11 -26 0 -12 -3 -12 -12 -3 -17 17 -24 15 -25 -9 -3
-29 -64 -129 -80 -129 -8 0 -13 -14 -14 -37 -1 -21 -5 -51 -9 -68 -8 -30 -8
-30 -9 -3 0 14 -5 28 -10 30 -5 2 -11 34 -14 72 -7 81 -3 81 17 0 8 -35 15
-48 15 -32 1 23 68 196 107 273 14 28 12 40 -30 195 -25 91 -59 206 -76 255
-17 50 -33 115 -35 145 -2 30 -2 47 1 38 9 -32 24 -19 23 20 0 29 -2 33 -8 17
-7 -16 -11 -10 -24 35 -9 30 -19 70 -22 88 -6 29 -10 33 -33 30 -31 -3 -31
-16 -6 -86 13 -35 20 -43 36 -39 12 4 18 1 15 -6 -2 -7 -18 -13 -35 -15 -26
-3 -30 -6 -23 -20 4 -9 14 -42 21 -72 7 -30 26 -102 42 -160 17 -58 34 -123
38 -145 5 -22 11 -49 15 -60 5 -15 4 -17 -3 -5 -11 16 -81 259 -110 377 -13
57 -21 73 -37 76 -18 3 -17 5 8 17 15 7 27 17 27 22 0 5 -5 6 -12 2 -7 -5 -9
-2 -5 8 3 9 1 34 -5 57 -10 38 -13 41 -44 41 -42 0 -42 -4 -5 -140 82 -299 92
-341 88 -353 -3 -6 -6 -2 -6 10 -2 47 -18 29 -30 -35 -15 -77 -58 -232 -67
-241 -10 -10 8 233 18 246 6 7 5 20 -3 34 -6 13 -8 24 -3 26 5 2 7 25 6 53 -3
39 0 51 12 56 18 7 21 36 6 62 -5 9 -21 66 -34 126 -24 108 -34 126 -68 126
-10 0 -18 5 -18 10 0 6 7 10 15 10 16 0 18 12 15 69 -4 64 -15 75 -26 25z m37
-215 l-9 -64 2 77 c0 42 4 71 8 64 4 -7 3 -42 -1 -77z m196 -541 c-3 -8 -6 -5
-6 6 -1 11 2 17 5 13 3 -3 4 -12 1 -19z m90 -70 c-3 -8 -6 -5 -6 6 -1 11 2 17
5 13 3 -3 4 -12 1 -19z m-208 -5 c0 -5 -4 -17 -9 -28 -8 -18 -9 -17 -9 8 -1
15 4 27 9 27 6 0 10 -3 9 -7z m-22 -85 c-3 -7 -5 -2 -5 12 0 14 2 19 5 13 2
-7 2 -19 0 -25z m-10 -40 c-3 -8 -6 -5 -6 6 -1 11 2 17 5 13 3 -3 4 -12 1 -19z
m383 -55 c0 -8 -4 -12 -9 -9 -5 4 -12 0 -14 -6 -3 -7 -6 -1 -6 14 -1 20 3 26
14 22 8 -4 15 -13 15 -21z m341 -123 c-9 -23 -10 -23 -10 11 -1 20 2 39 7 43
11 12 14 -27 3 -54z m-756 -15 c-3 -31 -9 -55 -11 -52 -3 2 -2 30 2 61 4 31 9
54 12 52 2 -3 1 -30 -3 -61z m22 -2 c-3 -10 -5 -2 -5 17 0 19 2 27 5 18 2 -10
2 -26 0 -35z m873 -23 c0 -5 -7 -10 -16 -10 -8 0 -12 5 -9 10 3 6 10 10 16 10
5 0 9 -4 9 -10z m-306 -58 c0 -26 -9 -65 -19 -86 -15 -32 -16 -39 -4 -47 9 -6
1 -8 -26 -8 -22 0 -35 3 -28 5 6 3 19 29 28 57 15 47 46 127 49 127 1 0 1 -22
0 -48z m-384 -26 c0 -13 -6 -26 -13 -29 -10 -4 -12 3 -9 24 5 35 22 39 22 5z
m526 -47 c-14 -30 -25 -50 -25 -46 -1 12 41 108 45 104 3 -2 -7 -28 -20 -58z
m-241 -69 c-3 -5 -16 -10 -28 -9 -21 0 -21 1 -2 9 28 12 37 12 30 0z m-218
-17 c-20 -2 -52 -2 -70 0 -17 2 0 4 38 4 39 0 53 -2 32 -4z"/>
<path d="M5407 3753 c-4 -3 -7 -11 -7 -17 0 -6 5 -5 12 2 6 6 9 14 7 17 -3 3
-9 2 -12 -2z"/>
<path d="M5901 3744 c0 -11 3 -14 6 -6 3 7 2 16 -1 19 -3 4 -6 -2 -5 -13z"/>
<path d="M5861 3634 c0 -11 3 -14 6 -6 3 7 2 16 -1 19 -3 4 -6 -2 -5 -13z"/>
<path d="M5851 3584 c0 -11 3 -14 6 -6 3 7 2 16 -1 19 -3 4 -6 -2 -5 -13z"/>
<path d="M5831 3574 c0 -11 3 -14 6 -6 3 7 2 16 -1 19 -3 4 -6 -2 -5 -13z"/>
<path d="M5862 3520 c0 -14 2 -19 5 -12 2 6 2 18 0 25 -3 6 -5 1 -5 -13z"/>
<path d="M4670 3511 c0 -4 10 -21 21 -35 20 -25 26 -27 69 -21 77 11 82 0 95
-226 3 -65 13 -119 30 -167 26 -73 33 -128 15 -117 -19 12 -39 71 -42 130 -4
62 -24 116 -45 122 -7 3 -11 -4 -10 -16 1 -12 7 -21 14 -21 19 0 16 -30 -4
-38 -10 -4 -18 -14 -18 -22 0 -8 -8 -16 -17 -18 -11 -2 -23 10 -37 40 l-19 43
-1 -32 c-1 -18 -6 -33 -12 -33 -6 0 -9 -9 -6 -20 6 -24 4 -24 -31 -6 -15 8
-34 26 -42 40 -18 34 -34 33 -26 -1 24 -110 29 -149 30 -230 1 -50 -2 -89 -6
-86 -5 2 -8 14 -8 25 0 29 -22 98 -31 98 -4 0 -3 -14 2 -32 5 -17 7 -34 4 -36
-5 -6 -20 58 -35 150 -7 43 -16 75 -21 73 -4 -3 -10 4 -14 15 -3 11 -15 20
-26 20 -10 0 -19 5 -19 11 0 6 -7 9 -15 5 -11 -4 -24 11 -46 49 -17 30 -32 55
-34 55 -7 0 59 -149 128 -288 42 -84 82 -171 88 -192 7 -22 14 -38 17 -35 3 3
11 0 18 -6 16 -13 37 -2 28 14 -4 7 -4 9 1 5 4 -4 14 -3 21 3 37 30 100 -38
124 -132 13 -50 32 -61 93 -55 15 2 27 -1 27 -5 0 -5 -26 -9 -57 -10 -76 -1
-34 -17 50 -18 53 -1 79 13 40 21 -13 3 -11 5 8 9 14 3 34 2 45 -2 17 -7 17
-8 -3 -8 -13 -1 -23 -5 -23 -10 0 -4 10 -7 23 -6 12 1 29 3 37 4 12 1 12 3 2
10 -10 6 -8 10 8 14 12 3 19 10 16 15 -3 6 3 30 14 55 19 43 19 77 -1 77 -6 0
-5 9 1 20 9 16 8 20 -5 20 -9 0 -15 10 -16 28 -1 20 -2 22 -6 7 -7 -31 -23
-42 -23 -18 0 12 -4 25 -10 28 -9 6 -15 -34 -11 -76 2 -21 -24 -32 -38 -15
-14 17 2 108 35 195 33 88 66 400 44 431 -8 13 -10 12 -10 -3 0 -17 -2 -17
-29 2 -16 12 -36 21 -45 21 -12 0 -16 10 -16 35 0 19 5 35 10 35 6 0 10 7 10
14 0 11 15 16 53 18 49 3 52 5 55 32 l4 29 -110 -6 c-92 -5 -123 -3 -184 13
-78 21 -128 25 -128 11z m-164 -423 c8 2 14 -4 14 -13 0 -9 -4 -13 -10 -10
-13 8 -13 -1 0 -26 21 -38 1 -18 -24 25 -28 49 -34 73 -10 41 8 -11 22 -19 30
-17z m318 -129 c4 -26 2 -22 -13 16 -27 74 -34 106 -12 59 10 -22 21 -56 25
-75z m-84 31 c6 -11 7 -20 2 -20 -6 0 -12 9 -15 20 -3 11 -3 20 -1 20 2 0 8
-9 14 -20z m-190 -25 c0 -5 -5 -3 -10 5 -5 8 -10 20 -10 25 0 6 5 3 10 -5 5
-8 10 -19 10 -25z"/>
<path d="M5259 3472 c10 -18 1 -117 -11 -138 -4 -5 -3 -16 3 -24 7 -12 9 -11
9 6 0 12 7 38 15 58 13 30 13 44 4 76 -7 22 -16 40 -21 40 -5 0 -4 -8 1 -18z"/>
<path d="M5851 3464 c0 -11 3 -14 6 -6 3 7 2 16 -1 19 -3 4 -6 -2 -5 -13z"/>
<path d="M4343 3390 c-49 -7 -55 -11 -44 -28 6 -10 17 -10 52 2 24 9 52 16 62
16 9 0 17 4 17 9 0 10 -26 10 -87 1z"/>
<path d="M9780 3273 c-14 -2 -32 -6 -40 -10 -22 -8 15 -21 61 -22 19 -1 40 -6
45 -11 6 -6 20 -12 33 -15 29 -5 38 20 16 45 -18 20 -52 23 -115 13z"/>
<path d="M6189 3223 c-11 -27 -22 -60 -23 -75 0 -14 -4 -24 -8 -22 -3 2 -11
-8 -16 -24 -5 -15 -13 -34 -17 -43 -5 -13 -1 -17 17 -17 13 0 32 -3 43 -6 17
-6 23 -1 35 31 8 21 17 42 19 47 2 5 -6 -1 -19 -14 -27 -27 -32 -23 -20 18 5
20 5 30 -1 27 -15 -10 -10 8 11 43 22 36 26 57 9 46 -8 -4 -9 0 -4 15 12 38
-4 22 -26 -26z m-19 -160 c-11 -17 -11 -17 -6 0 3 10 6 24 7 30 0 9 2 9 5 0 3
-7 0 -20 -6 -30z m21 -16 c-10 -9 -11 -8 -5 6 3 10 9 15 12 12 3 -3 0 -11 -7
-18z"/>
<path d="M9688 3263 c7 -3 16 -2 19 1 4 3 -2 6 -13 5 -11 0 -14 -3 -6 -6z"/>
<path d="M4745 3241 c-3 -5 -1 -12 5 -16 5 -3 10 1 10 9 0 18 -6 21 -15 7z"/>
<path d="M4712 3195 c0 -16 2 -22 5 -12 2 9 2 23 0 30 -3 6 -5 -1 -5 -18z"/>
<path d="M5535 3175 c4 -11 9 -32 12 -47 3 -15 10 -25 15 -22 5 3 7 13 4 21
-3 8 -2 12 3 9 5 -3 12 1 15 10 4 11 1 14 -12 9 -13 -4 -23 2 -31 17 -9 18
-10 18 -6 3z"/>
<path d="M5652 3165 c0 -16 2 -22 5 -12 2 9 2 23 0 30 -3 6 -5 -1 -5 -18z"/>
<path d="M9702 3121 c-11 -7 -10 -10 3 -15 28 -10 45 -7 45 9 0 16 -27 20 -48
6z"/>
<path d="M5646 3093 c-6 -14 -5 -15 5 -6 7 7 10 15 7 18 -3 3 -9 -2 -12 -12z"/>
<path d="M6146 2823 c-6 -14 -5 -15 5 -6 7 7 10 15 7 18 -3 3 -9 -2 -12 -12z"/>
<path d="M5061 2814 c0 -11 3 -14 6 -6 3 7 2 16 -1 19 -3 4 -6 -2 -5 -13z"/>
<path d="M6102 2730 c-7 -11 -12 -28 -11 -37 0 -11 7 -5 15 16 17 38 14 50 -4
21z"/>
<path d="M5890 2530 c-55 -6 -55 -6 -15 -11 22 -2 -39 -10 -135 -16 l-175 -11
171 4 c169 4 274 17 274 35 0 10 -32 10 -120 -1z m87 -6 c-3 -3 -12 -4 -19 -1
-8 3 -5 6 6 6 11 1 17 -2 13 -5z"/>
<path d="M14430 1784 c0 -8 5 -12 10 -9 6 4 8 11 5 16 -9 14 -15 11 -15 -7z"/>
<path d="M14384 1734 l-29 -26 35 17 c43 22 43 22 32 29 -5 3 -22 -6 -38 -20z"/>
<path d="M14523 1745 c-9 -10 -5 -22 14 -50 13 -20 27 -34 30 -31 3 3 -4 17
-16 32 -19 24 -20 29 -6 44 11 13 12 17 2 17 -7 0 -18 -6 -24 -12z"/>
<path d="M14572 1691 c4 -13 18 -16 19 -4 0 4 -5 9 -11 12 -7 2 -11 -2 -8 -8z"/>
<path d="M14260 1667 c0 -24 30 -68 41 -61 13 8 11 16 -16 49 -19 23 -25 26
-25 12z"/>
<path d="M14420 1655 c-7 -9 -10 -18 -6 -22 3 -3 6 -1 6 5 0 7 5 11 11 10 6
-2 14 3 16 10 6 17 -12 15 -27 -3z"/>
<path d="M14502 1619 c2 -7 12 -13 21 -15 23 -3 21 3 -4 17 -17 8 -20 8 -17
-2z"/>
<path d="M5894 1614 c-6 -3 -9 -15 -7 -28 4 -17 0 -25 -12 -28 -15 -3 -15 -4
0 -23 13 -16 15 -16 11 -3 -3 12 2 18 17 20 15 2 21 9 19 22 -2 12 1 16 10 10
7 -4 4 2 -6 14 -11 12 -20 22 -20 21 -1 0 -6 -3 -12 -5z"/>
<path d="M5915 1529 c-11 -17 1 -21 15 -4 8 9 8 15 2 15 -6 0 -14 -5 -17 -11z"/>
<path d="M5895 1480 c-3 -5 3 -10 15 -10 12 0 18 5 15 10 -3 6 -10 10 -15 10
-5 0 -12 -4 -15 -10z"/>
<path d="M5878 1443 c7 -3 16 -2 19 1 4 3 -2 6 -13 5 -11 0 -14 -3 -6 -6z"/>
<path d="M5920 1389 c0 -5 5 -7 10 -4 6 3 10 8 10 11 0 2 -4 4 -10 4 -5 0 -10
-5 -10 -11z"/>
<path d="M5880 1375 c0 -8 0 -18 -1 -22 -2 -21 19 -10 23 12 4 17 1 25 -8 25
-8 0 -14 -7 -14 -15z"/>
<path d="M5881 1316 c-7 -9 -8 -17 -2 -20 5 -3 7 -16 3 -28 -3 -13 -1 -19 5
-15 9 6 17 77 8 77 -1 0 -8 -6 -14 -14z"/>
<path d="M9590 1322 c0 -5 10 -17 23 -28 l22 -19 -18 22 c-18 21 -18 21 5 26
21 4 20 4 -4 6 -16 0 -28 -3 -28 -7z"/>
<path d="M5880 1224 c0 -8 5 -12 10 -9 6 3 10 10 10 16 0 5 -4 9 -10 9 -5 0
-10 -7 -10 -16z"/>
<path d="M6874 1214 c-13 -5 -7 -44 6 -44 4 0 13 7 20 15 7 8 20 15 29 15 14
0 14 2 1 10 -16 10 -37 12 -56 4z"/>
<path d="M5920 1154 c0 -8 5 -12 10 -9 6 3 10 10 10 16 0 5 -4 9 -10 9 -5 0
-10 -7 -10 -16z"/>
<path d="M5886 1135 c4 -8 10 -12 15 -9 11 6 2 24 -11 24 -5 0 -7 -7 -4 -15z"/>
<path d="M5868 1086 c-12 -9 -14 -16 -6 -30 6 -11 7 -21 1 -27 -12 -12 -5 -59
8 -59 5 0 9 12 8 28 -1 30 3 52 13 67 12 19 -5 35 -24 21z"/>
<path d="M5915 980 c-3 -5 -2 -10 4 -10 5 0 13 5 16 10 3 6 2 10 -4 10 -5 0
-13 -4 -16 -10z"/>
<path d="M5874 956 c-15 -12 -17 -17 -6 -27 6 -7 13 -10 13 -6 1 4 2 10 3 15
1 4 5 13 9 20 11 16 5 15 -19 -2z"/>
<path d="M5876 901 c-8 -12 3 -41 15 -41 5 0 9 5 9 10 0 6 -4 10 -10 10 -5 0
-7 7 -4 15 7 16 -1 21 -10 6z"/>
<path d="M5915 890 c-3 -5 -2 -10 4 -10 5 0 13 5 16 10 3 6 2 10 -4 10 -5 0
-13 -4 -16 -10z"/>
<path d="M5880 830 c0 -5 5 -10 10 -10 6 0 10 5 10 10 0 6 -4 10 -10 10 -5 0
-10 -4 -10 -10z"/>
<path d="M5900 780 c-9 -6 -10 -10 -3 -10 6 0 15 5 18 10 8 12 4 12 -15 0z"/>
<path d="M5900 709 c0 -5 5 -7 10 -4 6 3 10 8 10 11 0 2 -4 4 -10 4 -5 0 -10
-5 -10 -11z"/>
<path d="M6320 600 c0 -5 9 -10 20 -10 11 0 20 5 20 10 0 6 -9 10 -20 10 -11
0 -20 -4 -20 -10z"/>
<path d="M12425 590 c-3 -5 -17 -8 -31 -6 -14 3 -22 1 -19 -5 4 -5 2 -9 -3 -9
-5 0 -21 -11 -36 -25 -15 -14 -33 -25 -40 -25 -8 0 -17 -7 -20 -16 -3 -9 -12
-14 -20 -11 -17 7 -68 -27 -59 -38 5 -5 -1 -3 -11 5 -13 10 -17 10 -12 3 4 -7
2 -13 -3 -13 -6 0 -20 -9 -31 -20 -11 -11 -27 -20 -36 -20 -8 0 -12 -4 -9 -10
3 -5 2 -10 -4 -10 -5 0 -16 -3 -25 -6 -26 -10 -19 17 19 74 25 37 33 57 27 68
-8 14 -10 14 -21 0 -15 -18 -36 -22 -25 -5 5 8 1 8 -13 0 -11 -6 -22 -8 -25
-6 -3 3 -11 -6 -18 -20 -7 -14 -19 -25 -27 -25 -7 0 -13 -7 -13 -16 0 -8 -4
-13 -9 -9 -5 3 -12 -3 -16 -14 -3 -11 -12 -22 -20 -25 -12 -4 -15 7 -15 62 0
41 -4 62 -9 53 -7 -11 -9 -11 -13 0 -3 8 -24 13 -55 15 -28 1 -57 5 -64 9 -7
5 -10 4 -5 -3 6 -10 -59 -8 -91 3 -7 2 -15 0 -18 -5 -4 -6 -14 -7 -23 -2 -15
7 -57 9 -64 2 -2 -1 -35 -3 -75 -5 -40 -2 -81 -9 -93 -15 -11 -6 -20 -9 -20
-6 0 3 -14 -1 -32 -8 -26 -12 -34 -12 -45 0 -10 9 -41 12 -111 11 -88 -2 -102
-5 -147 -32 -27 -16 -53 -28 -57 -27 -5 1 -8 -4 -8 -11 0 -7 -8 -20 -17 -28
-29 -26 -63 -68 -63 -79 0 -6 -4 -10 -9 -10 -5 0 -13 -9 -16 -20 -4 -12 -15
-28 -25 -38 -20 -19 -96 -163 -92 -175 1 -4 -3 -7 -9 -7 -6 0 -9 -6 -6 -14 3
-8 -1 -17 -9 -20 -8 -3 -14 -11 -14 -17 0 -7 -8 -18 -17 -25 -15 -11 73 -13
533 -14 l551 0 94 68 c52 38 168 120 259 183 232 162 392 278 410 296 8 9 9
13 3 9 -8 -4 -13 -2 -13 6 0 10 -2 10 -8 1 -12 -19 -58 -10 -80 15 -13 14 -23
19 -27 12z"/>
<path d="M6530 560 c0 -5 7 -7 15 -4 8 4 15 8 15 10 0 2 -7 4 -15 4 -8 0 -15
-4 -15 -10z"/>
<path d="M10885 551 c-3 -5 -2 -12 3 -15 5 -3 9 1 9 9 0 17 -3 19 -12 6z"/>
<path d="M10910 544 c0 -8 5 -12 10 -9 6 4 8 11 5 16 -9 14 -15 11 -15 -7z"/>
<path d="M6645 523 c-16 -3 -34 -9 -40 -15 -12 -11 81 0 105 13 16 9 -8 10
-65 2z"/>
<path d="M10845 482 c-12 -8 -48 -62 -41 -62 2 0 16 16 30 35 27 35 29 41 11
27z"/>
<path d="M6782 363 c-10 -4 -9 -10 7 -27 12 -13 32 -68 50 -136 36 -140 54
-193 68 -197 15 -5 -2 103 -21 132 -9 13 -27 67 -40 119 -30 120 -32 122 -64
109z"/>
<path d="M7170 351 c0 -25 14 -41 36 -41 29 0 31 11 6 33 -20 19 -42 22 -42 8z"/>
<path d="M7730 331 c6 -12 15 -21 20 -21 18 0 11 19 -11 30 -19 11 -20 10 -9
-9z"/>
<path d="M10729 333 c-13 -16 -12 -17 4 -4 9 7 17 15 17 17 0 8 -8 3 -21 -13z"/>
<path d="M7046 271 c-3 -4 6 -13 20 -19 23 -11 24 -10 14 8 -11 21 -25 26 -34
11z"/>
<path d="M7770 244 c0 -17 18 -36 30 -32 7 2 4 10 -9 22 -12 11 -21 15 -21 10z"/>
<path d="M7520 235 c0 -5 18 -26 41 -47 26 -24 39 -31 37 -20 -2 9 -13 22 -26
28 -13 6 -29 20 -37 30 -8 11 -15 15 -15 9z"/>
<path d="M8080 227 c12 -12 23 -14 50 -7 l35 8 -32 1 c-17 1 -40 4 -50 7 -16
6 -16 5 -3 -9z"/>
<path d="M7230 224 c0 -7 9 -22 20 -35 25 -31 26 -12 0 21 -11 14 -20 20 -20
14z"/>
<path d="M7086 183 c-6 -7 32 -43 46 -43 11 0 -13 38 -28 44 -7 3 -15 2 -18
-1z"/>
<path d="M8127 129 c18 -35 30 -48 40 -45 8 3 37 6 64 6 28 0 49 5 49 11 0 7
-18 8 -54 4 -47 -6 -56 -4 -75 16 -11 12 -23 31 -27 41 -3 10 -9 18 -14 18 -4
0 3 -23 17 -51z"/>
<path d="M8458 173 c-27 -2 -48 -8 -48 -12 0 -11 40 -21 65 -16 11 2 28 4 38
4 10 1 17 6 15 13 -5 14 -10 15 -70 11z"/>
<path d="M7827 134 c-3 -4 0 -19 9 -35 13 -26 20 -29 62 -28 37 0 43 2 25 9
-12 5 -29 20 -39 34 -15 24 -43 34 -57 20z"/>
<path d="M7611 66 c8 -16 17 -22 30 -19 25 7 24 10 -11 28 -30 15 -30 15 -19
-9z"/>
<path d="M7990 81 c0 -5 9 -7 20 -4 11 3 20 7 20 9 0 2 -9 4 -20 4 -11 0 -20
-4 -20 -9z"/>
<path d="M7360 40 c-13 -8 -12 -10 3 -10 9 0 17 5 17 10 0 12 -1 12 -20 0z"/>
<path d="M7435 30 c3 -5 17 -10 31 -10 13 0 24 5 24 10 0 6 -14 10 -31 10 -17
0 -28 -4 -24 -10z"/>
<path d="M8190 15 c0 -8 7 -15 16 -15 14 0 14 3 4 15 -7 8 -14 15 -16 15 -2 0
-4 -7 -4 -15z"/>
<path d="M8456 22 c-3 -6 -1 -14 5 -17 15 -10 25 3 12 16 -7 7 -13 7 -17 1z"/>
</g>
</svg>
