<svg xmlns="http://www.w3.org/2000/svg" version="1.1" xmlns:xlink="http://www.w3.org/1999/xlink" xmlns:svgjs="http://svgjs.dev/svgjs" width="2000" height="1247" viewBox="0 0 2000 1247"><g transform="matrix(1,0,0,1,-1.2121212121212466,0.5048582995951847)"><svg viewBox="0 0 396 247" data-background-color="#ffffff" preserveAspectRatio="xMidYMid meet" height="1247" width="2000" xmlns="http://www.w3.org/2000/svg" xmlns:xlink="http://www.w3.org/1999/xlink"><g id="tight-bounds" transform="matrix(1,0,0,1,0.2400000000000091,-0.09999999999999432)"><svg viewBox="0 0 395.52 247.2" height="247.2" width="395.52"><g><svg></svg></g><g><svg viewBox="0 0 395.52 247.2" height="247.2" width="395.52"><g transform="matrix(1,0,0,1,80.72201420118346,47.21520000000001)"><svg viewBox="0 0 234.07597159763307 152.76959999999997" height="152.76959999999997" width="234.07597159763307"><g><svg viewBox="0 0 234.07597159763307 152.76959999999997" height="152.76959999999997" width="234.07597159763307"><g><svg viewBox="0 0 234.07597159763307 152.76959999999997" height="152.76959999999997" width="234.07597159763307"><g><svg viewBox="0 0 234.07597159763307 152.76959999999997" height="152.76959999999997" width="234.07597159763307"><g id="textblocktransform"><svg viewBox="0 0 234.07597159763307 152.76959999999997" height="152.76959999999997" width="234.07597159763307" id="textblock"><g><svg viewBox="0 0 234.07597159763307 152.76959999999997" height="152.76959999999997" width="234.07597159763307"><g transform="matrix(1,0,0,1,0,0)"><svg width="234.07597159763307" viewBox="72.63000000000001 -36.5 233.05000000000007 138.4" height="152.76959999999997" data-palette-color="#556970"><svg></svg><svg></svg><svg></svg><g class="wordmark-text-0" data-fill-palette-color="primary" id="text-0"><path d="M77.93 9.3v0c-1.1 0-2.1-0.167-3-0.5-0.9-0.333-1.667-0.867-2.3-1.6v0l2.65-2.95c0.367 0.433 0.817 0.733 1.35 0.9 0.533 0.167 1.083 0.25 1.65 0.25v0c0.667 0 1.34-0.183 2.02-0.55 0.687-0.367 1.28-0.873 1.78-1.52 0.5-0.653 0.833-1.38 1-2.18v0l5.8-27.25h4.4l-5.75 26.95c-0.333 1.633-1 3.093-2 4.38-1 1.28-2.167 2.277-3.5 2.99-1.333 0.72-2.7 1.08-4.1 1.08zM89.88-31l1.2-5.5h4.4l-1.2 5.5zM104.78 0.5v0c-1.933 0-3.6-0.493-5-1.48-1.4-0.98-2.467-2.297-3.2-3.95-0.733-1.647-1.1-3.453-1.1-5.42v0c0-2.1 0.393-4.117 1.18-6.05 0.78-1.933 1.847-3.66 3.2-5.18 1.347-1.513 2.887-2.72 4.62-3.62 1.733-0.9 3.55-1.35 5.45-1.35v0c2 0 3.667 0.55 5 1.65 1.333 1.1 2.267 2.433 2.8 4v0l1.15-5.2h4.4l-4.4 20.7c-0.033 0.133-0.057 0.25-0.07 0.35-0.02 0.1-0.03 0.2-0.03 0.3v0c0 0.6 0.367 0.917 1.1 0.95v0l-0.8 3.8c-0.367 0.033-0.69 0.077-0.97 0.13-0.287 0.047-0.547 0.07-0.78 0.07v0c-0.933 0-1.64-0.217-2.12-0.65-0.487-0.433-0.73-0.967-0.73-1.6v0c0-0.2 0.017-0.433 0.05-0.7 0.033-0.267 0.083-0.583 0.15-0.95 0.067-0.367 0.15-0.767 0.25-1.2v0c-1.3 1.667-2.873 2.983-4.72 3.95-1.853 0.967-3.663 1.45-5.43 1.45zM106.68-3.3v0c0.733 0 1.527-0.15 2.38-0.45 0.847-0.3 1.68-0.717 2.5-1.25 0.813-0.533 1.553-1.16 2.22-1.88 0.667-0.713 1.167-1.47 1.5-2.27v0l1.55-7.5c-0.133-1.133-0.517-2.16-1.15-3.08-0.633-0.913-1.407-1.647-2.32-2.2-0.92-0.547-1.897-0.82-2.93-0.82v0c-1.4 0-2.717 0.34-3.95 1.02-1.233 0.687-2.323 1.597-3.27 2.73-0.953 1.133-1.703 2.39-2.25 3.77-0.553 1.387-0.83 2.78-0.83 4.18v0c0 1.433 0.267 2.733 0.8 3.9 0.533 1.167 1.293 2.1 2.28 2.8 0.98 0.7 2.137 1.05 3.47 1.05zM131.63 0l-4.15-26.1h4.55l2.95 22.25c1.333-1.867 2.583-3.727 3.75-5.58 1.167-1.847 2.233-3.697 3.2-5.55 0.967-1.847 1.827-3.703 2.58-5.57 0.747-1.867 1.353-3.717 1.82-5.55v0h4.2c-1.2 4.333-3.017 8.673-5.45 13.02-2.433 4.353-5.333 8.713-8.7 13.08v0zM160.03 0.5v0c-1.933 0-3.6-0.493-5-1.48-1.4-0.98-2.467-2.297-3.2-3.95-0.733-1.647-1.1-3.453-1.1-5.42v0c0-2.1 0.393-4.117 1.18-6.05 0.78-1.933 1.847-3.66 3.2-5.18 1.347-1.513 2.887-2.72 4.62-3.62 1.733-0.9 3.55-1.35 5.45-1.35v0c2 0 3.667 0.55 5 1.65 1.333 1.1 2.267 2.433 2.8 4v0l1.15-5.2h4.4l-4.4 20.7c-0.033 0.133-0.057 0.25-0.07 0.35-0.02 0.1-0.03 0.2-0.03 0.3v0c0 0.6 0.367 0.917 1.1 0.95v0l-0.8 3.8c-0.367 0.033-0.69 0.077-0.97 0.13-0.287 0.047-0.547 0.07-0.78 0.07v0c-0.933 0-1.64-0.217-2.12-0.65-0.487-0.433-0.73-0.967-0.73-1.6v0c0-0.2 0.017-0.433 0.05-0.7 0.033-0.267 0.083-0.583 0.15-0.95 0.067-0.367 0.15-0.767 0.25-1.2v0c-1.3 1.667-2.873 2.983-4.72 3.95-1.853 0.967-3.663 1.45-5.43 1.45zM161.93-3.3v0c0.733 0 1.527-0.15 2.38-0.45 0.847-0.3 1.68-0.717 2.5-1.25 0.813-0.533 1.553-1.16 2.22-1.88 0.667-0.713 1.167-1.47 1.5-2.27v0l1.55-7.5c-0.133-1.133-0.517-2.16-1.15-3.08-0.633-0.913-1.407-1.647-2.32-2.2-0.92-0.547-1.897-0.82-2.93-0.82v0c-1.4 0-2.717 0.34-3.95 1.02-1.233 0.687-2.323 1.597-3.27 2.73-0.953 1.133-1.703 2.39-2.25 3.77-0.553 1.387-0.83 2.78-0.83 4.18v0c0 1.433 0.267 2.733 0.8 3.9 0.533 1.167 1.293 2.1 2.28 2.8 0.98 0.7 2.137 1.05 3.47 1.05zM188.98 0.5v0c-2.1 0-4.05-0.327-5.85-0.98-1.8-0.647-3.267-1.587-4.4-2.82v0l2.5-2.95c1.2 1.133 2.477 1.973 3.83 2.52 1.347 0.553 2.787 0.83 4.32 0.83v0c1.333 0 2.51-0.193 3.53-0.58 1.013-0.38 1.803-0.93 2.37-1.65 0.567-0.713 0.85-1.537 0.85-2.47v0c0-1.2-0.5-2.027-1.5-2.48-1-0.447-2.483-0.953-4.45-1.52v0c-1.633-0.5-2.99-0.967-4.07-1.4-1.087-0.433-1.887-0.993-2.4-1.68-0.52-0.68-0.78-1.62-0.78-2.82v0c0-1.8 0.5-3.377 1.5-4.73 1-1.347 2.35-2.403 4.05-3.17 1.7-0.767 3.617-1.15 5.75-1.15v0c1.967 0 3.683 0.317 5.15 0.95 1.467 0.633 2.667 1.467 3.6 2.5v0l-2.55 2.65c-0.833-0.967-1.767-1.667-2.8-2.1-1.033-0.433-2.233-0.65-3.6-0.65v0c-1.3 0-2.457 0.173-3.47 0.52-1.02 0.353-1.82 0.88-2.4 1.58-0.587 0.7-0.88 1.567-0.88 2.6v0c0 1.033 0.367 1.76 1.1 2.18 0.733 0.413 2.017 0.87 3.85 1.37v0c1.8 0.5 3.327 1.023 4.58 1.57 1.247 0.553 2.187 1.23 2.82 2.03 0.633 0.8 0.95 1.867 0.95 3.2v0c0 1.633-0.473 3.1-1.42 4.4-0.953 1.3-2.297 2.333-4.03 3.1-1.733 0.767-3.783 1.15-6.15 1.15zM215.03 0.5v0c-2.2 0-4.057-0.5-5.57-1.5-1.52-1-2.68-2.333-3.48-4-0.8-1.667-1.2-3.517-1.2-5.55v0c0-2.1 0.4-4.107 1.2-6.02 0.8-1.92 1.91-3.63 3.33-5.13 1.413-1.5 3.08-2.683 5-3.55 1.913-0.867 3.987-1.3 6.22-1.3v0c2.567 0 4.627 0.573 6.18 1.72 1.547 1.153 2.57 2.697 3.07 4.63v0l-4.55 1.35c-0.4-1.267-1.067-2.233-2-2.9-0.933-0.667-2.083-1-3.45-1v0c-1.333 0-2.623 0.3-3.87 0.9-1.253 0.6-2.37 1.44-3.35 2.52-0.987 1.087-1.77 2.33-2.35 3.73-0.587 1.4-0.88 2.9-0.88 4.5v0c0 1.5 0.267 2.833 0.8 4 0.533 1.167 1.277 2.09 2.23 2.77 0.947 0.687 2.037 1.03 3.27 1.03v0c0.967 0 1.933-0.183 2.9-0.55 0.967-0.367 1.843-0.86 2.63-1.48 0.78-0.613 1.37-1.287 1.77-2.02v0l4.05 1.3c-0.767 1.267-1.773 2.39-3.02 3.37-1.253 0.987-2.647 1.763-4.18 2.33-1.533 0.567-3.117 0.85-4.75 0.85zM230.48 0l5.55-26.1h4.1l-1.3 6.05c1.267-1.8 2.71-3.267 4.33-4.4 1.613-1.133 3.22-1.7 4.82-1.7v0c0.3 0 0.56 0.007 0.78 0.02 0.213 0.02 0.387 0.047 0.52 0.08v0l-0.8 3.8c-2.067 0.033-4.017 0.59-5.85 1.67-1.833 1.087-3.283 2.58-4.35 4.48v0l-3.4 16.1zM248.18 0l5.55-26.1h4.4l-5.55 26.1zM254.78-31l1.15-5.5h4.4l-1.15 5.5zM257.23 10.65l7.8-36.75h3.9l-1.05 4.9c1.333-1.6 2.893-2.893 4.68-3.88 1.78-0.98 3.603-1.47 5.47-1.47v0c1.933 0 3.583 0.5 4.95 1.5 1.367 1 2.417 2.323 3.15 3.97 0.733 1.653 1.1 3.463 1.1 5.43v0c0 2.067-0.383 4.067-1.15 6-0.767 1.933-1.817 3.667-3.15 5.2-1.333 1.533-2.857 2.74-4.57 3.62-1.72 0.887-3.547 1.33-5.48 1.33v0c-2.033 0-3.717-0.533-5.05-1.6-1.333-1.067-2.283-2.417-2.85-4.05v0l-3.35 15.8zM272.33-3.3v0c1.4 0 2.717-0.343 3.95-1.03 1.233-0.68 2.327-1.58 3.28-2.7 0.947-1.113 1.697-2.363 2.25-3.75 0.547-1.38 0.82-2.77 0.82-4.17v0c0-1.433-0.267-2.743-0.8-3.93-0.533-1.18-1.29-2.12-2.27-2.82-0.987-0.7-2.147-1.05-3.48-1.05v0c-0.733 0-1.523 0.15-2.37 0.45-0.853 0.3-1.697 0.723-2.53 1.27-0.833 0.553-1.573 1.18-2.22 1.88-0.653 0.7-1.147 1.45-1.48 2.25v0l-1.6 7.45c0.233 1.133 0.643 2.167 1.23 3.1 0.58 0.933 1.32 1.673 2.22 2.22 0.9 0.553 1.9 0.83 3 0.83zM291.13-3.65v0c0-0.233 0.017-0.477 0.05-0.73 0.033-0.247 0.067-0.487 0.1-0.72v0l3.75-17.55h-3.4l0.75-3.45h3.35l1.85-8.7h4.4l-1.85 8.7h5.55l-0.75 3.45h-5.5l-3.45 16.2c-0.033 0.133-0.057 0.257-0.07 0.37-0.02 0.12-0.03 0.247-0.03 0.38v0c0 0.7 0.217 1.21 0.65 1.53 0.433 0.313 0.967 0.47 1.6 0.47v0c0.567 0 1.11-0.077 1.63-0.23 0.513-0.147 0.97-0.303 1.37-0.47 0.4-0.167 0.7-0.3 0.9-0.4v0l0.25 3.5c-0.4 0.267-0.933 0.533-1.6 0.8-0.667 0.267-1.417 0.477-2.25 0.63-0.833 0.147-1.7 0.22-2.6 0.22v0c-1.333 0-2.45-0.327-3.35-0.98-0.9-0.647-1.35-1.653-1.35-3.02z" fill="#556970" fill-rule="nonzero" stroke="none" stroke-width="1" stroke-linecap="butt" stroke-linejoin="miter" stroke-miterlimit="10" stroke-dasharray="" stroke-dashoffset="0" font-family="none" font-weight="none" font-size="none" text-anchor="none" style="mix-blend-mode: normal" data-fill-palette-color="primary" opacity="1"></path><path d="M108.85 51.2v0c-1.633 0-3.073-0.35-4.32-1.05-1.253-0.7-2.237-1.677-2.95-2.93-0.72-1.247-1.08-2.653-1.08-4.22v0c0-1.6 0.317-3.043 0.95-4.33 0.633-1.28 1.477-2.437 2.53-3.47 1.047-1.033 2.22-1.993 3.52-2.88 1.3-0.88 2.617-1.72 3.95-2.52v0l2.1 2.65c-1.667 0.967-3.157 1.95-4.47 2.95-1.32 1-2.363 2.067-3.13 3.2-0.767 1.133-1.15 2.417-1.15 3.85v0c0 1.667 0.483 2.957 1.45 3.87 0.967 0.92 2.15 1.38 3.55 1.38v0c1.5 0 2.967-0.45 4.4-1.35 1.433-0.9 2.773-2.16 4.02-3.78 1.253-1.613 2.34-3.503 3.26-5.67 0.913-2.167 1.587-4.5 2.02-7v0h3.9c-0.567 3.1-1.467 5.95-2.7 8.55-1.233 2.6-2.7 4.85-4.4 6.75-1.7 1.9-3.523 3.377-5.47 4.43-1.953 1.047-3.947 1.57-5.98 1.57zM123.1 50.7l-12.55-18.35c-0.833-1.233-1.523-2.343-2.07-3.33-0.553-0.98-0.953-1.88-1.2-2.7-0.253-0.813-0.38-1.587-0.38-2.32v0c0-1.733 0.49-3.293 1.47-4.68 0.987-1.38 2.29-2.487 3.91-3.32 1.613-0.833 3.353-1.25 5.22-1.25v0c1.2 0 2.317 0.207 3.35 0.62 1.033 0.42 1.943 1.023 2.73 1.81 0.78 0.78 1.403 1.72 1.87 2.82v0l-3 2.7c-0.467-1.3-1.207-2.393-2.22-3.28-1.02-0.88-2.163-1.32-3.43-1.32v0c-1.033 0-1.983 0.24-2.85 0.72-0.867 0.487-1.567 1.13-2.1 1.93-0.533 0.8-0.8 1.65-0.8 2.55v0c0 0.433 0.083 0.95 0.25 1.55 0.167 0.6 0.467 1.307 0.9 2.12 0.433 0.82 1.05 1.813 1.85 2.98v0l14.5 20.75zM123.25 33.35l0.75-3.45h8.3l-0.75 3.45zM143.6 61.35l7.8-36.75h3.9l-1.05 4.9c1.333-1.6 2.893-2.893 4.68-3.88 1.78-0.98 3.603-1.47 5.47-1.47v0c1.933 0 3.583 0.5 4.95 1.5 1.367 1 2.417 2.323 3.15 3.97 0.733 1.653 1.1 3.463 1.1 5.43v0c0 2.067-0.383 4.067-1.15 6-0.767 1.933-1.817 3.667-3.15 5.2-1.333 1.533-2.857 2.74-4.57 3.62-1.72 0.887-3.547 1.33-5.48 1.33v0c-2.033 0-3.717-0.533-5.05-1.6-1.333-1.067-2.283-2.417-2.85-4.05v0l-3.35 15.8zM158.7 47.4v0c1.4 0 2.717-0.343 3.95-1.03 1.233-0.68 2.327-1.58 3.28-2.7 0.947-1.113 1.697-2.363 2.25-3.75 0.547-1.38 0.82-2.77 0.82-4.17v0c0-1.433-0.267-2.743-0.8-3.93-0.533-1.18-1.29-2.12-2.27-2.82-0.987-0.7-2.147-1.05-3.48-1.05v0c-0.733 0-1.523 0.15-2.37 0.45-0.853 0.3-1.697 0.723-2.53 1.27-0.833 0.553-1.573 1.18-2.22 1.88-0.653 0.7-1.147 1.45-1.48 2.25v0l-1.6 7.45c0.233 1.133 0.643 2.167 1.23 3.1 0.58 0.933 1.32 1.673 2.22 2.22 0.9 0.553 1.9 0.83 3 0.83zM173.6 61.9l-0.6-3.55c1.4-0.2 2.543-0.457 3.43-0.77 0.88-0.32 1.653-0.803 2.32-1.45 0.667-0.653 1.383-1.547 2.15-2.68v0l1.45-2.2-5.05-26.65h4.55l3.6 22.15 1.7-2.8c1.4-2.3 2.583-4.317 3.55-6.05 0.967-1.733 1.793-3.323 2.48-4.77 0.68-1.453 1.253-2.863 1.72-4.23 0.467-1.367 0.9-2.8 1.3-4.3v0h4.35c-0.433 1.6-0.917 3.1-1.45 4.5-0.533 1.4-1.167 2.867-1.9 4.4-0.733 1.533-1.657 3.257-2.77 5.17-1.12 1.92-2.513 4.213-4.18 6.88v0l-4 6.45c-1.133 1.833-2.2 3.377-3.2 4.63-1 1.247-1.99 2.253-2.97 3.02-0.987 0.767-2.003 1.327-3.05 1.68-1.053 0.347-2.197 0.537-3.43 0.57zM202.2 47.05v0c0-0.233 0.017-0.477 0.05-0.73 0.033-0.247 0.067-0.487 0.1-0.72v0l3.75-17.55h-3.4l0.75-3.45h3.35l1.85-8.7h4.4l-1.85 8.7h5.55l-0.75 3.45h-5.5l-3.45 16.2c-0.033 0.133-0.057 0.257-0.07 0.37-0.02 0.12-0.03 0.247-0.03 0.38v0c0 0.7 0.217 1.21 0.65 1.53 0.433 0.313 0.967 0.47 1.6 0.47v0c0.567 0 1.11-0.077 1.63-0.23 0.513-0.147 0.97-0.303 1.37-0.47 0.4-0.167 0.7-0.3 0.9-0.4v0l0.25 3.5c-0.4 0.267-0.933 0.533-1.6 0.8-0.667 0.267-1.417 0.477-2.25 0.63-0.833 0.147-1.7 0.22-2.6 0.22v0c-1.333 0-2.45-0.327-3.35-0.98-0.9-0.647-1.35-1.653-1.35-3.02zM216.95 50.7l7.75-36.5h4.4l-3.4 16c1.367-1.867 3.01-3.343 4.93-4.43 1.913-1.08 3.853-1.62 5.82-1.62v0c1.467 0 2.643 0.273 3.53 0.82 0.88 0.553 1.513 1.313 1.9 2.28 0.38 0.967 0.57 2.1 0.57 3.4v0c0 0.667-0.04 1.373-0.12 2.12-0.087 0.753-0.213 1.53-0.38 2.33v0l-3.3 15.6h-4.4l3.1-14.6c0.133-0.667 0.233-1.277 0.3-1.83 0.067-0.547 0.1-1.07 0.1-1.57v0c0-1.533-0.323-2.683-0.97-3.45-0.653-0.767-1.613-1.15-2.88-1.15v0c-1.033 0-2.14 0.3-3.32 0.9-1.187 0.6-2.303 1.407-3.35 2.42-1.053 1.02-1.897 2.197-2.53 3.53v0l-3.35 15.75zM256.5 51.2v0c-2.333 0-4.267-0.5-5.8-1.5-1.533-1-2.673-2.333-3.42-4-0.753-1.667-1.13-3.5-1.13-5.5v0c0-2.2 0.4-4.267 1.2-6.2 0.8-1.933 1.91-3.643 3.33-5.13 1.413-1.48 3.053-2.637 4.92-3.47 1.867-0.833 3.85-1.25 5.95-1.25v0c2.333 0 4.277 0.5 5.83 1.5 1.547 1 2.703 2.333 3.47 4 0.767 1.667 1.15 3.517 1.15 5.55v0c0 2.167-0.4 4.217-1.2 6.15-0.8 1.933-1.917 3.64-3.35 5.12-1.433 1.487-3.083 2.647-4.95 3.48-1.867 0.833-3.867 1.25-6 1.25zM257.25 47.4v0c1.3 0 2.56-0.283 3.78-0.85 1.213-0.567 2.297-1.377 3.25-2.43 0.947-1.047 1.703-2.27 2.27-3.67 0.567-1.4 0.85-2.933 0.85-4.6v0c0-1.533-0.25-2.893-0.75-4.08-0.5-1.18-1.233-2.113-2.2-2.8-0.967-0.68-2.167-1.02-3.6-1.02v0c-1.3 0-2.55 0.29-3.75 0.87-1.2 0.587-2.283 1.403-3.25 2.45-0.967 1.053-1.733 2.287-2.3 3.7-0.567 1.42-0.85 2.963-0.85 4.63v0c0 1.5 0.25 2.84 0.75 4.02 0.5 1.187 1.243 2.113 2.23 2.78 0.98 0.667 2.17 1 3.57 1zM274.2 50.7l5.55-26.1h4l-1.2 5.6c0.9-1.233 1.977-2.3 3.23-3.2 1.247-0.9 2.587-1.6 4.02-2.1 1.433-0.5 2.867-0.75 4.3-0.75v0c1.4 0 2.517 0.257 3.35 0.77 0.833 0.52 1.433 1.237 1.8 2.15 0.367 0.92 0.55 1.997 0.55 3.23v0c0 0.733-0.057 1.5-0.17 2.3-0.12 0.8-0.263 1.633-0.43 2.5v0l-3.3 15.6h-4.4l3.1-14.6c0.167-0.733 0.283-1.41 0.35-2.03 0.067-0.613 0.1-1.187 0.1-1.72v0c0-1.467-0.3-2.543-0.9-3.23-0.6-0.68-1.483-1.02-2.65-1.02v0c-1.1 0-2.267 0.3-3.5 0.9-1.233 0.6-2.383 1.407-3.45 2.42-1.067 1.02-1.933 2.197-2.6 3.53v0l-3.35 15.75z" fill="#aba944" fill-rule="nonzero" stroke="none" stroke-width="1" stroke-linecap="butt" stroke-linejoin="miter" stroke-miterlimit="10" stroke-dasharray="" stroke-dashoffset="0" font-family="none" font-weight="none" font-size="none" text-anchor="none" style="mix-blend-mode: normal" data-fill-palette-color="accent" opacity="1"></path><path d="M149.05 97.75v0c0-0.233 0.017-0.477 0.05-0.73 0.033-0.247 0.067-0.487 0.1-0.72v0l3.75-17.55h-3.4l0.75-3.45h3.35l1.85-8.7h4.4l-1.85 8.7h5.55l-0.75 3.45h-5.5l-3.45 16.2c-0.033 0.133-0.057 0.257-0.07 0.37-0.02 0.12-0.03 0.247-0.03 0.38v0c0 0.7 0.217 1.21 0.65 1.53 0.433 0.313 0.967 0.47 1.6 0.47v0c0.567 0 1.11-0.077 1.63-0.23 0.513-0.147 0.97-0.303 1.37-0.47 0.4-0.167 0.7-0.3 0.9-0.4v0l0.25 3.5c-0.4 0.267-0.933 0.533-1.6 0.8-0.667 0.267-1.417 0.477-2.25 0.63-0.833 0.147-1.7 0.22-2.6 0.22v0c-1.333 0-2.45-0.327-3.35-0.98-0.9-0.647-1.35-1.653-1.35-3.02zM174.6 101.9v0c-2.167 0-4.017-0.493-5.55-1.48-1.533-0.98-2.7-2.303-3.5-3.97-0.8-1.667-1.2-3.533-1.2-5.6v0c0-2.1 0.393-4.107 1.18-6.02 0.78-1.92 1.887-3.63 3.32-5.13 1.433-1.5 3.11-2.683 5.03-3.55 1.913-0.867 4.003-1.3 6.27-1.3v0c1.7 0 3.21 0.267 4.53 0.8 1.313 0.533 2.337 1.317 3.07 2.35 0.733 1.033 1.1 2.333 1.1 3.9v0c0 2.633-1.167 4.633-3.5 6-2.333 1.367-5.917 2.05-10.75 2.05v0c-0.9 0-1.933-0.027-3.1-0.08-1.167-0.047-2.517-0.137-4.05-0.27v0l0.6-3c1.467 0.067 2.727 0.133 3.78 0.2 1.047 0.067 2.02 0.1 2.92 0.1v0c2.533 0 4.533-0.217 6-0.65 1.467-0.433 2.527-1.033 3.18-1.8 0.647-0.767 0.97-1.633 0.97-2.6v0c0-0.867-0.207-1.567-0.62-2.1-0.42-0.533-1.003-0.933-1.75-1.2-0.753-0.267-1.647-0.4-2.68-0.4v0c-1.667 0-3.173 0.35-4.52 1.05-1.353 0.7-2.52 1.65-3.5 2.85-0.987 1.2-1.737 2.557-2.25 4.07-0.52 1.52-0.78 3.097-0.78 4.73v0c0 1.367 0.233 2.64 0.7 3.82 0.467 1.187 1.183 2.137 2.15 2.85 0.967 0.72 2.183 1.08 3.65 1.08v0c1.533 0 3.033-0.393 4.5-1.18 1.467-0.78 2.617-1.837 3.45-3.17v0l3.55 1.05c-0.8 1.267-1.85 2.4-3.15 3.4-1.3 1-2.723 1.783-4.27 2.35-1.553 0.567-3.147 0.85-4.78 0.85zM199.2 101.9v0c-2.1 0-4.05-0.327-5.85-0.98-1.8-0.647-3.267-1.587-4.4-2.82v0l2.5-2.95c1.2 1.133 2.477 1.973 3.83 2.52 1.347 0.553 2.787 0.83 4.32 0.83v0c1.333 0 2.51-0.193 3.53-0.58 1.013-0.38 1.803-0.93 2.37-1.65 0.567-0.713 0.85-1.537 0.85-2.47v0c0-1.2-0.5-2.027-1.5-2.48-1-0.447-2.483-0.953-4.45-1.52v0c-1.633-0.5-2.993-0.967-4.08-1.4-1.08-0.433-1.88-0.993-2.4-1.68-0.513-0.68-0.77-1.62-0.77-2.82v0c0-1.8 0.5-3.377 1.5-4.73 1-1.347 2.35-2.403 4.05-3.17 1.7-0.767 3.617-1.15 5.75-1.15v0c1.967 0 3.683 0.317 5.15 0.95 1.467 0.633 2.667 1.467 3.6 2.5v0l-2.55 2.65c-0.833-0.967-1.767-1.667-2.8-2.1-1.033-0.433-2.233-0.65-3.6-0.65v0c-1.3 0-2.457 0.173-3.47 0.52-1.02 0.353-1.82 0.88-2.4 1.58-0.587 0.7-0.88 1.567-0.88 2.6v0c0 1.033 0.367 1.76 1.1 2.18 0.733 0.413 2.017 0.87 3.85 1.37v0c1.8 0.5 3.327 1.023 4.58 1.57 1.247 0.553 2.187 1.23 2.82 2.03 0.633 0.8 0.95 1.867 0.95 3.2v0c0 1.633-0.473 3.1-1.42 4.4-0.953 1.3-2.297 2.333-4.03 3.1-1.733 0.767-3.783 1.15-6.15 1.15zM212.15 101.4l0.6-2.85 19.7-20.05h-15l0.7-3.2h19.9l-0.6 2.85-19.6 20.05h15.4l-0.7 3.2zM239.8 97.75v0c0-0.233 0.017-0.477 0.05-0.73 0.033-0.247 0.067-0.487 0.1-0.72v0l3.75-17.55h-3.4l0.75-3.45h3.35l1.85-8.7h4.4l-1.85 8.7h5.55l-0.75 3.45h-5.5l-3.45 16.2c-0.033 0.133-0.06 0.257-0.08 0.37-0.013 0.12-0.02 0.247-0.02 0.38v0c0 0.7 0.217 1.21 0.65 1.53 0.433 0.313 0.967 0.47 1.6 0.47v0c0.567 0 1.11-0.077 1.63-0.23 0.513-0.147 0.97-0.303 1.37-0.47 0.4-0.167 0.7-0.3 0.9-0.4v0l0.25 3.5c-0.4 0.267-0.933 0.533-1.6 0.8-0.667 0.267-1.417 0.477-2.25 0.63-0.833 0.147-1.7 0.22-2.6 0.22v0c-1.333 0-2.45-0.327-3.35-0.98-0.9-0.647-1.35-1.653-1.35-3.02z" fill="#556970" fill-rule="nonzero" stroke="none" stroke-width="1" stroke-linecap="butt" stroke-linejoin="miter" stroke-miterlimit="10" stroke-dasharray="" stroke-dashoffset="0" font-family="none" font-weight="none" font-size="none" text-anchor="none" style="mix-blend-mode: normal" data-fill-palette-color="primary" opacity="1"></path></g></svg></g></svg></g></svg></g></svg></g></svg></g></svg></g></svg></g><g><path d="M240.638 0c68.262 0 123.6 55.338 123.6 123.6 0 68.262-55.338 123.6-123.6 123.6-36.78 0-69.807-16.065-92.449-41.56h2.91c22.201 24.217 54.097 39.4 89.539 39.4 67.069 0 121.44-54.37 121.44-121.44 0-67.069-54.37-121.44-121.44-121.44-35.442 0-67.338 15.183-89.539 39.4l-2.91 0c22.641-25.495 55.669-41.56 92.449-41.56z" fill="#556970" stroke="transparent" data-fill-palette-color="tertiary"></path></g></svg></g><defs></defs></svg><rect width="395.52" height="247.2" fill="none" stroke="none" visibility="hidden"></rect></g></svg></g></svg>