<svg xmlns="http://www.w3.org/2000/svg" version="1.1" xmlns:xlink="http://www.w3.org/1999/xlink" xmlns:svgjs="http://svgjs.dev/svgjs" width="2000" height="2250" viewBox="0 0 2000 2250"><g transform="matrix(1,0,0,1,3.410605131648481e-13,0)"><svg viewBox="0 0 320 360" data-background-color="#ffffff" preserveAspectRatio="xMidYMid meet" height="2250" width="2000" xmlns="http://www.w3.org/2000/svg" xmlns:xlink="http://www.w3.org/1999/xlink"><g id="tight-bounds" transform="matrix(1,0,0,1,0,0)"><svg viewBox="0 0 320 360" height="360" width="320"><g><svg></svg></g><g><svg viewBox="0 0 320 360" height="360" width="320"><g><path d="M20.961 227.22l3.726 4.658-1.863-6.056c-0.466-2.795-3.726 0.466-1.863 1.398M25.153 224.425c1.397 2.329 2.795 4.658 2.795 6.987 0 3.261 2.795 4.658 5.123 5.589-3.261-3.726-5.124-13.974-7.918-12.576M204.017 26.929c7.918 0 15.371-0.932 23.756 0.931 20.495 5.124 37.729 15.371 49.374 29.811l32.606 52.169c1.397 13.042 4.192 27.482 3.726 43.319 3.261 0 2.795-4.658 6.521-5.59-3.726 9.316-5.59 20.961-6.521 34.469-2.329-7.453 0-18.632 0.466-24.687-3.261 5.124-5.124 1.397-5.124-0.932 0.466-3.726-1.397-3.261-2.795-4.658-5.124-4.658-8.384-9.782-12.11-17.7 2.329-6.055 2.795-14.905-4.658-19.563-2.329-1.397-5.124-3.726-6.521-7.453-1.863-5.124-5.124-11.179-4.193-19.097 0.466-2.329-6.987 5.124-11.179 1.863-18.166-12.576-36.332-27.016-58.224-39.127-11.645 0-20.029-4.192-24.221-9.316-3.726-4.658-0.932-10.713 4.658-11.179 3.261 0 6.987-0.932 9.782 0.932 0.466-1.863 2.329-4.192 4.657-4.192M157.904 16.215l0.932 0.466c4.658 0.932 6.987 7.453 12.11 5.124 0 3.261 0.466 6.521-0.466 8.85-1.397 3.726-5.59 3.726-8.85 3.726-31.208-1.863-49.374 11.179-68.471 22.358-5.124 3.261-10.713 5.59-14.906 9.782-20.029 18.632-41.921 35.866-47.045 70.335l-4.192 38.195c-0.466 4.192-5.124 8.384-4.192 13.508l3.26 22.824c-3.261-3.261-5.124 0.932-4.192 2.795 0.466 1.397 2.329 6.055 5.124 1.863 3.726 6.987 7.453 20.495 12.576 26.55 15.837 18.632 36.332 35.4 53.101 52.169 4.192-0.932 7.453-0.932 8.384-3.727 1.397 2.795-1.397 5.59-3.726 6.056 7.453 4.658 15.837 8.85 27.016 9.781 14.44 0.932 27.948 3.261 40.524 6.522 6.521-1.863 13.042-2.795 20.029-3.261 2.329 0 3.726-3.726 6.521-4.658l0.466-4.658c2.795 4.192 2.329-1.397 0.466-4.192 3.261 2.795 4.192 5.124 5.589 6.987 0-1.397 3.726-6.521 3.727-0.466l0.931-6.055c1.397-0.932 1.863 5.124 3.261 0.931 1.397-4.192 4.192-0.932 6.987-2.329-0.932 1.863-0.466 5.59 2.794 3.261l3.727-3.261c2.329 5.59 6.055 3.261 7.918 2.329 20.495-13.042 40.99-28.413 60.553-43.784l-0.466 6.055 2.329-7.453c2.329 2.329 4.192 0.466 5.124-0.931 2.795-4.658 6.521-9.316 12.577-13.508-7.453 20.029-16.303 35.866-27.482 48.908l-4.658 5.59c0 3.261-0.932 7.453-4.658 7.918-1.863 0.466-5.59-0.932-8.384 1.863-1.397 1.863 3.261 5.59-0.466 2.795-3.261-2.329-6.521 0-10.248 0.932-2.795 0.932 1.863 3.726 2.795 5.589 0.932 1.863 1.863 3.726 1.398 6.056l-5.124-5.59c-6.055 3.261-9.782 9.316-14.906 13.974-2.329 1.863-1.397 5.124-1.397 7.918-3.261 0-6.987-0.932-8.85 0.932-1.397 1.863-0.932 4.658-0.932 7.453-4.658-0.466-5.124-7.453-9.315-6.056-4.192 0.932-8.85 1.397-12.577 3.727 2.795 5.59-4.658 2.329-3.726 3.26-6.987-4.192-13.042-7.453-20.495-4.658-15.837-5.124-35.4-2.795-49.84-0.931 0-2.329 0.466-4.658-0.466-5.124-0.932 2.329-3.726 1.397-3.26 1.397-8.85-6.055-17.7-9.782-27.016-14.905-8.384 0.932-16.303-3.261-18.632-5.59-6.521-6.055-13.974-2.795-20.029-4.192-13.042-3.261-17.7-16.769-19.098-26.084-0.932-4.658-4.658-6.521-6.055-6.056-6.055-19.563-15.371-37.263-22.824-55.429-1.863-4.658-1.397-9.316-1.397-14.44 2.329 0.932 4.658 0.466 4.192-2.794-2.329-15.371-7.918-27.016-13.974-38.195 3.261-15.837 3.726-34.469 11.179-48.443 6.521-12.576 18.632-19.098 27.016-29.811 2.795-3.726 2.795-8.85 5.59-12.11 9.316-9.316 18.632-19.098 28.879-27.482 4.658-3.726 10.247 0 17.234-1.397 2.329-8.384 11.645-15.837 20.495-13.508 3.726 0.932 11.179-8.85 13.508-9.782 3.726-1.397 1.863 3.726 1.863 6.987 8.85-6.987 20.961-10.713 32.14-14.906" fill="#336a86" fill-rule="nonzero" stroke="none" stroke-width="1" stroke-linecap="butt" stroke-linejoin="miter" stroke-miterlimit="10" stroke-dasharray="" stroke-dashoffset="0" font-family="none" font-weight="none" font-size="none" text-anchor="none" style="mix-blend-mode: normal" data-fill-palette-color="tertiary"></path></g><g transform="matrix(1,0,0,1,64,135.65090314671025)"><svg viewBox="0 0 192 88.69819370657949" height="88.69819370657949" width="192"><g><svg viewBox="0 0 192 88.69819370657949" height="88.69819370657949" width="192"><g><svg viewBox="0 0 192 88.69819370657949" height="88.69819370657949" width="192"><g><svg viewBox="0 0 192 88.69819370657949" height="88.69819370657949" width="192"><g id="textblocktransform"><svg viewBox="0 0 192 88.69819370657949" height="88.69819370657949" width="192" id="textblock"><g><svg viewBox="0 0 192 88.69819370657949" height="88.69819370657949" width="192"><g transform="matrix(1,0,0,1,0,0)"><svg width="192" viewBox="98.78 -37.77000000000001 238.96999999999994 106.06000000000003" height="88.69819370657949" data-palette-color="#336a86"><svg></svg><svg></svg><g class="wordmark-text-0" data-fill-palette-color="primary" id="text-0"><path d="M100.39 13.62l-1.61-2.37c1.107-0.893 2.013-1.86 2.72-2.9 0.713-1.04 1.27-2.123 1.67-3.25 0.393-1.12 0.663-2.26 0.81-3.42 0.147-1.153 0.22-2.29 0.22-3.41v0-24.15h5.94v22.85c0 1.58-0.16 3.163-0.48 4.75-0.32 1.587-0.853 3.113-1.6 4.58-0.747 1.467-1.743 2.827-2.99 4.08-1.247 1.253-2.807 2.333-4.68 3.24zM107.13-30.98v0c-0.52 0-0.997-0.087-1.43-0.26-0.427-0.167-0.797-0.397-1.11-0.69-0.307-0.293-0.55-0.643-0.73-1.05-0.18-0.407-0.27-0.847-0.27-1.32v0c0-0.487 0.093-0.94 0.28-1.36 0.187-0.413 0.447-0.78 0.78-1.1 0.333-0.313 0.727-0.56 1.18-0.74 0.447-0.18 0.93-0.27 1.45-0.27v0c0.507 0 0.973 0.09 1.4 0.27 0.433 0.18 0.803 0.42 1.11 0.72 0.313 0.3 0.553 0.657 0.72 1.07 0.173 0.42 0.26 0.863 0.26 1.33v0c0 0.493-0.093 0.947-0.28 1.36-0.187 0.413-0.447 0.77-0.78 1.07-0.333 0.307-0.72 0.543-1.16 0.71-0.44 0.173-0.913 0.26-1.42 0.26zM132.25-3.81v0c-0.42 0.36-0.927 0.787-1.52 1.28-0.593 0.5-1.253 0.973-1.98 1.42-0.727 0.447-1.517 0.823-2.37 1.13-0.853 0.313-1.75 0.47-2.69 0.47v0c-0.967 0-1.86-0.177-2.68-0.53-0.82-0.347-1.537-0.833-2.15-1.46-0.607-0.627-1.087-1.377-1.44-2.25-0.347-0.867-0.52-1.83-0.52-2.89v0c0-1.107 0.223-2.19 0.67-3.25 0.447-1.053 1.197-1.997 2.25-2.83 1.047-0.827 2.433-1.497 4.16-2.01 1.727-0.513 3.857-0.77 6.39-0.77v0h1.79v-2c0-0.72-0.123-1.363-0.37-1.93-0.247-0.573-0.587-1.063-1.02-1.47-0.44-0.407-0.967-0.717-1.58-0.93-0.607-0.207-1.287-0.31-2.04-0.31v0c-0.587 0-1.213 0.067-1.88 0.2-0.667 0.14-1.327 0.333-1.98 0.58-0.647 0.24-1.28 0.527-1.9 0.86-0.62 0.333-1.173 0.697-1.66 1.09v0l-0.44-0.24-1.12-4.1c1.967-1.027 3.797-1.72 5.49-2.08 1.693-0.36 3.28-0.54 4.76-0.54v0c1.533 0 2.897 0.157 4.09 0.47 1.2 0.307 2.213 0.78 3.04 1.42 0.833 0.647 1.463 1.463 1.89 2.45 0.433 0.98 0.65 2.147 0.65 3.5v0 11.96c0 0.247 0.02 0.517 0.06 0.81 0.04 0.293 0.12 0.57 0.24 0.83 0.127 0.26 0.307 0.48 0.54 0.66 0.24 0.18 0.553 0.27 0.94 0.27v0c0.227 0 0.503-0.033 0.83-0.1 0.327-0.067 0.653-0.173 0.98-0.32v0 2.93c-0.88 0.6-1.757 1.08-2.63 1.44-0.867 0.36-1.717 0.54-2.55 0.54v0c-0.647 0-1.207-0.123-1.68-0.37-0.473-0.24-0.873-0.56-1.2-0.96-0.327-0.4-0.6-0.857-0.82-1.37-0.22-0.513-0.403-1.047-0.55-1.6zM132.16-6.96v-5.66h-1.54c-1.693 0-3.057 0.117-4.09 0.35-1.033 0.24-1.837 0.567-2.41 0.98-0.567 0.413-0.943 0.893-1.13 1.44-0.187 0.547-0.28 1.137-0.28 1.77v0c0 0.667 0.097 1.253 0.29 1.76 0.193 0.5 0.46 0.923 0.8 1.27 0.333 0.34 0.727 0.6 1.18 0.78 0.453 0.18 0.94 0.27 1.46 0.27v0c0.393 0 0.8-0.047 1.22-0.14 0.427-0.087 0.873-0.243 1.34-0.47 0.46-0.233 0.95-0.537 1.47-0.91 0.52-0.373 1.083-0.853 1.69-1.44zM152.4 0l-9.26-25.88h6.55l5.1 16.9 1.05 4.49h0.49l1-4.49 5.17-16.9h5.59l-9.27 25.88zM187.16-3.81v0c-0.42 0.36-0.927 0.787-1.52 1.28-0.6 0.5-1.26 0.973-1.98 1.42-0.727 0.447-1.517 0.823-2.37 1.13-0.853 0.313-1.753 0.47-2.7 0.47v0c-0.96 0-1.85-0.177-2.67-0.53-0.82-0.347-1.537-0.833-2.15-1.46-0.607-0.627-1.087-1.377-1.44-2.25-0.347-0.867-0.52-1.83-0.52-2.89v0c0-1.107 0.223-2.19 0.67-3.25 0.447-1.053 1.193-1.997 2.24-2.83 1.053-0.827 2.443-1.497 4.17-2.01 1.72-0.513 3.85-0.77 6.39-0.77v0h1.78v-2c0-0.72-0.12-1.363-0.36-1.93-0.247-0.573-0.59-1.063-1.03-1.47-0.44-0.407-0.963-0.717-1.57-0.93-0.613-0.207-1.293-0.31-2.04-0.31v0c-0.587 0-1.213 0.067-1.88 0.2-0.667 0.14-1.327 0.333-1.98 0.58-0.647 0.24-1.28 0.527-1.9 0.86-0.62 0.333-1.173 0.697-1.66 1.09v0l-0.44-0.24-1.13-4.1c1.973-1.027 3.807-1.72 5.5-2.08 1.693-0.36 3.28-0.54 4.76-0.54v0c1.527 0 2.89 0.157 4.09 0.47 1.193 0.307 2.207 0.78 3.04 1.42 0.827 0.647 1.457 1.463 1.89 2.45 0.433 0.98 0.65 2.147 0.65 3.5v0 11.96c0 0.247 0.02 0.517 0.06 0.81 0.04 0.293 0.12 0.57 0.24 0.83 0.12 0.26 0.3 0.48 0.54 0.66 0.233 0.18 0.547 0.27 0.94 0.27v0c0.227 0 0.503-0.033 0.83-0.1 0.327-0.067 0.653-0.173 0.98-0.32v0 2.93c-0.88 0.6-1.757 1.08-2.63 1.44-0.873 0.36-1.723 0.54-2.55 0.54v0c-0.653 0-1.213-0.123-1.68-0.37-0.473-0.24-0.873-0.56-1.2-0.96-0.327-0.4-0.6-0.857-0.82-1.37-0.22-0.513-0.403-1.047-0.55-1.6zM187.06-6.96v-5.66h-1.53c-1.693 0-3.057 0.117-4.09 0.35-1.033 0.24-1.837 0.567-2.41 0.98-0.567 0.413-0.943 0.893-1.13 1.44-0.187 0.547-0.28 1.137-0.28 1.77v0c0 0.667 0.097 1.253 0.29 1.76 0.193 0.5 0.457 0.923 0.79 1.27 0.333 0.34 0.73 0.6 1.19 0.78 0.453 0.18 0.94 0.27 1.46 0.27v0c0.393 0 0.8-0.047 1.22-0.14 0.427-0.087 0.87-0.243 1.33-0.47 0.467-0.233 0.96-0.537 1.48-0.91 0.52-0.373 1.08-0.853 1.68-1.44zM200.47-1.22l1.05-4.44 0.44-0.27c0.633 0.34 1.297 0.65 1.99 0.93 0.687 0.273 1.373 0.503 2.06 0.69 0.68 0.187 1.347 0.33 2 0.43 0.653 0.093 1.263 0.14 1.83 0.14v0c1.48 0 2.64-0.307 3.48-0.92 0.84-0.62 1.26-1.41 1.26-2.37v0c0-0.653-0.193-1.19-0.58-1.61-0.38-0.427-0.883-0.79-1.51-1.09-0.627-0.3-1.337-0.563-2.13-0.79-0.8-0.227-1.62-0.467-2.46-0.72-0.84-0.253-1.657-0.543-2.45-0.87-0.8-0.327-1.513-0.74-2.14-1.24-0.627-0.507-1.13-1.123-1.51-1.85-0.387-0.72-0.58-1.61-0.58-2.67v0c0-1.187 0.257-2.303 0.77-3.35 0.513-1.04 1.247-1.937 2.2-2.69 0.953-0.76 2.11-1.36 3.47-1.8 1.36-0.44 2.883-0.66 4.57-0.66v0c0.427 0 0.92 0.017 1.48 0.05 0.56 0.033 1.147 0.087 1.76 0.16 0.613 0.073 1.227 0.167 1.84 0.28 0.62 0.113 1.2 0.26 1.74 0.44v0l-1.08 4.37-0.53 0.32c-0.493-0.247-1.02-0.46-1.58-0.64-0.56-0.18-1.12-0.32-1.68-0.42-0.567-0.107-1.113-0.19-1.64-0.25-0.527-0.053-0.993-0.08-1.4-0.08v0c-1.433 0-2.553 0.283-3.36 0.85-0.807 0.573-1.21 1.34-1.21 2.3v0c0 0.667 0.197 1.213 0.59 1.64 0.387 0.433 0.893 0.8 1.52 1.1 0.627 0.3 1.347 0.56 2.16 0.78 0.813 0.22 1.64 0.457 2.48 0.71 0.84 0.253 1.667 0.543 2.48 0.87 0.813 0.327 1.533 0.74 2.16 1.24 0.627 0.507 1.137 1.127 1.53 1.86 0.387 0.733 0.58 1.637 0.58 2.71v0c0 1.207-0.26 2.333-0.78 3.38-0.52 1.047-1.26 1.953-2.22 2.72-0.96 0.767-2.117 1.37-3.47 1.81-1.347 0.44-2.843 0.66-4.49 0.66v0c-1.353 0-2.787-0.147-4.3-0.44-1.513-0.293-2.96-0.717-4.34-1.27zM245.29-5.32v2.95c-1.153 0.927-2.44 1.637-3.86 2.13-1.413 0.487-2.933 0.73-4.56 0.73v0c-1.827 0-3.47-0.307-4.93-0.92-1.467-0.607-2.713-1.453-3.74-2.54-1.027-1.08-1.817-2.373-2.37-3.88-0.553-1.507-0.83-3.163-0.83-4.97v0c0-2.127 0.377-4.083 1.13-5.87 0.747-1.78 1.767-3.313 3.06-4.6 1.293-1.287 2.82-2.287 4.58-3 1.753-0.72 3.64-1.08 5.66-1.08v0c0.44 0 0.913 0.02 1.42 0.06 0.507 0.04 1.023 0.103 1.55 0.19 0.527 0.08 1.047 0.19 1.56 0.33 0.513 0.133 0.99 0.3 1.43 0.5v0l-1.05 4.54-0.51 0.24c-0.293-0.213-0.64-0.42-1.04-0.62-0.4-0.207-0.827-0.383-1.28-0.53-0.46-0.147-0.933-0.263-1.42-0.35-0.487-0.087-0.967-0.13-1.44-0.13v0c-1.04 0-2.013 0.203-2.92 0.61-0.9 0.407-1.687 1-2.36 1.78-0.68 0.78-1.213 1.737-1.6 2.87-0.393 1.127-0.59 2.407-0.59 3.84v0c0 1.5 0.213 2.81 0.64 3.93 0.42 1.127 1.003 2.067 1.75 2.82 0.753 0.76 1.64 1.33 2.66 1.71 1.027 0.387 2.143 0.58 3.35 0.58v0c0.747 0 1.6-0.09 2.56-0.27 0.96-0.18 2.01-0.53 3.15-1.05zM252.01 0v-25.88h4.78l0.83 7.72c0.227-0.427 0.463-0.863 0.71-1.31 0.24-0.447 0.483-0.877 0.73-1.29 0.247-0.42 0.473-0.8 0.68-1.14 0.213-0.34 0.393-0.623 0.54-0.85v0c0.34-0.507 0.727-0.983 1.16-1.43 0.433-0.447 0.903-0.83 1.41-1.15 0.5-0.32 1.043-0.573 1.63-0.76 0.587-0.187 1.223-0.28 1.91-0.28v0c0.467 0 0.937 0.057 1.41 0.17 0.473 0.113 0.873 0.293 1.2 0.54v0l-0.64 5.45c-0.293-0.087-0.633-0.14-1.02-0.16-0.393-0.027-0.743-0.04-1.05-0.04v0c-1.04 0-1.97 0.15-2.79 0.45-0.813 0.3-1.547 0.717-2.2 1.25-0.66 0.527-1.263 1.147-1.81 1.86-0.547 0.72-1.073 1.493-1.58 2.32v0 14.53zM274.52 0v-25.88h5.93v25.88zM277.47-30.98v0c-0.52 0-0.997-0.087-1.43-0.26-0.433-0.167-0.807-0.397-1.12-0.69-0.32-0.293-0.563-0.643-0.73-1.05-0.173-0.407-0.26-0.847-0.26-1.32v0c0-0.487 0.093-0.94 0.28-1.36 0.187-0.413 0.447-0.78 0.78-1.1 0.333-0.313 0.723-0.56 1.17-0.74 0.447-0.18 0.933-0.27 1.46-0.27v0c0.5 0 0.963 0.09 1.39 0.27 0.42 0.18 0.787 0.42 1.1 0.72 0.307 0.3 0.55 0.657 0.73 1.07 0.18 0.42 0.27 0.863 0.27 1.33v0c0 0.493-0.093 0.947-0.28 1.36-0.187 0.413-0.447 0.77-0.78 1.07-0.34 0.307-0.727 0.543-1.16 0.71-0.44 0.173-0.913 0.26-1.42 0.26zM294.56-18.46v13.7c0.407 0.193 0.843 0.357 1.31 0.49 0.46 0.127 0.91 0.23 1.35 0.31 0.44 0.087 0.863 0.147 1.27 0.18 0.407 0.027 0.757 0.04 1.05 0.04v0c1.253 0 2.383-0.247 3.39-0.74 1.013-0.493 1.877-1.17 2.59-2.03 0.72-0.853 1.27-1.85 1.65-2.99 0.38-1.14 0.57-2.36 0.57-3.66v0c0-1.22-0.157-2.36-0.47-3.42-0.32-1.053-0.763-1.973-1.33-2.76-0.573-0.78-1.267-1.393-2.08-1.84-0.813-0.447-1.707-0.67-2.68-0.67v0c-1.173 0-2.327 0.313-3.46 0.94-1.133 0.627-2.187 1.443-3.16 2.45zM293.39-25.88l0.88 4.35c0.587-0.553 1.22-1.117 1.9-1.69 0.687-0.567 1.423-1.083 2.21-1.55 0.787-0.46 1.633-0.843 2.54-1.15 0.9-0.3 1.863-0.45 2.89-0.45v0c1.58 0 2.993 0.347 4.24 1.04 1.247 0.693 2.3 1.613 3.16 2.76 0.86 1.147 1.523 2.463 1.99 3.95 0.467 1.493 0.7 3.03 0.7 4.61v0c0 2.08-0.383 4.007-1.15 5.78-0.767 1.773-1.81 3.307-3.13 4.6-1.313 1.3-2.86 2.31-4.64 3.03-1.773 0.727-3.66 1.09-5.66 1.09v0c-0.393 0-0.803-0.013-1.23-0.04-0.433-0.02-0.857-0.057-1.27-0.11-0.42-0.047-0.823-0.107-1.21-0.18-0.393-0.073-0.743-0.16-1.05-0.26v0 13.19h-5.91v-38.97zM322.68-7.15v-14.51h-5.2l0.44-2.78c1.287-0.327 2.317-0.693 3.09-1.1 0.773-0.407 1.417-0.907 1.93-1.5 0.513-0.593 0.96-1.317 1.34-2.17 0.387-0.853 0.83-1.89 1.33-3.11v0h2.84v6.44h9.3l-1.05 4.22h-8.08v13.33c0 0.8 0.113 1.473 0.34 2.02 0.227 0.547 0.553 0.99 0.98 1.33 0.42 0.34 0.927 0.587 1.52 0.74 0.593 0.16 1.267 0.24 2.02 0.24v0c0.713 0 1.423-0.067 2.13-0.2 0.707-0.127 1.38-0.313 2.02-0.56v0 2.98c-1.107 0.747-2.293 1.31-3.56 1.69-1.26 0.387-2.533 0.58-3.82 0.58v0c-2.453 0-4.327-0.667-5.62-2-1.3-1.34-1.95-3.22-1.95-5.64z" fill="#336a86" fill-rule="nonzero" stroke="none" stroke-width="1" stroke-linecap="butt" stroke-linejoin="miter" stroke-miterlimit="10" stroke-dasharray="" stroke-dashoffset="0" font-family="none" font-weight="none" font-size="none" text-anchor="none" style="mix-blend-mode: normal" data-fill-palette-color="primary" opacity="1"></path><path d="M135.47 26.07v0c0 0.98-0.17 1.953-0.51 2.92-0.347 0.967-0.847 1.917-1.5 2.85-0.66 0.927-1.483 1.817-2.47 2.67-0.987 0.853-2.113 1.64-3.38 2.36v0c0.62 0.713 1.22 1.38 1.8 2 0.587 0.613 1.187 1.227 1.8 1.84 0.607 0.613 1.237 1.233 1.89 1.86 0.653 0.627 1.363 1.297 2.13 2.01v0c0.873-1.333 1.583-2.72 2.13-4.16 0.547-1.44 0.973-2.843 1.28-4.21v0h4.57c-0.573 1.967-1.273 3.85-2.1 5.65-0.833 1.8-1.713 3.463-2.64 4.99v0c1.107 0.913 2.18 1.74 3.22 2.48 1.047 0.74 2.163 1.483 3.35 2.23v0l-2.86 4.18c-1.167-0.733-2.297-1.483-3.39-2.25-1.093-0.767-2.193-1.62-3.3-2.56v0c-1.4 1.513-2.977 2.683-4.73 3.51-1.76 0.833-3.797 1.25-6.11 1.25v0c-1.72 0-3.29-0.23-4.71-0.69-1.413-0.453-2.63-1.083-3.65-1.89-1.013-0.807-1.797-1.767-2.35-2.88-0.553-1.113-0.83-2.32-0.83-3.62v0c0-1.16 0.21-2.227 0.63-3.2 0.427-0.98 1.003-1.887 1.73-2.72 0.733-0.84 1.587-1.62 2.56-2.34 0.967-0.713 1.987-1.397 3.06-2.05v0c-0.62-0.7-1.197-1.407-1.73-2.12-0.54-0.713-1.017-1.443-1.43-2.19-0.413-0.74-0.74-1.49-0.98-2.25-0.233-0.767-0.35-1.557-0.35-2.37v0c0-1.187 0.263-2.297 0.79-3.33 0.527-1.033 1.257-1.927 2.19-2.68 0.927-0.747 2.023-1.337 3.29-1.77 1.273-0.427 2.65-0.64 4.13-0.64v0c1.287 0 2.45 0.167 3.49 0.5 1.04 0.333 1.93 0.803 2.67 1.41 0.74 0.613 1.31 1.363 1.71 2.25 0.4 0.887 0.6 1.873 0.6 2.96zM132.49 48.61v0c-0.813-0.78-1.593-1.527-2.34-2.24-0.753-0.707-1.493-1.427-2.22-2.16-0.733-0.727-1.467-1.49-2.2-2.29-0.733-0.8-1.49-1.68-2.27-2.64v0c-1.6 0.96-2.74 1.96-3.42 3-0.687 1.047-1.03 2.163-1.03 3.35v0c0 0.927 0.18 1.75 0.54 2.47 0.36 0.713 0.857 1.313 1.49 1.8 0.633 0.487 1.377 0.857 2.23 1.11 0.86 0.253 1.787 0.38 2.78 0.38v0c1.22 0 2.377-0.207 3.47-0.62 1.1-0.413 2.09-1.133 2.97-2.16zM121.87 27.27v0c0 0.587 0.113 1.18 0.34 1.78 0.227 0.607 0.513 1.2 0.86 1.78 0.34 0.587 0.72 1.15 1.14 1.69 0.427 0.533 0.837 1.03 1.23 1.49v0c1.66-0.893 2.923-1.943 3.79-3.15 0.873-1.207 1.31-2.41 1.31-3.61v0c0-0.587-0.107-1.13-0.32-1.63-0.213-0.493-0.51-0.917-0.89-1.27-0.38-0.347-0.833-0.62-1.36-0.82-0.52-0.193-1.097-0.29-1.73-0.29v0c-0.667 0-1.27 0.107-1.81 0.32-0.533 0.213-0.993 0.503-1.38 0.87-0.38 0.367-0.67 0.793-0.87 1.28-0.207 0.487-0.31 1.007-0.31 1.56zM167.87 36.74v13.7c0.407 0.193 0.84 0.357 1.3 0.49 0.467 0.127 0.92 0.23 1.36 0.31 0.44 0.087 0.863 0.147 1.27 0.18 0.407 0.027 0.757 0.04 1.05 0.04v0c1.253 0 2.383-0.247 3.39-0.74 1.007-0.493 1.87-1.17 2.59-2.03 0.713-0.853 1.263-1.85 1.65-2.99 0.38-1.14 0.57-2.36 0.57-3.66v0c0-1.22-0.16-2.36-0.48-3.42-0.313-1.053-0.757-1.973-1.33-2.76-0.567-0.78-1.257-1.393-2.07-1.84-0.813-0.447-1.71-0.67-2.69-0.67v0c-1.167 0-2.317 0.313-3.45 0.94-1.133 0.627-2.187 1.443-3.16 2.45zM166.69 29.32l0.88 4.35c0.587-0.553 1.223-1.117 1.91-1.69 0.68-0.567 1.417-1.083 2.21-1.55 0.787-0.46 1.633-0.843 2.54-1.15 0.9-0.3 1.863-0.45 2.89-0.45v0c1.58 0 2.993 0.347 4.24 1.04 1.24 0.693 2.293 1.613 3.16 2.76 0.86 1.147 1.523 2.463 1.99 3.95 0.46 1.493 0.69 3.03 0.69 4.61v0c0 2.08-0.38 4.007-1.14 5.78-0.767 1.773-1.81 3.307-3.13 4.6-1.32 1.3-2.867 2.31-4.64 3.03-1.773 0.727-3.66 1.09-5.66 1.09v0c-0.393 0-0.807-0.013-1.24-0.04-0.427-0.02-0.85-0.057-1.27-0.11-0.413-0.047-0.813-0.107-1.2-0.18-0.393-0.073-0.743-0.16-1.05-0.26v0 13.19h-5.91v-38.97zM200 55.2l-9.26-25.88h6.55l5.02 16.58 1.13 4.86h0.49l1.09-4.86 5.08-16.58h5.59l-13.89 38.97h-5.47l5.47-13.09zM224.48 48.05v-14.51h-5.2l0.44-2.78c1.287-0.327 2.317-0.693 3.09-1.1 0.773-0.407 1.417-0.907 1.93-1.5 0.513-0.593 0.96-1.317 1.34-2.17 0.387-0.853 0.83-1.89 1.33-3.11v0h2.83v6.44h9.31l-1.05 4.22h-8.08v13.33c0 0.8 0.113 1.473 0.34 2.02 0.227 0.547 0.55 0.99 0.97 1.33 0.427 0.34 0.937 0.587 1.53 0.74 0.593 0.16 1.263 0.24 2.01 0.24v0c0.72 0 1.433-0.067 2.14-0.2 0.707-0.127 1.377-0.313 2.01-0.56v0 2.98c-1.107 0.747-2.29 1.31-3.55 1.69-1.26 0.387-2.533 0.58-3.82 0.58v0c-2.46 0-4.337-0.667-5.63-2-1.293-1.34-1.94-3.22-1.94-5.64zM246.11 55.2v-39.11h5.91v17.41c0.607-0.54 1.27-1.083 1.99-1.63 0.727-0.547 1.493-1.047 2.3-1.5 0.807-0.453 1.657-0.823 2.55-1.11 0.893-0.287 1.82-0.43 2.78-0.43v0c1.173 0 2.24 0.22 3.2 0.66 0.96 0.44 1.783 1.06 2.47 1.86 0.68 0.793 1.207 1.753 1.58 2.88 0.373 1.12 0.56 2.363 0.56 3.73v0 17.24h-5.93v-16.58c0-0.88-0.123-1.647-0.37-2.3-0.24-0.66-0.573-1.21-1-1.65-0.42-0.44-0.927-0.77-1.52-0.99-0.593-0.22-1.233-0.33-1.92-0.33v0c-1.207 0-2.347 0.31-3.42 0.93-1.073 0.613-2.163 1.427-3.27 2.44v0 18.48zM288.55 55.69v0c-2.04 0-3.837-0.343-5.39-1.03-1.553-0.68-2.86-1.603-3.92-2.77-1.053-1.16-1.853-2.507-2.4-4.04-0.547-1.527-0.82-3.147-0.82-4.86v0c0-1.967 0.35-3.81 1.05-5.53 0.7-1.713 1.68-3.21 2.94-4.49 1.26-1.28 2.763-2.29 4.51-3.03 1.74-0.74 3.65-1.11 5.73-1.11v0c2.04 0 3.84 0.343 5.4 1.03 1.56 0.68 2.87 1.607 3.93 2.78 1.06 1.173 1.863 2.53 2.41 4.07 0.54 1.533 0.81 3.157 0.81 4.87v0c0 1.987-0.353 3.837-1.06 5.55-0.707 1.72-1.697 3.213-2.97 4.48-1.267 1.273-2.77 2.27-4.51 2.99-1.74 0.727-3.643 1.09-5.71 1.09zM289.57 51.46v0c1.04 0 1.993-0.213 2.86-0.64 0.86-0.433 1.6-1.037 2.22-1.81 0.62-0.773 1.1-1.697 1.44-2.77 0.34-1.073 0.51-2.26 0.51-3.56v0c0-1.273-0.167-2.487-0.5-3.64-0.333-1.16-0.817-2.183-1.45-3.07-0.633-0.887-1.407-1.593-2.32-2.12-0.913-0.527-1.947-0.79-3.1-0.79v0c-1.06 0-2.02 0.22-2.88 0.66-0.867 0.433-1.603 1.043-2.21 1.83-0.613 0.78-1.09 1.71-1.43 2.79-0.34 1.087-0.51 2.27-0.51 3.55v0c0 1.287 0.167 2.51 0.5 3.67 0.333 1.153 0.817 2.17 1.45 3.05 0.633 0.88 1.407 1.577 2.32 2.09 0.913 0.507 1.947 0.76 3.1 0.76zM309.39 55.2v-25.88h4.79l0.83 4.42c0.567-0.52 1.21-1.07 1.93-1.65 0.713-0.573 1.493-1.1 2.34-1.58 0.847-0.487 1.74-0.887 2.68-1.2 0.933-0.32 1.903-0.48 2.91-0.48v0c1.193 0 2.273 0.223 3.24 0.67 0.967 0.453 1.793 1.08 2.48 1.88 0.68 0.807 1.207 1.773 1.58 2.9 0.373 1.12 0.56 2.347 0.56 3.68v0 17.24h-5.93v-16.53c0-0.88-0.12-1.653-0.36-2.32-0.247-0.667-0.587-1.22-1.02-1.66-0.427-0.44-0.94-0.773-1.54-1-0.593-0.227-1.23-0.34-1.91-0.34v0c-1.207 0-2.347 0.31-3.42 0.93-1.073 0.613-2.157 1.427-3.25 2.44v0 18.48z" fill="#8eaec4" fill-rule="nonzero" stroke="none" stroke-width="1" stroke-linecap="butt" stroke-linejoin="miter" stroke-miterlimit="10" stroke-dasharray="" stroke-dashoffset="0" font-family="none" font-weight="none" font-size="none" text-anchor="none" style="mix-blend-mode: normal" data-fill-palette-color="secondary" opacity="1"></path></g></svg></g></svg></g></svg></g></svg></g><g></g></svg></g></svg></g></svg></g></svg></g><defs></defs></svg><rect width="320" height="360" fill="none" stroke="none" visibility="hidden"></rect></g></svg></g></svg>