<svg xmlns="http://www.w3.org/2000/svg" version="1.1" xmlns:xlink="http://www.w3.org/1999/xlink" xmlns:svgjs="http://svgjs.dev/svgjs" width="2000" height="1247" viewBox="0 0 2000 1247"><g transform="matrix(1,0,0,1,-1.2121212121212466,217.95468993579505)"><svg viewBox="0 0 396 247" data-background-color="#ffffff" preserveAspectRatio="xMidYMid meet" height="1247" width="2000" xmlns="http://www.w3.org/2000/svg" xmlns:xlink="http://www.w3.org/1999/xlink"><g id="tight-bounds" transform="matrix(1,0,0,1,0.2400000000000091,-0.09999999999999432)"><svg viewBox="0 0 395.52 247.2" height="247.2" width="395.52"><g><svg></svg></g><g><svg viewBox="0 0 395.52 247.2" height="247.2" width="395.52"><g transform="matrix(1,0,0,1,75.54432,70.56403631509647)"><svg viewBox="0 0 244.43135999999998 106.07192736980704" height="106.07192736980704" width="244.43135999999998"><g><svg viewBox="0 0 244.43135999999998 106.07192736980704" height="106.07192736980704" width="244.43135999999998"><g><svg viewBox="0 0 244.43135999999998 106.07192736980704" height="106.07192736980704" width="244.43135999999998"><g><svg viewBox="0 0 244.43135999999998 106.07192736980704" height="106.07192736980704" width="244.43135999999998"><g id="textblocktransform"><svg viewBox="0 0 244.43135999999998 106.07192736980704" height="106.07192736980704" width="244.43135999999998" id="textblock"><g><svg viewBox="0 0 244.43135999999998 106.07192736980704" height="106.07192736980704" width="244.43135999999998"><g transform="matrix(1,0,0,1,0,0)"><svg width="244.43135999999998" viewBox="93.13000000000001 -38.43 258.10999999999996 108.32" height="106.07192736980704" data-palette-color="#336a86"><svg></svg><svg></svg><g class="wordmark-text-0" data-fill-palette-color="primary" id="text-0"><path d="M95.48 13.6l-2.35-3.52c1.047-0.76 1.957-1.593 2.73-2.5 0.767-0.9 1.42-1.853 1.96-2.86 0.54-1 0.967-2.043 1.28-3.13 0.32-1.093 0.543-2.217 0.67-3.37v0l2.74-24.1h8.49l-2.51 22.07c-0.193 1.727-0.547 3.437-1.06 5.13-0.513 1.693-1.27 3.3-2.27 4.82-1 1.52-2.287 2.92-3.86 4.2-1.573 1.28-3.513 2.367-5.82 3.26zM107.12-29.96v0c-0.68 0-1.29-0.097-1.83-0.29-0.533-0.193-0.99-0.46-1.37-0.8-0.373-0.347-0.657-0.747-0.85-1.2-0.193-0.453-0.29-0.943-0.29-1.47v0c0-0.647 0.14-1.257 0.42-1.83 0.287-0.567 0.683-1.063 1.19-1.49 0.5-0.42 1.09-0.757 1.77-1.01 0.673-0.253 1.4-0.38 2.18-0.38v0c0.667 0 1.267 0.1 1.8 0.3 0.527 0.193 0.977 0.46 1.35 0.8 0.373 0.34 0.663 0.74 0.87 1.2 0.2 0.453 0.3 0.95 0.3 1.49v0c0 0.647-0.14 1.257-0.42 1.83-0.287 0.567-0.677 1.063-1.17 1.49-0.5 0.42-1.087 0.753-1.76 1-0.68 0.24-1.41 0.36-2.19 0.36zM132.61-9.03l1.29-11.28c-0.453-0.28-0.927-0.483-1.42-0.61-0.5-0.133-0.987-0.2-1.46-0.2v0c-0.973 0-1.9 0.27-2.78 0.81-0.88 0.533-1.643 1.26-2.29 2.18-0.653 0.92-1.17 1.997-1.55 3.23-0.387 1.227-0.58 2.523-0.58 3.89v0c0 1.807 0.317 3.227 0.95 4.26 0.64 1.033 1.487 1.55 2.54 1.55v0c0.473 0 0.947-0.103 1.42-0.31 0.473-0.2 0.933-0.477 1.38-0.83 0.447-0.347 0.88-0.753 1.3-1.22 0.427-0.46 0.827-0.95 1.2-1.47zM143.08-26.51l-3.02 26.51h-7.23l-0.39-5.05c-0.713 0.78-1.437 1.507-2.17 2.18-0.733 0.673-1.49 1.26-2.27 1.76-0.787 0.493-1.59 0.883-2.41 1.17-0.82 0.287-1.67 0.43-2.55 0.43v0c-1.267 0-2.403-0.287-3.41-0.86-1-0.567-1.843-1.33-2.53-2.29-0.693-0.96-1.223-2.083-1.59-3.37-0.367-1.287-0.55-2.637-0.55-4.05v0c0-1.567 0.227-3.057 0.68-4.47 0.46-1.413 1.087-2.723 1.88-3.93 0.8-1.207 1.743-2.297 2.83-3.27 1.093-0.98 2.27-1.81 3.53-2.49 1.26-0.687 2.583-1.213 3.97-1.58 1.387-0.367 2.77-0.55 4.15-0.55v0c1.153 0 2.217 0.127 3.19 0.38 0.967 0.253 1.89 0.59 2.77 1.01v0zM151.48 0l-3.44-25.88h9.08l0.98 14.84c0.013 0.833 0.027 1.667 0.04 2.5 0.007 0.827 0.01 1.657 0.01 2.49v0h0.49c2.047-3.093 3.673-6.277 4.88-9.55 1.207-3.273 2.127-6.7 2.76-10.28v0h7.81c-0.633 2.44-1.393 4.783-2.28 7.03-0.887 2.247-1.9 4.433-3.04 6.56-1.14 2.12-2.407 4.2-3.8 6.24-1.393 2.033-2.91 4.05-4.55 6.05v0zM193.04-9.03l1.29-11.28c-0.453-0.28-0.93-0.483-1.43-0.61-0.493-0.133-0.977-0.2-1.45-0.2v0c-0.98 0-1.907 0.27-2.78 0.81-0.88 0.533-1.647 1.26-2.3 2.18-0.653 0.92-1.17 1.997-1.55 3.23-0.38 1.227-0.57 2.523-0.57 3.89v0c0 1.807 0.317 3.227 0.95 4.26 0.633 1.033 1.48 1.55 2.54 1.55v0c0.473 0 0.943-0.103 1.41-0.31 0.473-0.2 0.933-0.477 1.38-0.83 0.447-0.347 0.883-0.753 1.31-1.22 0.42-0.46 0.82-0.95 1.2-1.47zM203.51-26.51l-3.03 26.51h-7.22l-0.4-5.05c-0.713 0.78-1.437 1.507-2.17 2.18-0.733 0.673-1.49 1.26-2.27 1.76-0.78 0.493-1.58 0.883-2.4 1.17-0.827 0.287-1.677 0.43-2.55 0.43v0c-1.273 0-2.41-0.287-3.41-0.86-1-0.567-1.847-1.33-2.54-2.29-0.693-0.96-1.223-2.083-1.59-3.37-0.367-1.287-0.55-2.637-0.55-4.05v0c0-1.567 0.23-3.057 0.69-4.47 0.453-1.413 1.08-2.723 1.88-3.93 0.793-1.207 1.737-2.297 2.83-3.27 1.093-0.98 2.27-1.81 3.53-2.49 1.26-0.687 2.58-1.213 3.96-1.58 1.387-0.367 2.773-0.55 4.16-0.55v0c1.153 0 2.213 0.127 3.18 0.38 0.967 0.253 1.89 0.59 2.77 1.01v0zM206.34-1.37l1.86-5.51 0.48-0.27c1.207 0.76 2.44 1.35 3.7 1.77 1.267 0.413 2.483 0.62 3.65 0.62v0c1.22 0 2.15-0.22 2.79-0.66 0.633-0.44 0.95-0.96 0.95-1.56v0c0-0.553-0.27-1.033-0.81-1.44-0.533-0.407-1.203-0.803-2.01-1.19-0.807-0.38-1.683-0.777-2.63-1.19-0.94-0.42-1.813-0.93-2.62-1.53-0.807-0.6-1.477-1.317-2.01-2.15-0.54-0.827-0.81-1.85-0.81-3.07v0c0-1.207 0.29-2.343 0.87-3.41 0.573-1.067 1.41-2.003 2.51-2.81 1.1-0.807 2.443-1.44 4.03-1.9 1.587-0.467 3.39-0.7 5.41-0.7v0c1.253 0 2.487 0.093 3.7 0.28 1.213 0.187 2.283 0.453 3.21 0.8v0l-1.86 5.51-0.51 0.27c-0.96-0.533-1.937-0.937-2.93-1.21-0.993-0.267-1.937-0.4-2.83-0.4v0c-0.667 0-1.237 0.07-1.71 0.21-0.473 0.14-0.86 0.32-1.16 0.54-0.3 0.22-0.523 0.467-0.67 0.74-0.147 0.28-0.22 0.557-0.22 0.83v0c0 0.587 0.267 1.083 0.8 1.49 0.54 0.407 1.217 0.797 2.03 1.17 0.813 0.373 1.693 0.763 2.64 1.17 0.94 0.407 1.817 0.9 2.63 1.48 0.813 0.58 1.49 1.277 2.03 2.09 0.533 0.813 0.8 1.807 0.8 2.98v0c0 1.073-0.253 2.143-0.76 3.21-0.513 1.067-1.287 2.023-2.32 2.87-1.033 0.847-2.33 1.53-3.89 2.05-1.553 0.52-3.37 0.78-5.45 0.78v0c-1.533 0-3.08-0.157-4.64-0.47-1.56-0.307-2.977-0.77-4.25-1.39zM251.68-6.59v3.44c-1.58 1.267-3.187 2.19-4.82 2.77-1.64 0.58-3.25 0.87-4.83 0.87v0c-1.593 0-3.017-0.27-4.27-0.81-1.253-0.533-2.313-1.28-3.18-2.24-0.873-0.96-1.543-2.103-2.01-3.43-0.46-1.327-0.69-2.79-0.69-4.39v0c0-1.527 0.21-2.987 0.63-4.38 0.427-1.393 1.017-2.68 1.77-3.86 0.76-1.18 1.663-2.25 2.71-3.21 1.053-0.96 2.21-1.773 3.47-2.44 1.26-0.667 2.6-1.183 4.02-1.55 1.413-0.367 2.87-0.55 4.37-0.55v0c0.76 0 1.64 0.067 2.64 0.2 1.007 0.127 2.07 0.377 3.19 0.75v0l-1.83 5.42-0.49 0.25c-0.507-0.307-1.13-0.613-1.87-0.92-0.74-0.3-1.55-0.45-2.43-0.45v0c-0.94 0-1.85 0.217-2.73 0.65-0.88 0.433-1.653 1.043-2.32 1.83-0.667 0.787-1.203 1.747-1.61 2.88-0.407 1.133-0.61 2.39-0.61 3.77v0c0 1.207 0.153 2.24 0.46 3.1 0.313 0.867 0.737 1.573 1.27 2.12 0.54 0.54 1.17 0.937 1.89 1.19 0.727 0.253 1.507 0.38 2.34 0.38v0c0.733 0 1.493-0.103 2.28-0.31 0.787-0.2 1.67-0.56 2.65-1.08zM256.98 0l2.95-25.88h7.25c-0.013 1.48-0.017 2.95-0.01 4.41 0.007 1.453 0.003 2.92-0.01 4.4v0c0.52-1.12 1.063-2.233 1.63-3.34 0.573-1.107 1.21-2.1 1.91-2.98 0.7-0.88 1.487-1.597 2.36-2.15 0.88-0.553 1.9-0.83 3.06-0.83v0c1.087 0 2.037 0.213 2.85 0.64v0l-1.8 7.98c-0.52-0.08-0.97-0.133-1.35-0.16-0.373-0.02-0.747-0.03-1.12-0.03v0c-0.747 0-1.467 0.093-2.16 0.28-0.693 0.187-1.36 0.5-2 0.94-0.647 0.44-1.273 1.023-1.88 1.75-0.613 0.733-1.203 1.647-1.77 2.74v0l-1.42 12.23zM281.12 0l2.96-25.88h8.49l-2.95 25.88zM288.67-29.96v0c-0.687 0-1.293-0.097-1.82-0.29-0.533-0.193-0.987-0.46-1.36-0.8-0.373-0.347-0.657-0.747-0.85-1.2-0.2-0.453-0.3-0.943-0.3-1.47v0c0-0.647 0.143-1.257 0.43-1.83 0.287-0.567 0.677-1.063 1.17-1.49 0.5-0.42 1.087-0.757 1.76-1.01 0.673-0.253 1.403-0.38 2.19-0.38v0c0.667 0 1.267 0.1 1.8 0.3 0.54 0.193 0.997 0.46 1.37 0.8 0.373 0.34 0.663 0.74 0.87 1.2 0.2 0.453 0.3 0.95 0.3 1.49v0c0 0.647-0.143 1.257-0.43 1.83-0.28 0.567-0.673 1.063-1.18 1.49-0.507 0.42-1.097 0.753-1.77 1-0.673 0.24-1.4 0.36-2.18 0.36zM307.05-25.88l0.39 5.08c0.713-0.8 1.447-1.537 2.2-2.21 0.747-0.673 1.51-1.26 2.29-1.76 0.78-0.493 1.59-0.883 2.43-1.17 0.84-0.287 1.7-0.43 2.58-0.43v0c1.267 0 2.403 0.287 3.41 0.86 1.013 0.567 1.873 1.333 2.58 2.3 0.707 0.973 1.253 2.097 1.64 3.37 0.38 1.28 0.57 2.627 0.57 4.04v0c0 1.5-0.207 2.947-0.62 4.34-0.42 1.387-1 2.683-1.74 3.89-0.74 1.207-1.617 2.307-2.63 3.3-1.02 0.993-2.123 1.843-3.31 2.55-1.187 0.707-2.437 1.25-3.75 1.63-1.307 0.387-2.637 0.58-3.99 0.58v0c-0.687 0-1.35-0.047-1.99-0.14-0.64-0.087-1.23-0.21-1.77-0.37v0l-1.49 13.11h-8.5l4.45-38.97zM307.24-16.85l-1.27 11.28c0.507 0.28 1.037 0.483 1.59 0.61 0.553 0.133 1.073 0.2 1.56 0.2v0c1.06 0 2.03-0.273 2.91-0.82 0.88-0.547 1.633-1.273 2.26-2.18 0.627-0.913 1.113-1.97 1.46-3.17 0.353-1.193 0.53-2.45 0.53-3.77v0c0-1.92-0.34-3.393-1.02-4.42-0.673-1.02-1.54-1.53-2.6-1.53v0c-0.467 0-0.94 0.1-1.42 0.3-0.48 0.207-0.953 0.48-1.42 0.82-0.467 0.34-0.917 0.743-1.35 1.21-0.44 0.46-0.85 0.95-1.23 1.47zM332.22-9.23l1.29-11.4h-5.17l0.95-3.59c0.893-0.307 1.673-0.6 2.34-0.88 0.673-0.273 1.263-0.57 1.77-0.89 0.513-0.313 0.973-0.66 1.38-1.04 0.407-0.373 0.807-0.817 1.2-1.33 0.393-0.513 0.797-1.093 1.21-1.74 0.413-0.653 0.89-1.42 1.43-2.3v0h4.2l-0.74 6.52h9.16l-1.78 5.25h-7.45l-1.25 10.94c-0.173 1.607 0.073 2.757 0.74 3.45 0.667 0.693 1.643 1.04 2.93 1.04v0c0.68 0 1.337-0.093 1.97-0.28 0.64-0.187 1.357-0.483 2.15-0.89v0 3.56c-1.4 1.06-2.913 1.873-4.54 2.44-1.627 0.573-3.213 0.86-4.76 0.86v0c-1.447 0-2.66-0.253-3.64-0.76-0.973-0.507-1.737-1.193-2.29-2.06-0.553-0.873-0.913-1.9-1.08-3.08-0.16-1.18-0.167-2.453-0.02-3.82z" fill="#336a86" fill-rule="nonzero" stroke="none" stroke-width="1" stroke-linecap="butt" stroke-linejoin="miter" stroke-miterlimit="10" stroke-dasharray="" stroke-dashoffset="0" font-family="none" font-weight="none" font-size="none" text-anchor="none" style="mix-blend-mode: normal" data-fill-palette-color="primary" opacity="1"></path><path d="M142.51 26.53v0c0 1.16-0.247 2.28-0.74 3.36-0.5 1.08-1.16 2.1-1.98 3.06-0.82 0.96-1.763 1.847-2.83 2.66-1.067 0.813-2.17 1.54-3.31 2.18v0c0.88 1.027 1.753 1.993 2.62 2.9 0.873 0.913 1.847 1.873 2.92 2.88v0c0.44-0.613 0.817-1.183 1.13-1.71 0.307-0.52 0.583-1.03 0.83-1.53 0.24-0.507 0.463-1.033 0.67-1.58 0.2-0.547 0.413-1.16 0.64-1.84v0h6.08c-0.733 1.753-1.537 3.42-2.41 5-0.88 1.58-1.883 3.11-3.01 4.59v0c0.993 0.813 1.947 1.55 2.86 2.21 0.913 0.66 1.873 1.317 2.88 1.97v0l-4.61 5.95c-1.013-0.68-2.017-1.4-3.01-2.16-0.993-0.753-1.943-1.53-2.85-2.33v0c-0.767 0.7-1.567 1.32-2.4 1.86-0.827 0.533-1.71 0.983-2.65 1.35-0.933 0.367-1.93 0.65-2.99 0.85-1.053 0.193-2.19 0.29-3.41 0.29v0c-1.793 0-3.387-0.207-4.78-0.62-1.387-0.42-2.557-0.997-3.51-1.73-0.953-0.727-1.68-1.597-2.18-2.61-0.493-1.007-0.74-2.113-0.74-3.32v0c0-1.287 0.247-2.453 0.74-3.5 0.5-1.053 1.16-2.017 1.98-2.89 0.827-0.88 1.77-1.68 2.83-2.4 1.067-0.713 2.18-1.387 3.34-2.02v0c-0.98-1.173-1.773-2.427-2.38-3.76-0.613-1.34-0.92-2.7-0.92-4.08v0c0-1.447 0.333-2.773 1-3.98 0.667-1.207 1.567-2.24 2.7-3.1 1.133-0.86 2.457-1.53 3.97-2.01 1.513-0.48 3.123-0.72 4.83-0.72v0c1.367 0 2.587 0.157 3.66 0.47 1.073 0.32 1.983 0.777 2.73 1.37 0.74 0.593 1.307 1.31 1.7 2.15 0.4 0.833 0.6 1.763 0.6 2.79zM134.85 49.04v0c-0.64-0.633-1.263-1.247-1.87-1.84-0.613-0.593-1.217-1.203-1.81-1.83-0.593-0.627-1.183-1.273-1.77-1.94-0.587-0.667-1.173-1.383-1.76-2.15v0c-1.187 0.68-2.097 1.473-2.73 2.38-0.633 0.9-0.95 1.903-0.95 3.01v0c0 1.387 0.483 2.483 1.45 3.29 0.967 0.807 2.29 1.21 3.97 1.21v0c0.927 0 1.87-0.157 2.83-0.47 0.96-0.307 1.84-0.86 2.64-1.66zM128.5 28.97v0c0 0.46 0.07 0.913 0.21 1.36 0.133 0.447 0.317 0.88 0.55 1.3 0.227 0.427 0.48 0.85 0.76 1.27 0.287 0.427 0.577 0.843 0.87 1.25v0c0.687-0.393 1.33-0.82 1.93-1.28 0.6-0.467 1.123-0.96 1.57-1.48 0.453-0.52 0.803-1.06 1.05-1.62 0.253-0.567 0.38-1.14 0.38-1.72v0c0-0.9-0.287-1.62-0.86-2.16-0.58-0.547-1.367-0.82-2.36-0.82v0c-0.6 0-1.15 0.1-1.65 0.3-0.493 0.207-0.923 0.483-1.29 0.83-0.367 0.353-0.653 0.767-0.86 1.24-0.2 0.467-0.3 0.977-0.3 1.53zM173.66 30.12l0.4 5.08c0.713-0.8 1.443-1.537 2.19-2.21 0.753-0.673 1.52-1.26 2.3-1.76 0.78-0.493 1.59-0.883 2.43-1.17 0.833-0.287 1.69-0.43 2.57-0.43v0c1.273 0 2.413 0.287 3.42 0.86 1.007 0.567 1.867 1.333 2.58 2.3 0.707 0.973 1.25 2.097 1.63 3.37 0.387 1.28 0.58 2.627 0.58 4.04v0c0 1.5-0.21 2.947-0.63 4.34-0.413 1.387-0.99 2.683-1.73 3.89-0.74 1.207-1.62 2.307-2.64 3.3-1.013 0.993-2.117 1.843-3.31 2.55-1.187 0.707-2.433 1.25-3.74 1.63-1.313 0.387-2.643 0.58-3.99 0.58v0c-0.687 0-1.35-0.047-1.99-0.14-0.647-0.087-1.237-0.21-1.77-0.37v0l-1.49 13.11h-8.5l4.44-38.97zM173.86 39.15l-1.27 11.28c0.507 0.28 1.037 0.483 1.59 0.61 0.553 0.133 1.073 0.2 1.56 0.2v0c1.06 0 2.03-0.273 2.91-0.82 0.873-0.547 1.623-1.273 2.25-2.18 0.627-0.913 1.117-1.97 1.47-3.17 0.347-1.193 0.52-2.45 0.52-3.77v0c0-1.92-0.337-3.393-1.01-4.42-0.673-1.02-1.54-1.53-2.6-1.53v0c-0.473 0-0.95 0.1-1.43 0.3-0.48 0.207-0.95 0.48-1.41 0.82-0.467 0.34-0.92 0.743-1.36 1.21-0.44 0.46-0.847 0.95-1.22 1.47zM199.64 56l-3.44-25.88h9.08l0.98 14.84c0.013 0.833 0.023 1.667 0.03 2.5 0.013 0.827 0.02 1.657 0.02 2.49v0h0.48c2.053-3.093 3.683-6.277 4.89-9.55 1.2-3.273 2.12-6.7 2.76-10.28v0h7.81c-0.633 2.44-1.4 4.787-2.3 7.04-0.893 2.26-1.91 4.453-3.05 6.58-1.14 2.133-2.403 4.213-3.79 6.24-1.393 2.027-2.903 4.033-4.53 6.02v0l-11.45 13.89-6.08-3.05 11.2-10.84zM228.74 46.77l1.3-11.4h-5.18l0.95-3.59c0.9-0.307 1.683-0.6 2.35-0.88 0.667-0.273 1.257-0.57 1.77-0.89 0.513-0.313 0.973-0.66 1.38-1.04 0.407-0.373 0.803-0.817 1.19-1.33 0.393-0.513 0.797-1.093 1.21-1.74 0.413-0.653 0.89-1.42 1.43-2.3v0h4.2l-0.73 6.52h9.15l-1.78 5.25h-7.45l-1.24 10.94c-0.18 1.607 0.063 2.757 0.73 3.45 0.667 0.693 1.643 1.04 2.93 1.04v0c0.687 0 1.347-0.093 1.98-0.28 0.633-0.187 1.35-0.483 2.15-0.89v0 3.56c-1.4 1.06-2.917 1.873-4.55 2.44-1.627 0.573-3.213 0.86-4.76 0.86v0c-1.447 0-2.657-0.253-3.63-0.76-0.98-0.507-1.747-1.193-2.3-2.06-0.553-0.873-0.91-1.9-1.07-3.08-0.167-1.18-0.177-2.453-0.03-3.82zM263.53 16.89l-2.12 18.46c0.653-0.7 1.33-1.393 2.03-2.08 0.7-0.68 1.447-1.29 2.24-1.83 0.8-0.54 1.65-0.977 2.55-1.31 0.907-0.333 1.887-0.5 2.94-0.5v0c1.227 0 2.3 0.23 3.22 0.69 0.913 0.453 1.66 1.07 2.24 1.85 0.58 0.78 0.983 1.7 1.21 2.76 0.227 1.06 0.277 2.19 0.15 3.39v0l-2.03 17.68h-8.5l1.96-16.85c0.127-1.133-0.04-2.05-0.5-2.75-0.467-0.7-1.157-1.05-2.07-1.05v0c-0.533 0-1.067 0.12-1.6 0.36-0.527 0.247-1.043 0.577-1.55 0.99-0.5 0.413-0.987 0.89-1.46 1.43-0.473 0.533-0.913 1.093-1.32 1.68v0l-1.85 16.19h-8.5l4.47-39.11zM294.47 56.49v0c-2.053 0-3.817-0.317-5.29-0.95-1.473-0.64-2.677-1.483-3.61-2.53-0.94-1.053-1.63-2.257-2.07-3.61-0.44-1.36-0.66-2.767-0.66-4.22v0c0-1.367 0.183-2.7 0.55-4 0.367-1.3 0.893-2.53 1.58-3.69 0.68-1.153 1.51-2.21 2.49-3.17 0.973-0.96 2.063-1.787 3.27-2.48 1.207-0.693 2.517-1.233 3.93-1.62 1.413-0.393 2.91-0.59 4.49-0.59v0c2.053 0 3.813 0.317 5.28 0.95 1.46 0.64 2.66 1.483 3.6 2.53 0.933 1.053 1.623 2.263 2.07 3.63 0.447 1.367 0.67 2.783 0.67 4.25v0c0 2.093-0.41 4.077-1.23 5.95-0.82 1.873-1.96 3.517-3.42 4.93-1.453 1.42-3.177 2.543-5.17 3.37-1.993 0.833-4.153 1.25-6.48 1.25zM295.95 51.24v0c0.787 0 1.54-0.233 2.26-0.7 0.727-0.46 1.367-1.11 1.92-1.95 0.553-0.84 0.993-1.833 1.32-2.98 0.327-1.147 0.49-2.403 0.49-3.77v0c0-0.98-0.09-1.897-0.27-2.75-0.18-0.853-0.453-1.59-0.82-2.21-0.367-0.613-0.82-1.1-1.36-1.46-0.533-0.36-1.15-0.54-1.85-0.54v0c-0.833 0-1.61 0.25-2.33 0.75-0.727 0.493-1.357 1.167-1.89 2.02-0.54 0.853-0.963 1.857-1.27 3.01-0.313 1.147-0.47 2.377-0.47 3.69v0c0 1.027 0.1 1.96 0.3 2.8 0.193 0.84 0.473 1.563 0.84 2.17 0.367 0.613 0.813 1.087 1.34 1.42 0.527 0.333 1.123 0.5 1.79 0.5zM314.73 56l2.95-25.88h7.25l0.37 5.54c0.733-0.793 1.467-1.553 2.2-2.28 0.733-0.727 1.5-1.367 2.3-1.92 0.807-0.553 1.67-0.997 2.59-1.33 0.92-0.333 1.917-0.5 2.99-0.5v0c1.22 0 2.283 0.23 3.19 0.69 0.9 0.453 1.64 1.073 2.22 1.86 0.58 0.793 0.983 1.72 1.21 2.78 0.227 1.053 0.277 2.173 0.15 3.36v0l-2.03 17.68h-8.5l1.96-16.85c0.127-1.153-0.04-2.077-0.5-2.77-0.467-0.687-1.163-1.03-2.09-1.03v0c-0.52 0-1.04 0.12-1.56 0.36-0.52 0.247-1.033 0.577-1.54 0.99-0.507 0.413-1 0.89-1.48 1.43-0.48 0.533-0.923 1.093-1.33 1.68v0l-1.85 16.19z" fill="#8eaec4" fill-rule="nonzero" stroke="none" stroke-width="1" stroke-linecap="butt" stroke-linejoin="miter" stroke-miterlimit="10" stroke-dasharray="" stroke-dashoffset="0" font-family="none" font-weight="none" font-size="none" text-anchor="none" style="mix-blend-mode: normal" data-fill-palette-color="secondary" opacity="1"></path></g></svg></g></svg></g></svg></g></svg></g><g></g></svg></g></svg></g></svg></g><g><path d="M91.49 63.239A122.216 122.216 0 0 1 304.03 63.239L301.232 63.239A119.418 119.418 0 0 0 94.288 63.239L91.49 63.239M91.49 183.961A122.216 122.216 0 0 0 304.03 183.961L301.232 183.961A119.418 119.418 0 0 1 94.288 183.961L91.49 183.961" fill="#336a86" stroke="transparent" data-fill-palette-color="tertiary"></path></g></svg></g><defs></defs></svg><rect width="395.52" height="247.2" fill="none" stroke="none" visibility="hidden"></rect></g></svg></g></svg>